<?xml version="1.0" encoding="UTF-8"?>
<svg id="_レイヤー_1" data-name="レイヤー_1" xmlns="http://www.w3.org/2000/svg" version="1.1" viewBox="0 0 300 54.48">
  <!-- Generator: Adobe Illustrator 30.5.1, SVG Export Plug-In . SVG Version: 2.1.4 Build 3)  -->
  <defs>
    <style>
      .st0 {
        fill: #420000;
      }
    </style>
  </defs>
  <path class="st0" d="M18.34,22.88c3.88-.73,6.24-3.41,6.24-8.54,0-9.44-6.24-11.11-13.52-11.11H0v42.45h13.05c8.18,0,12.84-3.77,12.84-12.58,0-6.03-2.62-9.59-7.55-10.22ZM9.38,9.51h1.63c3.51,0,5.35,1.73,5.35,5.08,0,3.56-.89,5.61-5.14,5.61h-1.83v-10.69ZM11.37,39.12h-1.99v-12.73h1.94c4.09,0,5.5,1.78,5.5,6.55,0,4.09-1.31,6.18-5.45,6.18Z"/>
  <path class="st0" d="M50.2,23.98c0-5.35-3.04-9.12-9.17-9.12-7.08,0-10.54,3.35-10.85,10.64l7.97.31.21-2.2c.05-1.36.42-2.41,1.89-2.41s1.78,1.1,1.78,2.67v3.04c-5.71,1.99-12.47,4.35-12.47,11.9,0,3.56,2.41,7.39,7.02,7.39,3.2,0,5.08-2.31,5.82-4.82.1.37.47,2.67.68,4.3h7.65c-.26-1.47-.52-3.77-.52-7.55v-14.15ZM42.03,38.91c-.58.79-1.36,1.52-2.41,1.52-1.47,0-2.36-1.26-2.36-3.3,0-3.04,1.94-4.87,4.77-6.5v8.28Z"/>
  <path class="st0" d="M64.72,36.61v-15.62h4.3v-5.61h-4.3V6.16h-8.65v9.22h-2.93v5.61h2.93v16.46c0,5.45,1.62,8.54,8.49,8.54,2.04,0,4.19-.26,5.14-.42v-6.71c-.63.11-1.42.21-2.31.21-1.57,0-2.67-.73-2.67-2.46Z"/>
  <path class="st0" d="M83.27,36.61v-15.62h4.3v-5.61h-4.3V6.16h-8.65v9.22h-2.93v5.61h2.93v16.46c0,5.45,1.62,8.54,8.49,8.54,2.04,0,4.19-.26,5.14-.42v-6.71c-.63.11-1.42.21-2.31.21-1.57,0-2.67-.73-2.67-2.46Z"/>
  <path class="st0" d="M116.54,14.86c-6.55,0-10.53,3.62-10.53,10.11v11.11c0,6.45,3.93,10.11,10.53,10.11s10.06-3.14,10.06-9.28v-2.94h-7.86v3.2c0,2.2-.94,2.93-2.2,2.93s-2.1-.89-2.1-3.25v-5.82h12.16v-6.08c0-6.6-3.35-10.11-10.06-10.11ZM118.74,27.07h-4.3v-2.57c0-2.78.79-3.56,2.04-3.56s2.25.68,2.25,3.09v3.04Z"/>
  <path class="st0" d="M196.3,2.64c-9.7,0-12.74,5.4-12.74,14.2v15.3c0,8.6,3.04,14.15,12.74,14.15s12.21-5.4,12.21-12.63v-3.67h-9.17v4.46c0,2.57-.1,5.19-3.04,5.19-2.78,0-3.25-2.31-3.25-5.19V14.49c0-2.57.26-5.24,3.25-5.24s3.04,2.62,3.04,5.09v4.25h9.17v-3.67c0-7.23-2.83-12.26-12.21-12.26Z"/>
  <path class="st0" d="M225.69,39.49c-.94.52-1.78.94-2.52.94-1.31,0-1.78-.84-1.78-2.31V15.38h-8.54v23.74c0,4.04,1.94,7.08,5.66,7.08,2.57,0,4.98-1.26,7.18-3.3v2.78h8.49V15.38h-8.49v24.11Z"/>
  <path class="st0" d="M248.23,20.41v-5.03h-8.54v30.29h8.54v-19.71c1.36-1.78,3.04-2.93,5.03-2.93,1.05,0,1.99.31,2.78.63v-8.49c-.37-.1-.79-.16-1.31-.16-2.83,0-4.56,1.94-6.5,5.4Z"/>
  <path class="st0" d="M268.3,20.41v-5.03h-8.54v30.29h8.54v-19.71c1.36-1.78,3.04-2.93,5.03-2.93,1.05,0,1.99.31,2.78.63v-8.49c-.37-.1-.79-.16-1.31-.16-2.83,0-4.56,1.94-6.5,5.4Z"/>
  <path class="st0" d="M291.93,15.38l-2.88,17.51-3.83-17.51h-8.02l7.13,25.52c.63,2.15,1.1,3.93,1.1,5.08,0,2.04-1.68,2.57-4.87,2.57v5.92h1.94c5.35,0,9.12-1.78,10.53-8.07l6.97-31.03h-8.07Z"/>
  <path class="st0" d="M154.81,1.31c-12.83,0-23.24,10.4-23.24,23.24s10.4,23.24,23.24,23.24,23.24-10.4,23.24-23.24S167.64,1.31,154.81,1.31ZM156.64,40.61c-1.57,0-2.84-1.27-2.84-2.84s1.27-2.84,2.84-2.84,2.84,1.27,2.84,2.84-1.27,2.84-2.84,2.84ZM145.13,38.86c-2.01,0-3.65-1.63-3.65-3.65s1.63-3.65,3.65-3.65,3.65,1.63,3.65,3.65-1.63,3.65-3.65,3.65ZM142.68,26.8c-1.57,0-2.84-1.27-2.84-2.84s1.27-2.84,2.84-2.84,2.84,1.27,2.84,2.84-1.27,2.84-2.84,2.84ZM168.01,37.15l-25.81-25.81c3.28-3.13,7.71-5.06,12.6-5.06,10.09,0,18.27,8.18,18.27,18.27,0,4.89-1.93,9.32-5.06,12.6Z"/>
  <path class="st0" d="M106.41,11.27c0-6.23-4.12-11.27-9.2-11.27s-9.2,5.05-9.2,11.27c0,4.19,1.87,7.83,4.63,9.78v24.62h8.49v-24.22c3.11-1.81,5.27-5.68,5.27-10.18Z"/>
</svg>