<?xml version="1.0" encoding="UTF-8"?>
<svg id="_レイヤー_1" data-name="レイヤー_1" xmlns="http://www.w3.org/2000/svg" version="1.1" viewBox="0 0 24 24">
  <!-- Generator: Adobe Illustrator 30.5.1, SVG Export Plug-In . SVG Version: 2.1.4 Build 3)  -->
  <defs>
    <style>
      .st0 {
        fill: #420000;
      }
    </style>
  </defs>
  <path class="st0" d="M12,1.02c6.05,0,10.98,4.92,10.98,10.98s-4.92,10.98-10.98,10.98S1.02,18.05,1.02,12,5.95,1.02,12,1.02M12,0C5.37,0,0,5.37,0,12s5.37,12,12,12,12-5.37,12-12S18.63,0,12,0h0Z"/>
  <path class="st0" d="M12.6,14.82c0,.51-.42.76-.82.76s-.8-.25-.8-.76v-.03c0-1.82,1.5-2.47,2.78-3.35.71-.48,1.25-1.07,1.25-2.05,0-1.12-1.07-1.92-2.75-1.92s-3.04.95-3.38,1.74c-.15.33-.42.46-.7.46-.43,0-.86-.31-.86-.76,0-.68,1.71-2.89,4.95-2.89,2.32,0,4.4,1.21,4.4,3.35,0,1.86-1.24,2.78-2.28,3.44-.83.52-1.8,1.01-1.8,1.98v.03ZM11.78,18.58c-.6,0-1.07-.48-1.07-1.07s.48-1.07,1.07-1.07,1.07.48,1.07,1.07-.48,1.07-1.07,1.07Z"/>
</svg>