<?xml version="1.0" encoding="UTF-8"?>
<svg id="_レイヤー_1" data-name="レイヤー_1" xmlns="http://www.w3.org/2000/svg" version="1.1" viewBox="0 0 24 24">
  <!-- Generator: Adobe Illustrator 30.5.1, SVG Export Plug-In . SVG Version: 2.1.4 Build 3)  -->
  <defs>
    <style>
      .st0 {
        fill: #420000;
      }
    </style>
  </defs>
  <path class="st0" d="M12,1.02c6.05,0,10.98,4.92,10.98,10.98s-4.92,10.98-10.98,10.98S1.02,18.05,1.02,12,5.95,1.02,12,1.02M12,0C5.37,0,0,5.37,0,12s5.37,12,12,12,12-5.37,12-12S18.63,0,12,0h0Z"/>
  <g>
    <path class="st0" d="M3.15,10.4v3.54c0,.74.6,1.33,1.33,1.33h2.48v-6.21h-2.48c-.74,0-1.33.6-1.33,1.33Z"/>
    <path class="st0" d="M13.13,6.58c-.13-.08-.3-.09-.44-.02l-4.93,2.5v6.21l4.93,2.5c.14.07.31.06.44-.02.13-.08.22-.23.22-.39V6.96c0-.16-.08-.3-.22-.39Z"/>
    <path class="st0" d="M17.7,8.85c-.18-.2-.49-.22-.69-.04-.2.18-.22.49-.04.69.68.76,1.02,1.71,1.02,2.67,0,.96-.34,1.91-1.02,2.67-.18.2-.16.51.04.69.2.18.51.16.69-.04.85-.94,1.27-2.14,1.27-3.32,0-1.19-.42-2.38-1.27-3.32Z"/>
    <path class="st0" d="M19.49,7.23c-.18-.2-.49-.22-.69-.04-.2.18-.22.49-.04.69,1.09,1.21,1.64,2.75,1.64,4.29,0,1.54-.55,3.07-1.64,4.29-.18.2-.16.51.04.69.2.18.51.16.69-.04,1.26-1.4,1.89-3.17,1.89-4.94,0-1.77-.63-3.54-1.89-4.94Z"/>
    <path class="st0" d="M15.21,10.43c-.2.18-.22.49-.04.69.27.3.4.68.41,1.06,0,.38-.13.75-.41,1.06-.18.2-.16.51.04.69.2.18.51.16.69-.04.44-.48.66-1.1.66-1.71,0-.61-.22-1.22-.66-1.71-.18-.2-.49-.22-.69-.04Z"/>
  </g>
</svg>