<?xml version="1.0" encoding="UTF-8"?>
<svg id="_レイヤー_1" data-name="レイヤー_1" xmlns="http://www.w3.org/2000/svg" version="1.1" viewBox="0 0 24 24">
  <!-- Generator: Adobe Illustrator 30.5.1, SVG Export Plug-In . SVG Version: 2.1.4 Build 3)  -->
  <defs>
    <style>
      .st0 {
        fill: #420000;
      }
    </style>
  </defs>
  <path class="st0" d="M12,1.02c6.05,0,10.98,4.92,10.98,10.98s-4.92,10.98-10.98,10.98S1.02,18.05,1.02,12,5.95,1.02,12,1.02M12,0C5.37,0,0,5.37,0,12s5.37,12,12,12,12-5.37,12-12S18.63,0,12,0h0Z"/>
  <g>
    <path class="st0" d="M2.86,10.4v3.54c0,.74.6,1.33,1.33,1.33h2.48v-6.21h-2.48c-.74,0-1.33.6-1.33,1.33Z"/>
    <path class="st0" d="M12.84,6.58c-.13-.08-.3-.09-.44-.02l-4.93,2.5v6.21l4.93,2.5c.14.07.31.06.44-.02.13-.08.22-.23.22-.39V6.96c0-.16-.08-.3-.22-.39Z"/>
  </g>
  <path class="st0" d="M21.03,15.41c-.12,0-.23-.04-.32-.13l-5.9-5.9c-.18-.18-.18-.47,0-.64.18-.18.47-.18.64,0l5.9,5.9c.18.18.18.47,0,.64-.09.09-.21.13-.32.13Z"/>
  <path class="st0" d="M15.12,15.41c-.12,0-.23-.04-.32-.13-.18-.18-.18-.47,0-.64l5.9-5.9c.18-.18.47-.18.64,0,.18.18.18.47,0,.64l-5.9,5.9c-.09.09-.21.13-.32.13Z"/>
</svg>