<?xml version="1.0" encoding="UTF-8"?>
<svg id="_レイヤー_1" xmlns="http://www.w3.org/2000/svg" version="1.1" viewBox="0 0 24 24">
  <!-- Generator: Adobe Illustrator 30.5.1, SVG Export Plug-In . SVG Version: 2.1.4 Build 3)  -->
  <defs>
    <style>
      .st0 {
        fill: #b88742;
      }
    </style>
  </defs>
  <path class="st0" d="M12,24C5.38,24,0,18.62,0,12S5.38,0,12,0s12,5.38,12,12-5.38,12-12,12ZM12,.98C5.92.98.98,5.92.98,12s4.94,11.02,11.02,11.02,11.02-4.94,11.02-11.02S18.08.98,12,.98Z"/>
  <g>
    <rect class="st0" x="7.62" y="12.73" width="9.35" height="6.34"/>
    <path class="st0" d="M17.94,20.05H6.64v-8.3h11.31v8.3ZM8.6,18.09h7.39v-4.38h-7.39v4.38Z"/>
  </g>
  <path class="st0" d="M16.96,13.71c-.54,0-.98-.44-.98-.98v-4.81c0-2.04-1.66-3.69-3.69-3.69s-3.69,1.66-3.69,3.69c0,.54-.44.98-.98.98s-.98-.44-.98-.98c0-3.12,2.54-5.65,5.65-5.65s5.65,2.54,5.65,5.65v4.81c0,.54-.44.98-.98.98Z"/>
</svg>