<?xml version="1.0" encoding="UTF-8"?>
<svg id="_レイヤー_1" data-name="レイヤー 1" xmlns="http://www.w3.org/2000/svg" viewBox="0 0 124 124">
  <defs>
    <style>
      .cls-1 {
        fill: #fff;
      }

      .cls-2 {
        fill: #697;
      }
    </style>
  </defs>
  <circle class="cls-2" cx="62" cy="62" r="62"/>
  <path class="cls-1" d="M94.57,24.56c.3.14.72.43.96.64,1.06.9,2.16,1.85,2.54,3.21.47,1.71-.76,2.57-2.07,3.67l-.95.79c-.98.81-1.58,2.02-2.06,3.18-.55,1.33-.84,2.77-.45,4.17l1.32,4.69.5,3.19.09,4.13-.45,4.04-.66,3.12-1.34,4.21c-.08.26-.23.67-.35.93l-1.47,3.21-2.24,3.96c-.16.28-.35.62-.52.86l-2.24,3.08-1.47,1.83-1.65,1.85-2.45,2.51-3.91,3.47-2.86,2.14-1.04.62-3.77,2.22-1.61.88-2.55,1.14-3.72,1.36-3.94,1.01-3.21.69c-.25-.09-.47-.06-.72-.05l-3.94.17-3.89-.19c0-.13-.09-.22-.19-.19l-.51.12c-2.54-.6-4.95-.69-7.21.2l-1.59-.02-2.33-2.12c-.66-.56-1.38-1.13-1.85-1.87-.42-.66-.51-1.56-.33-2.37l.32-1.36c.27-1.17.1-2.42-.05-3.62l-.58-4.45-.14-2.72c0-1.94.15-3.83.5-5.68l.61-3.19,1.26-4.35.48-1.28.98-2.44,1.89-3.91,1.3-2.16,1.16-1.81,2.38-3.2.72-.97,3.41-3.61c2.2-2.33,4.7-4.33,7.37-6.09l2.82-1.86c.42-.28,1.01-.63,1.45-.85l4.35-2.13,1.81-.76,1.66-.61,3.71-1.04c1.34-.37,2.74-.62,4.13-.67l3.93-.14,3.94.4c1.27.13,2.47.43,3.74.2,2.05-.37,3.98-1.25,5.39-2.9l2.62-3.06c.68-.79,2.1-.6,2.99-.19ZM64.07,36.51c-1.33.49-2.66,1.06-3.93,1.78l-2.81,1.6-1.43.87c-6.18,3.79-11.17,8.99-14.91,14.89-1.65,2.6-3.01,5.21-4.06,8.08l-.61,1.66-.57,1.8-1.02,4.8c-.47,2.21-.55,4.5-.22,6.9.92-3.85,2.26-7.52,4.11-11.04l1.82-3.47.73-1.28,1.86-2.91,1.57-2.32,1.36-1.8,2.84-3.51.45-.48c2.29-2.45,4.45-4.98,7.03-7.12l.59-.49c2.38-1.98,4.84-3.8,7.42-5.42,3.02-1.89,6.19-3.42,9.62-4.56-3.59-.04-6.79.89-9.86,2.02ZM79.3,38.05c-7.65,2.61-13.33,7.7-19.19,13.46-.6.59-1.4,1.36-2.29,1.34-1.06-.02.63-2.71,2.16-4.47,3.07-3.53,6.52-6.63,10.42-9.3.34-.23,1.02-.17,1.09-.79-5.24,2.4-9.83,5.56-14.09,9.42-6.32,5.73-11.66,12.36-15.53,19.95-1.94,3.82-3.66,7.63-4.6,12.02,3.25-5.52,6.81-10.61,10.84-15.59l4.21-4.84c.22-.25.6-.5.95-.67.48-.23.98.06,1.18.42.24.42.19.84-.15,1.31l-6.25,8.49-1.87,2.57-1.95,2.8-.8,1.19-2.59,4.14c-.2.32-.46.84-.68,1.15-.54.75-.93,1.63-1.39,2.53-.83,1.64-1.51,3.29-1.84,5.22l3.5-1.66,3.98-2.32c4.13-2.42,7.96-5.31,11.82-8.25,1.48-1.13,2.87-2.25,4.24-3.46-.2-.33.18-.68.48-.4,3.98-3.38,7.69-7.02,11.26-11.05l-.02-.75c0-.19.38-.54.83-.25l3.28-4.02c3.41-4.18,8.44-12.53,9.46-17.67.1-.52.03-1.17-.26-1.41-.48-.41-1.13-.28-1.68-.23-1.62.15-3.11.63-4.54,1.11ZM87.99,51.82l-.47,1.55-.95,2.59-1.9,4.12c-.33.72-.75,1.43-1.14,2.14-.29.53-.62,1.07-.95,1.57l-2.57,3.92c-.14.03-.2.15-.22.28l-2.73,3.41-1.23,1.44-2.55,2.73-1.41,1.4-2.74,2.57-1.15.96-3.66,3.04c-.08,0-.2-.02-.28.03l-3.41,2.26-2.15,1.33c-2.48,1.54-5.22,2.55-7.99,3.74,3.52.05,6.62-.81,9.65-1.82,1.01-.34,2.01-.73,2.99-1.2l.95-.46c2.79-1.34,5.49-2.93,7.95-4.76,1-.74,2.17-1.39,2.91-2.38.45-.17.68-.63,1.01-.9,1.29-1.06,2.45-2.27,3.49-3.57l.66-.82c.85-1.06,1.73-2.13,2.54-3.23,1.8-2.45,3.36-5.1,4.55-7.93.26-.63.76-1.41.64-2.07.53-.51.55-1.26.78-1.84.5-1.28.78-2.62,1-3.95.22-1.31.43-2.61.47-3.94.07-2.29.02-4.61-.67-6.84-.36,2.43-.78,4.53-1.43,6.62ZM80.44,55.9l-.89,1.22-2.45,3.25c-.42.29-.66.71-.99,1.09l-1.81,2.12-2.42,2.72-1.14,1.16-2.76,2.78-1.27,1.17-2.87,2.62-1.45,1.29-2.5,2.05-2.35,1.91c-.3.25-.71.47-1.04.72l-4.03,2.96c-.18.13-.42.31-.65.46l-3.51,2.34-2.58,1.65-1.53.87-2.85,1.66,2.7-.24c2.88-.26,5.66-1.31,8.26-2.58l3.91-1.91,2.8-1.61,1.14-.71c7.89-4.93,14.41-11.82,19.44-19.54.08-.13.25-.37.25-.58.71-.78,1.06-1.78,1.58-2.62.82-1.32,1.47-2.74,2.07-4.17,1.35-3.24,2.55-6.55,2.98-10.25-1.73,3.62-3.73,7-6.05,10.19Z"/>
</svg>