<?xml version="1.0" encoding="UTF-8"?>
<svg id="_レイヤー_1" data-name="レイヤー 1" xmlns="http://www.w3.org/2000/svg" viewBox="0 0 124 124">
  <defs>
    <style>
      .cls-1 {
        fill: #7b99a9;
      }

      .cls-2 {
        fill: #fff;
      }
    </style>
  </defs>
  <circle class="cls-1" cx="62" cy="62" r="62"/>
  <g>
    <path class="cls-2" d="M50.2,62.78c-1.03.38-2.57-.12-2.81-1.38-2.01-10.89.82-24.72,5.08-34.84-1.11.67-1.41,1.66-2.13,2.48-2.04,3.29-3.52,6.7-4.72,10.55-1.69-.82-3.12-1.94-4.27-3.44-6.08-7.97,9.06-19.25,16.11-23.46,2.85-1.7,6.16-1.7,9.05,0,6.1,3.59,15.04,10.47,17.19,17.06,1.39,4.25-1.41,7.96-5.35,9.82-1.67-4.74-3.28-9.3-6.86-13.07,4.45,10.92,6.88,23.17,5.13,34.91-.1.7-.87,1.12-1.27,1.35-.6.34-1.43.06-2.11-.17-7.48-2.59-15.63-2.55-23.04.2Z"/>
    <path class="cls-2" d="M61.99,81c-2.82,5.74-4.92,11.37-3.04,17.45,1.34,4.35,2.41,8.66.57,12.93-.46,1.06-1.66,1.35-2.44,1.13-1.18-.32-1.8-1.52-1.47-2.68.64-2.26.51-4.46-.19-6.67l-1.57-4.92c-1.96-6.14-.37-11.69,1.29-17.66-1.87,2.17-3.17,4.59-4.33,7.18-1.1,2.45-.97,4.93-.04,7.41,1.74,4.63,3.58,9.58-.15,13.48l-1.27,1.32c-.8.84-2.01.56-2.71-.13-.78-.77-.82-1.98-.04-2.84,1.67-1.82,2.08-4.11,1.18-6.45l-1.99-5.15c-1.89-4.9-1.19-8.74,1.49-13.3l3.77-6.42c.46-.78.88-2.29-.05-3.14-1.5-1.38-2.48-5.61-.02-6.81,6.9-3.04,15.08-2.88,22.06-.1,1.86,1.17,1.79,4.78.51,6.12-1.19,1.24-1.5,2.48-.6,3.98l2.81,4.7c2.79,4.67,4.74,9.06,2.62,14.49l-2.12,5.43c-.93,2.39-.6,4.75,1.14,6.64.73.8.81,2.12,0,2.9-.68.66-1.98.78-2.86-.06-2.99-2.86-4.22-6.16-2.84-10.19l1.87-5.46c.74-2.15.53-4.34-.4-6.42-1.16-2.58-2.45-5-4.31-7.18,1.83,6.58,3.22,11.7,1.08,18.27l-1.33,4.1c-.78,2.39-.87,4.71-.21,7.12.28,1.01-.4,2.04-1.31,2.39-.69.26-1.97.15-2.47-.82-2.01-3.86-1.09-8.51.27-12.69,2.09-6.46-.02-11.97-2.9-17.96Z"/>
  </g>
</svg>