<?xml version="1.0" encoding="UTF-8"?>
<svg id="_レイヤー_1" data-name="レイヤー 1" xmlns="http://www.w3.org/2000/svg" viewBox="0 0 124 124">
  <defs>
    <style>
      .cls-1 {
        fill: #fff;
      }

      .cls-2 {
        fill: #9d6119;
      }
    </style>
  </defs>
  <circle class="cls-2" cx="62" cy="62" r="62"/>
  <g>
    <path class="cls-1" d="M51.62,50.57l3.33,2.34c.14.1.34-.03.44-.04.74.81,1.93.78,2.93.78l3.79-.03c1.43.17,2.55,1.11,3.78,1.65,1.07.48,2.32.63,3.43.7,1.24.07,2.28-.4,3.29-.87.79-.36,1.84-.55,2.8-1.07,1.1-.59,2.18-1.04,3.31-.73.4.11.77.44,1.09.7l3.19,2.6c1.09.89,2.28,1.74,2.26,3.16l-.03,3.32c-.03,3,1.44,4.78,1.02,6.97-.15-.03-.27-.01-.29.09l-.09.54c-.13.8-.83,2.11-1.26,2.94-.34.66-.82,1.27-1.48,1.66l-2.57,1.5c-.3.18-.41.4-.42.62-.05,1.05.02,2.05.27,3.02.34,1.34.7,2.69,1.2,3.98.26.67.34,1.54.9,2.16.13.14.03.55.04.72.45.86.38,2.56.35,3.48v.49s-1.23,3.11-1.23,3.11c-.46,1.32-.53,2.77-1.53,3.74-.31.02-.52.2-.72.27l-3.35,1.19c-1.08.38-2.22.63-3.36.72-1.49.12-2.62-.91-3.73-1.86-1.71-1.44-3.41.15-3.07-1.44-1.27-.35-2.61-.64-3.81-.14l-2.28.93c-.09.01-.37.06-.45.14-.06.07-.11.17-.09.3-1.49.48-3.68,1.67-4.63,2.54-.06.06-.15.14-.29.14l-2.82,1.27c-.87.39-2.1.13-2.91-.4-.31-.2-.8-.7-1.05-.96l-1.67-1.71-1.8-1.71c-3.55-3.36-.76-4.82.04-9.66l.65-3.92v-.24c1.02-.75,2.06-1.08,3.3-1.18,2.6-.21,5.22-1.34,6.98-3.25.7-.76,1.54-1.33,2.34-1.95.25-.19.69-.3,1-.43,1.16-.49,2.53-.44,3.8-.3,1.31.15,4.69,2.64,6.75,2.92l3.67.5c.25.32.63.54,1,.66.43,1.07.65,2.19.82,3.34.36,2.38,1.99,3.93,1.62,7.14-.08.72-.15,1.44.06,2.54l1.7-2.65c.63-.99.59-2.14.3-3.3-.6-2.39-2.01-3.84-2.51-6.4-.24-1.23-.46-2.83-.09-4.06.12-.4.77-.81.55-1.48.73-.22,1.16-1.24,1.72-1.62.78-.55,1.82-.97,1.94-2.13.49-.06.49-.65.64-.89.96-1.42.42-2.99.23-4.51l-.65-5.11-1,5.64c-.03.19-.05.56-.14.71l-1.51,2.06c-.34.47-.79.87-1.25,1.16-.97.61-1.51,1.74-2.17,2.66l-1.21,1.69c-1.33.23-2.54,0-3.8-.19l-3.35-.53c-1.1-.18-2.16-.27-3.29-.22-1.29.06-2.6.18-3.87.45-1.06.22-2.1.61-3.07,1.09l-2.11,1.05-1.61.79c-1.06.52-2.22.8-3.4.72l-3-.19c-.59-.04-1.27-.82-1.68-1.21-1.58-3.86-4.91-6.64-5.82-10.12.01-.31.35-.78.22-1.14l1.79-2.3c.84-1.16,1.58-2.63.79-3.81-.14-1.23-.87-2.47-.46-3.2l1.41-2.5c.49-1.59,1.95-2.39,3.32-2.81,1.24-.38,2.51-.6,3.79-.81,1.03-.17,2.07.05,3.08.19Z"/>
    <path class="cls-1" d="M76.37,14.26c.12.09.33.24.41.35.71.95,1.99,2.12,2.84,2.76.17.13.31.5.45.66,1.75,1.98,4.45,3.69,3.69,7.07-.25,1.13-.09,2.26-.05,3.29l.15,3.59c.04.88-.15,1.78-.34,2.6-1.75,1.44-1.49,3.76-.68,5.79l.68,1.72c.46,1.16.66,2.56.04,3.69-.19.34-.42.63-.43,1.02-1.14,1.31-2.76,1.52-3.37,2.4h-.23c-1.22.31-2.4.92-3.62,1.57l-2.88,1.53c-.75.4-1.38.68-2.21.84-.46-.33-.97-.12-1.55-.08-2.33.18-3.95-2.19-7.27-2.4-1.06-.07-2.25.53-3.22.39-1.13-.17-2.42-.75-3.4-1.29-.78-.43-1.48-1.31-2.84-.84-.31.11-.89-.22-.55-.9-1.27-.2-2.52-.4-3.78-.24l-3.87.52c-1.14.15-2-1.39-2.71-2.31l.4-4.12c.61-2.13.31-4.22-.85-6.04-.77-1.2-1.41-2.64-1.73-4.05l-.73-3.19c-.27-1.17-.11-2.42-.02-3.61.56-1.27,1.45-2.26,2.38-3.3.42.23.6-.16.82-.21l2.81-.72c2.77-.71,5.23-2.02,7.7-3.34.79-.42,1.83-.49,2.66-.39.57.07.93.69,1.3.88.16,1.29.66,2.85,1.96,3.26,1.24.39,2.6.18,3.85,0,1.21-.17,2.41-.42,3.5-.95.96-.47,1.51-1.88,1.39-2.8.4-1.02-.02-2.08.83-2.48.38-.18,1.03-.48,1.4-.54.92-.13,2.17-.36,3.08-.73,1.35-.55,2.93-.17,4.01.6ZM77.75,25.05c.21,1.01-.05,2.32-.46,3.23-.87,1.94-2.08,3.55-3.74,4.84-4.08,3.16.18,6.06-.87,9.59l-.41,1.4c-.21.7-.95,1.13-1.05,2.24,1.19-.29,1.67-1.09,2.29-1.74.47-.5.87-1.11,1.3-1.74.85-1.25.43-2.46,0-3.75-.4-1.21.34-2.3.92-3.4.18-.13.46-.27.41-.57l1.39-1.35c.7-.68,1.32-.86,1.67-1.72.47-1.17.22-2.37.37-3.55.14-1.15.08-2.3.08-3.45,0-2.04-.73-3.89-2.87-4.7l.99,4.67Z"/>
    <path class="cls-1" d="M64.5,101.49v3.15s0,3.65,0,3.65v2.74s-.02,11.19-.02,11.19v3.48s.04,3.78.04,3.78v3.14s-.03,3.53-.03,3.53c0,1.12.03,2.32-.42,3.38l-1.53,3.77c-.25.02-.64.09-.91-.16-.16-.15-.2-.37-.35-.74l-.83-2.02c-.28-.69-.64-1.6-.64-2.52l-.03-8.49v-3.34s-.04-3.94-.04-3.94l.04-3.28v-17.25s.07-1.38.07-1.38c.87-.04,1.54-.5,2.2-.72.73-.24,1.53-.41,2.44-.4l.02,2.41Z"/>
    <path class="cls-1" d="M62.5,4.02h.33c1.24.58,1.7,1.87,1.69,3.27l-.02,3.95.02,3.17.05,3.64-2.35.57-2.48.24.12-13.1c0-.61.8-1.1.97-1.55.55,0,1.12-.16,1.68-.18Z"/>
  </g>
</svg>