<?xml version="1.0" encoding="UTF-8"?>
<svg id="_レイヤー_1" data-name="レイヤー 1" xmlns="http://www.w3.org/2000/svg" viewBox="0 0 124 124">
  <defs>
    <style>
      .cls-1 {
        fill: #fff;
      }

      .cls-2 {
        fill: #995633;
      }
    </style>
  </defs>
  <circle class="cls-2" cx="62" cy="62" r="62"/>
  <path class="cls-1" d="M80.15,60.38c-11.48,5.87-25.34,6.46-36.52-.13-.57-.33-1.25.27-1.37.66-.18.58.02,1.2.6,1.56,4.56,2.76,9.75,4.19,15.12,4.71,1.11.11,1.96.62,1.96,1.89l.04,34.06c0,2.19-.74,3.79-2.59,5.02-3.25,2.18-8.91,2.17-8.58.28,2.21-12.61,3.52-25.16,3.94-37.94l-2.4-.5c-.31,13.18-1.85,25.96-4.08,39.03-4.21-.44-8.95-4.59-8.42-8.12l5.06-33.76-2.16-1.21c-2.08-1.16-2.93-3.49-2.42-5.81.45-2.05,2.14-3.71,4.61-4.14-1.2-10.55-2.98-20.92-5.17-31.35-.66-3.16.09-5.86,2.94-7.74,7.87-5.21,19.16-2.05,19.17,3.25l.1,40.79c1.35.2,2.65.14,3.98-.02l.18-41.17c.02-4.39,10.65-8.25,18.85-3.03,1.79,1.14,3.75,3.42,3.42,5.64l-2.6,17.32-2.44,16.37c1.91.45,3.32,1.66,3.93,3.09.79,1.88.63,3.73-.54,5.33-.95,1.3-2.49,2.04-3.95,2.7l5.21,33.76c.36,2.34-1.32,4.55-3.15,5.84-7.65,5.42-18.84,2.95-18.84-2.49v-35.66c-.01-.9,1.19-1.42,1.86-1.49,5.46-.59,10.5-2.13,15.26-4.63.56-.29.8-.88.62-1.39-.19-.56-.87-1.09-1.62-.71ZM52.79,59.69c-.35-12.65-1.77-24.75-4.45-36.79-.23-1.02-.04-1.77.74-2.41.6-.49,1.54-.51,2.28-.02.65.42.87,1.47,1.05,2.27,1.03.07,2.9-.67,3.39-1.84.82-1.94-6.41-4.25-12.06-1.17-.83.45-2.25,1.52-2.01,2.44.47,1.75,4.32.98,4.51,1.93,2.4,11.53,3.76,23.17,4.16,34.96.76.39,1.51.69,2.39.63ZM73.62,58.84c.57-11.97,1.78-23.39,4.23-34.86.16-.74,3.66.01,4.47-1.88-.25-1.51-1.92-2.41-3.21-2.93-5.32-2.16-11.77-.1-10.91,1.72.59,1.23,2.25,1.67,3.41,1.95.09-1.17.5-2.07,1.17-2.46.89-.52,1.79-.22,2.25.21.9.83.77,1.52.55,2.59-2.53,12.13-3.99,24.4-4.37,36.59,1.06-.36,1.85-.33,2.41-.92Z"/>
</svg>