<?xml version="1.0" encoding="UTF-8"?>
<svg id="_レイヤー_1" data-name="レイヤー 1" xmlns="http://www.w3.org/2000/svg" viewBox="0 0 124 124">
  <defs>
    <style>
      .cls-1 {
        fill: #fff;
      }

      .cls-2 {
        fill: #eaa51b;
      }
    </style>
  </defs>
  <circle class="cls-2" cx="62" cy="62" r="62"/>
  <g>
    <path class="cls-1" d="M37.57,96.65l-5.57,1.48c-1.16.31-2.25.8-3.61.62-.98-.13-2.67-1.25-2.68-2.4l-.14-10.19c1.64-.09,3.15-.66,4.18-1.96.25-.32.22-1.02.95-1.07-.06-.54.12-.81.25-1.16.65-1.69.12-3.54-.98-5.05-.97-1.32-2.53-2.16-4.41-2.23v-13.74c-.01-1.24.56-1.77,1.26-2.58l3.35-3.85,21.38-24.88,4.47-5.25c1.07-1.26,2.2-2.41,4.03-2.5,15.08-.78,32.63,3.72,41.05,16.96.8,1.26,1.31,2.36,1.31,3.9v31.39c.01,1.47-.16,2.7-.96,3.76-1.38,1.82-3.07,2.76-5.25,3.09l-3.87,1.08c-1.88.52-3.71.97-5.64,1.48l-11.42,3.01-5.51,1.51-28.18,7.5-4,1.07ZM60.71,57.43c.82-1.46.74-4.51.04-5.6l-1.08-1.68,2.1-.54c.93-.24,1.79-.54,2.7-.78l6.27-1.67,4.33-1.21,6.92-1.89,5.86-1.56,8.61-2.35c-.53-.89-1.05-1.46-1.58-2.02-2.44-2.62-5.04-4.71-8.12-6.46l-3.82-1.81c-.37-.18-.88-.17-1.18-.42-.35-.3-.81-.34-1.34-.48l-6.18-1.64c-.27-.07-.81-.2-1.11-.23l-3.36-.37c-3.09-.34-6.2-.31-9.39-.25l-1.53,1.65-3.71,4.41c-.16.19-.35.37-.24.58.05.1.31.29.42.34,1.65.75,2.6,2.85,1.59,4.38-1.17,1.76-4.49,2.64-6.31,2.33-.71-.12-1.39-.19-2.01-.09l-2.52,2.95-2.76,3.3c-1.35,1.62-2.67,3.13-4.02,4.73l-4.84,5.77c1.29-.29,2.25-.76,3.39-.67.16-.25.47-.3.69-.24.75-.59,1.81-.51,2.59-.73l5.54-1.54,1.7-.59c-.67,3.69,1.46,7.02,5,7.98,2.71.73,5.82-.89,7.35-3.6ZM80.71,55.41c-4.48.83-7.26,5.14-6.42,9.48.84,4.37,5.14,7.26,9.4,6.42,4.43-.87,7.29-5.16,6.46-9.42-.86-4.4-4.97-7.31-9.44-6.48ZM52.03,78.87c1.05-2.22.11-4.69-1.85-5.85-2.06-1.22-4.63-.74-6.13,1.27-1.64,2.19-.86,5.29,1.42,6.66,2.28,1.36,5.38.43,6.56-2.07Z"/>
    <path class="cls-1" d="M80.19,36.75c-.33,3.2-7.04,5.02-11.37,2.14-1-.67-1.31-1.57-1.3-2.56.03-3.52,7.8-4.97,11.48-2.08.78.61,1.29,1.52,1.19,2.5Z"/>
  </g>
</svg>