<?xml version="1.0" encoding="UTF-8"?>
<svg id="_レイヤー_1" data-name="レイヤー 1" xmlns="http://www.w3.org/2000/svg" viewBox="0 0 124 124">
  <defs>
    <style>
      .cls-1 {
        fill: #c8a638;
      }

      .cls-2 {
        fill: #fff;
      }
    </style>
  </defs>
  <circle class="cls-1" cx="62" cy="62" r="62"/>
  <path class="cls-2" d="M37.19,36.92l3.45.62c.92.17,1.47.73,1.81,1.54.11.27.3.46.51.64,1.59,1.42-.43,3.04,1.48,4.03,1.58.82.53,2.59,1.32,2.95.59.27.91.73,1.39,1.48.44-.84-.2-1.56-.9-1.93-.07-1.14.69-2-.39-2.69-1.36-.87-1.26-2.06-1.44-3.67-.02-.14-.29-.17-.14-.55.39.15.73-.42.96-.48.81.05,1.82.48,2.48.79l3.6,1.73,1.7.61c1.81.65,3.81.83,5.71.48l3.08-.56c3.34-.02,6.47-.62,9.39-2.35.58.41.76.93.92,1.49l.85,3c.19.67.64,1.27,1.3,1.11l.03,1.29,1.76,4.06c.62,1.44,1.2,3.23,1.34,4.93-.51.52-1.59.17-2.01-.34-.24-.3-.39-.63-.67-.71-.36-.1-.9-.04-1.11.13.73.42,1.2.81,1.43,1.4.45,1.12,2.08.4,2.56,1.29.29.55.1,1.28.23,1.88.55,2.58,1.81,4.8,2.92,7.04l2.31,4.65,1.19,2.88c.22.55.06,1.21.06,1.85l-4.6-.31c-.43,1.03-1.3,1.43-2.44,1.39.41.74,1.19,1.15,1.84,1.03.6-.11.97-.73,1.39-1.03.94-.67,2.48,1.43,4.32.38.14.08.71.48.69.73-.12,1.28.77,1.74,1.43,2.5.55.64,2.04,4.1,1.87,5.49-.15,1.26.49,2,1.17,2.78.9,1.02,1.62,2.32,1.78,3.71-.63,0-1.36.15-2,.05-.64-.11-1.29-.22-1.97-.22-1.55-.48-2.56-.91-4.3-.14-2.08.92-3.29.12-4.08.15-.26.01-.83-.02-1.08.18-1.26,1.03-2.65,1.52-4.08,2.06-1.7.64-3.61.39-5.43.75-1.9.38-3.59,1.14-5.24,1.8l-2.81,1.54-2.18.81-2.52.73c-.37-.3-.87-.72-1.41-.69-.11-.71-.03-1.26.04-1.82.18-1.51-1.73-1.96-2.35-2.87-.54-.79.75-2.43-1.84-3.73,1.01,1.87.3,2.67.49,3.35.27.92,2.17.82,2.05,3.25-.02.45-.15,1.01-.11,1.53.05.64.48,1.32.4,1.91-.33.59-1.76,1-3.1,1.46l-2.36.82-2.48.75c-.92.28-2.03-.42-2.84,0-.48.38-.88.96-1.56.81-3.42-.78-4.56,1.7-7.17.64l-.62-2.81c-.1-.46-.26-.84-.41-1.26l-.95-2.57c-1.39-2.95-2.97-5.74-4.82-8.44-.85-1.24-1.48-2.44-1.96-3.77-.68-1.9-.76-3.22-1.68-4.59-.19-.29-.46-1.15-.18-1.36l1.41-1.09c.9.14,1.67-.08,2.18-.82-.3-.03-.7.03-.96-.08-.95-.41-1.77.51-3.11-.38-.52-.34-.28-1.27-.45-1.7-.3-.76-.42-1.45-.29-2.15.15-.75.29-1.89.23-2.7-.94-1.99-.92-3.95-1.44-5.9l-1.29-4.9c-.82-3.13.21-4.03-.41-5.07-1.08-1.78-1.45-3.99-1.52-6.18-.05-1.73-.89-3.27-1.52-4.69-.68-1.53-1.59-3.49-1.14-4.74l1.95-.43c.85-.19,1.68-.41,2.69-.8l.46,1.08c.98.22,1.63-.29,2.22-.85.7-.67,1.81-1.86,2.92-1.85,1.08.02,2.1-.22,3.08-.14,1.56.13,2.9.55,4.38.1,1.64-.49,2.89-.61,4.6-.3ZM70.38,53.03c.19.45.62-.03.16-.14-.27-.37-.5-.73-.77-.84-.34-.14-.7.13-1.07.3l-.47.21c-.06.03-.12.16.03.31l2.13.16ZM76.94,76.49c-.25-.69-.71-1.03-1.21-1.26-.63-.29-1.25.1-1.88.63l3.09.62Z"/>
  <path class="cls-2" d="M93.73,30.78c-7.94,1.31-8.78,2.37-9.81,12.43-1.03-10.06-1.87-11.12-9.81-12.43,7.94-1.31,8.78-2.37,9.81-12.43,1.03,10.06,1.87,11.12,9.81,12.43Z"/>
  <path class="cls-2" d="M106.76,49.57c-5.21.86-5.76,1.55-6.44,8.15-.68-6.6-1.23-7.3-6.44-8.15,5.21-.86,5.76-1.55,6.44-8.15.68,6.6,1.23,7.3,6.44,8.15Z"/>
  <path class="cls-2" d="M104.38,73.44c-5.21.86-5.76,1.55-6.44,8.15-.68-6.6-1.23-7.3-6.44-8.15,5.21-.86,5.76-1.55,6.44-8.15.68,6.6,1.23,7.3,6.44,8.15Z"/>
</svg>