<?xml version="1.0" encoding="UTF-8"?>
<svg id="_レイヤー_1" data-name="レイヤー 1" xmlns="http://www.w3.org/2000/svg" viewBox="0 0 124 124">
  <defs>
    <style>
      .cls-1 {
        fill: #fff;
      }

      .cls-2 {
        fill: #dcaf66;
      }
    </style>
  </defs>
  <circle class="cls-2" cx="62" cy="62" r="62"/>
  <g>
    <path class="cls-1" d="M64.91,26.16l2.96.18c1.76.11,3.51.32,5.26.63l2.43.43,2.89.69,2.94.82c.79.22,1.21.19,2.39.7l3.06,1.31,1.42.61,1.21.67,2.38,1.16,5.08,3.1c.31.19.82.47,1.06.74.41.46,1.27.89,1.75,1.31l1.33,1.14,1.33,1.2,1.23,1.3,1.38,1.51,3.09,4.02.71,1.29c.39.72.6,1.52,1.43,2.04-.15.65.09,1.35.52,1.74l.95,2.93.55,2.45.28,2.79v2.43s-.32,2.39-.32,2.39l-.64,2.86-1.06,2.96c.05.04.06.1.06.15-.2-.09-.34.04-.35.26l-1.06,2.09c-.95,1.88-2.37,3.51-3.66,5.18-.33.43-1.02.77-1.23,1.33-.39.31-.78.66-1.11.98l-1.05,1.02-1.98,1.61-1.38,1.01-1.9,1.33-2.43,1.47-5.32,2.63-2.15.85-5.87,1.94-2.08.42-3.15.7-2.56.35-5.34.47-2.29.11h-3.34s-1.84,0-1.84,0l-3.24-.21-1.45-.11c-1.04-.08-2.32.2-3.25-.19-1.11-.47-2.09-.5-3.09-.7l-2.52-.48-3-.79-5.18-1.75c-1.99-.67-3.88-1.61-5.73-2.61-.14-.16.11-.57.29-.78l2.55-2.9c.98.75,2.08,1.16,3.18,1.6l2.6,1.02c.15,0,.42-.03.55-.09.37.64,1.27.49,1.76.74.85.43,1.84.52,2.73.75l2.55.67,2.79.51,5.83.71,2.27.07c.82.03,1.65.04,2.46.04l2.99-.02,2.56-.09,2.58-.22,2.1-.3,2.17-.32.76-.11,2.76-.57,2.63-.72c1.86-.51,3.71-1.09,5.48-1.87l2.64-1.16,1.6-.77c.16-.08.49-.09.58-.32,4.29-2.05,8.16-5,11.34-8.54l1.61-1.84c1.52-1.74,2.6-3.9,3.51-6.03.63-1.47.95-3.04,1.13-4.57.14-1.18.22-2.34.07-3.54l-.29-2.37c-.55-1.74-.99-3.54-1.84-5.15l-1.31-2.49-.76-1.23-.83-1.19c-.47-.67-.97-1.28-1.5-1.89l-.85-.98c-1.42-1.62-3.02-3.05-4.66-4.44-.31-.26-.72-.56-1.06-.8l-1.38-.98c-.8-.57-1.58-1.24-2.52-1.64-.12-.05-.24-.13-.34-.19l-2.24-1.36-5.59-2.55c-.78-.36-1.65-.59-2.45-.82l-5.5-1.59-2.54-.49-2.68-.47-2.51-.25-3.47-.23-2.1-.03-3.1.07-2.02.21c-1,.11-2.01.27-2.97.41l-2.54.38-2.86.59-2.1.63-.74.18-2.11.65-3.15,1.21-1.24.56-1.19.58c-1.58.77-3.14,1.64-4.8,2.59l-.86.49c-4.86,3.21-9.13,7.28-12.16,12.23l-.7,1.28c-.33.6-.64,1.25-.87,1.83l-.88,2.26c-1.07,2.74-1.49,5.68-.95,8.57.12.62.09,1.37.3,2.05.36,1.18.6,2.44,1.21,3.54l.86,1.55c.13.23.35.62.48.87.43.84,1.16,2.01,1.84,2.78l.68.78.12.23,3.17,3.07c.6.93,1.32,1.09,1.29,1.63l-2.95,2.55c-2.94-2.53-5.43-5.41-7.33-8.67l-1.29-2.77c-.72-1.54-1.25-3.2-1.51-4.88l-.43-2.79v-2.81c-.01-.78.07-1.63.24-2.39l.65-2.94c.4-1.8,1.24-3.47,1.94-5.11,1.65-2.9,3.58-5.61,5.84-8.09.17-.03.26-.13.36-.33.21-.42.75-.75,1.04-1.07.7-.33,1.12-1.06,1.63-1.49,1.48-1.25,3.07-2.34,4.66-3.43l1.84-1.26,1.03-.55,4.13-2.24,1.77-.76,2.39-.92c1.76-.68,3.61-1.2,5.43-1.71l2.71-.75c.75-.21,1.71-.43,2.49-.52l5.76-.72,2.17-.18,2.86-.15,2.15.08Z"/>
    <path class="cls-1" d="M54.63,52.47c-.04.17.16.32.31.33.26.54-.27.98-.32,1.5l-1.34,1.57-3.9,4.63c-.23.27-.56.49-.72.75-.17.28-.06,1.13.22,1.12,1-.06,1.57-.99,2.08-1.55l.62-.68,1.82-1.88,1.46-1.32,1.43-1.49.9-.62c.52,0,.92.33,1.08.77.22.58-.31.95-.66,1.39l-2.53,3.25c-.13.17-.35.44-.51.6-.69.74-1.63,1.72-2.08,2.54-.13.24-.49.45-.61.78-.09.25-.03.79.41.81.97.05,1.5-1.07,2.02-1.55.24-.22.44-.5.65-.73l1.77-1.86,3.06-3.18c.32-.16.53-.37.93-.32.26.03.39.33.45.53-.04.11-.05.27.29.44l-1.23,2.38-4.21,5.64c-1.17,1.57-2.52,2.91-4.08,3.95l-2.23.98c-.16-.11-.32-.09-.51-.09h-2.62c-1.07,0-2.41.62-2.6,1.78-.59.07-.91.66-1.26,1.07l-1.59,1.84-2.23,2.45-5.36,6.42c-.18.02-.23.26-.32.37l-1.77,2.1c-.13.15-.38.41-.51.56l-1.83,2.18-1.04,1.2-1.35,1.53-1.27,1.31-1.57,1.26c-.25.2-.64.48-.93.58-.83.28-1.69.49-2.55.38-.52-.07-1.15-.49-1.6-.6-.88-.64-.83-2.02-.97-2.79.27-.97.77-1.76,1.25-2.59.24-.4,1.01-.78,1.01-1.44.21-.05.5-.11.58-.09.37-.48.7-1.04,1-1.29.53-.44,1.1-.85,1.59-1.37.39-.41.92-.85,1.36-1.24l3.62-3.19,8.01-6.98,2.75-2.46c1.16-1.04,2.52-1.96,3.36-3.37.52-.88.03-2.02.07-2.86.04-.74.12-1.55.38-2.23.91-2.39,2.66-3.68,4.24-5.47.39-.44,1.08-.76,1.33-1.35l1.84-1.52,1.85-1.59c.58-.5,1.14-.93,1.82-1.27.26.05.49.02.75-.04Z"/>
    <path class="cls-1" d="M35.13,49.38l.04.82-1.61,2.01c-.21-.02-.25.12-.19.26-.8.81-1.36,1.82-1.87,2.86-.8,1.62-1.23,3.41-1.41,5.22-.08.83.11,1.66.2,2.47.06.52.17,1.06.28,1.53.13.53.42.94.59,1.43.73,2.06,2.94,4.71,4.91,6.46-.73.52-1.18.85-1.71,1.42l-1.11-.87c-.94-1.59-2.26-2.14-2.28-1.93l.04-.67c-.2-.66-.69-1.15-.97-1.64-.98-1.72-2.02-3.48-2.13-5.46l-.14-2.54c-.05-.96.1-1.97.35-2.9.49-1.82,1.33-3.49,2.3-5.12l.31-.51,1.07-1.52,1.7-1.82,1.57-1.14.06,1.62Z"/>
    <path class="cls-1" d="M94.21,48.86l1.19,1.36c.47.51.8,1.19,1.28,1.73.25.29.54.75.72,1.11l1.29,2.48c.83,1.6,1.34,3.48,1.15,5.23l-.27,2.38c-.04.4-.11.63-.21,1l-.52,1.83-1.38,2.9c-.06.13-.23.31-.33.43l-1.57,2.06-.98,1.09-2.26,2.13c-2.96,2.32-6.15,4.13-9.49,5.53-.09-.1-.33-.11-.42.04l-4.74,1.6-1.78.4-2.48.49-2.68.39-3.19.25-2.78.11c-.32.01-.57.03-.86.18l-3.82-.24-2.54-.21-2.66-.35-2.87-.48c-1.75-.29-3.46-.89-5.16-1.46l-2.51-.84-2.95-1.34c.06-.63,1.06-1.7,1.57-1.86,1.13.55,2.23,1.12,3.39,1.47l2.79.84,5.49,1.21c.83.18,1.69.21,2.51.31l2.7.31,2.7.08c.95.03,1.91.04,2.86,0,.8-.04,1.64-.04,2.43-.13.98-.11,1.98-.15,2.97-.29l2.01-.28c2.04-.29,4.05-.82,6.01-1.44.83-.26,1.72-.49,2.5-.84,1.41-.64,3.34-1.19,5.3-2.36l1.8-1.08c.45-.27.88-.6,1.26-.94,1.8-1.31,3.7-2.76,4.73-4.73.3-.04.37-.39.52-.58.57-.72,1.17-1.51,1.49-2.36.34-.91.72-1.83.82-2.78l.19-1.78c.12-1.08-.09-2.16-.32-3.21-.2-.92-.44-1.8-.89-2.6l-1.79-3.16c-.38-.67-.36-1.83-.71-2.37-.19-.29-.12-.96-.19-1.49.29.07.47.26.68.29Z"/>
    <path class="cls-1" d="M60.1,33.88l3.21.33c.57.06,1.24.07,1.85.2l2.98.67,2.42.61,2.79.94.92.36,1.64.63,2.33.92,2.57,1.22c-.06.23.19.31.34.25l2.63,1.61,1.22.78,1.38,1.04,1.97,1.78c.15.13.43.33.53.5.35.57.88,1,1.36,1.47,1.04,1.8,2.11,3.65,2.33,5.77l.26,2.5-.06,2.8-.1,1.83-.4,3.4c-.03.29-.23.56-.25.95l-1.02,1.87-2.08,2.53-.3.3c-1.37,1.37-3.03,2.49-4.71,3.47-1.72,1-3.56,1.91-5.51,2.26l-2.37.44-2.97.08c-.73.02-1.61.03-2.28-.14l-2.92-.72c-1.84-.46-3.44-1.49-4.98-2.54-.34-.23-.85-.61-1.19-.88l-1.32-1.03-3.02-2.64,4.36-5.58c.09-.11.44-.05.52-.13,1.66,1.41,3.31,2.7,5.25,3.59,1.71.79,3.6,1.19,5.51,1.27,1.86.08,3.8-.15,5.58-.73.95-.31,1.92-.58,2.77-1.06.66-.38,1.52-.54,2.1-1.12l.57-.31,1.81-1.25c1.37-.94,2.59-2.19,3.23-3.96l-2.69,1.88-2.33,1.48c-1.71,1.09-3.56,1.95-5.56,2.37l-2.42.5-2.69-.02-2.54-.37c-3.04-.82-5.2-2.99-6.23-5.92-.28-.81-.55-1.67-1.02-2.41-.15-.23-.34-.53-.36-.82,0-.18-.16-.42-.28-.51l1.15-1.51.92-.87c1.75-1.07,3.75-1.67,5.83-1.79.83-.05,1.66-.07,2.48-.19.95-.13,2.06.17,3.11-.65-.98-.9-2.25-.94-3.35-.93l-2.36.02c-.81,0-2.05.16-2.64-.48l-2.99-3.26c-.21-.23-.9-.04-.99.15-.15.3,0,.5.11.71.26.47.39,1.15.92,1.5-.22.2-.02.68.03.91.09.4-.04,1.05-.09,1.42-.41.06-.57.58-.79.72-.35.22-.88.62-1.21.8l-1.41.76c-.55.3-1.08.48-1.56.57l-2.55-.64-2.88-1.02-5.25-1.53c-.94-.27-1.87-.63-2.79-.98-2.45-.93-4.69-2.24-5.6-5-.59.47-.58,1.16-.63,1.79-.12,1.67,1.86,3.48,3.51,4.37l4.41,2.37c.37.2.66.54,1.08.4.2.33.8.43.76.99-.25.06-.39.35-.52.48l-1.83,1.79-2.64,2.57c-.49.48-1.28.88-1.43,1.73-.84-.22-1.5-.93-2.28-1.3l-.63-.3-1.98-1.94c-.22-.22-.62-.6-.73-.87-.27-.65-.72-1.39-.82-2.09-.24-1.83-.34-3.68-.15-5.5l.2-2.03.97-3.45c.11-.27.41-.69.57-.93.36-.54,1.06-.94,1.27-1.63.55-.01.91-.71,1.3-.95,1.74-1.07,3.48-2.05,5.41-2.7l2.27-.77,3.03-.67c.95-.21,1.94-.3,2.86-.39.7-.07,1.49-.13,2.18-.16.95-.04,1.97-.08,2.91.01ZM40.33,52.91c.08.85.33,2.08,1.27,2.23l1.24.2c-.22-.9-.25-1.69-.61-2.4-.04-.01-.04-.16-.06-.22-.4-.9-.92-1.76-1.82-2.46-.3,1.08-.1,1.85-.02,2.64Z"/>
  </g>
</svg>