<?xml version="1.0" encoding="UTF-8"?>
<svg id="_レイヤー_1" data-name="レイヤー 1" xmlns="http://www.w3.org/2000/svg" viewBox="0 0 124 124">
  <defs>
    <style>
      .cls-1 {
        fill: #746666;
      }

      .cls-2 {
        fill: #fff;
      }
    </style>
  </defs>
  <circle class="cls-1" cx="62" cy="62" r="62"/>
  <g>
    <path class="cls-2" d="M91.47,48.41c-1.69-1.79-3.76-2.39-3.08-5.65.69-.51,1.36-1,1.3-1.9-.05-.77-.42-1.53-1.4-1.8v-2.08c1.45-.03,2.63-.87,2.62-2.35l-.06-6.84c-.02-2.59-2.13-4.86-4.92-5.22-15.73-2.02-31.67-1.9-47.44-.08-3.21.37-5.36,2.82-5.36,6.05v6.08c0,1.47,1.13,2.44,2.6,2.39.22.61.25,1.62-.06,2-.84.49-1.38,1-1.34,1.88.03.8.39,1.51,1.39,1.85.45,3.14-.88,3.47-2.64,5.25-2.58,2.61-4.9,5.98-4.92,9.87l-.16,30.36c-.28,8.83,6.93,15.43,15.71,14.61l39.64-.17c7.03-.03,12.57-6.35,12.59-13.03l.09-29.5c.01-4.47-1.48-8.45-4.55-11.72ZM40.2,25.81c.16-.03.31-.05.47-.08.47-.07.95-.12,1.43-.17,6.12-.63,12.26-.99,18.42-1.05.77,0,1.54-.01,2.31,0,4.62,0,9.25.19,13.88.54.77.06,1.54.12,2.31.19.44.04.87.07,1.3.11,1.29.1,2.55.22,3.77.53.55.14,1.08.31,1.62.54l-31.86.06c-.4,0-1.03.55-1.25.96-.03.06-.05.11-.07.17-.22.85-.29,1.73-.29,2.62,0,.13,0,.26,0,.38,0,.26,0,.51.02.77,0,.13,0,.26.01.39.02.64.05,1.28.05,1.92l-1.51.1-.11-7.14c-.06-.02-.12-.03-.19-.05-.13-.03-.26-.05-.4-.06-.21-.02-.42-.02-.62,0-.34.03-.65.12-.88.28-.05.03-.09.06-.13.1-.16.14-.25.33-.26.56l-.09,3.13-.09,3.13h-6.02s-.13-7.29-.13-7.29l-.9-.04-2.69-.11c.62-.22,1.25-.37,1.88-.48ZM83.4,37.03l-.07,2.54h-42.64c-.11-.89-.17-1.71.08-2.55h42.64ZM88.91,94.97c-1.74,2.06-4,2.99-6.89,2.99l-28.78-.05c-4.47,0-8.55.42-13.07-.14-3.73-.47-7.24-3.93-7.25-7.93l-.07-30.98c0-2.88,1.54-5.29,3.4-7.15l2.7-2.68c1.64-1.63,1.65-4.09,1.7-6.28h42.71c0,2.13.31,4.17,1.46,5.97.68,1.07,1.65,1.69,2.59,2.55,1.95,1.79,3.73,4.4,3.73,7.28l.03,31.29c0,1.99-1.11,3.77-2.26,5.13Z"/>
    <path class="cls-2" d="M74.99,90.94c.05.53.1,1.18-.02,1.56-.41,1.34-1.68,2.17-3.02,2.12-1.38-.06-2.29-.94-2.89-2.51-.47,1.76-1.74,2.76-3.46,2.51-1.48-.22-2.62-1.56-2.52-3.26.08-1.44,1.41-2.64,2.77-2.77,1.48-.14,2.7.98,3.23,2.45.53-1.56,1.7-2.37,3.11-2.38,1.27-.02,2.68.91,2.8,2.29Z"/>
    <path class="cls-2" d="M78.72,86.22c-.14.91-.77,1.9-1.68,2.27-1.01.41-2.04.27-2.93-.25-.76-.45-1.19-1.25-1.38-2.17-.56,1.79-2.17,2.73-3.69,2.4-1.65-.36-2.61-1.95-2.24-3.54.35-1.5,2.02-2.72,3.7-2.25,1.19.34,1.84,1.5,2.25,2.47.48-1.76,2.17-2.61,3.6-2.34,1.69.32,2.62,1.76,2.37,3.41Z"/>
    <path class="cls-2" d="M81.66,77.92c1.17,1.23,1.15,3.03-.02,4.19-.75.74-1.98.99-3.03.66-1.02-.33-1.78-1.13-2.17-2.28-.78,1.85-2.48,2.46-4.03,1.79-1.53-.67-2.19-2.49-1.45-4.16.5-1.14,1.83-1.72,3.08-1.58,1.06.12,2.06.94,2.64,2.31.62-.86,1.33-1.56,2.19-1.77,1.06-.26,2.07.11,2.78.85Z"/>
    <path class="cls-2" d="M67.08,60.94c.25,1.42-.67,2.79-1.93,3.31-1.45.59-2.96-.15-3.69-1.37-.7-1.17-.46-2.88.6-3.75.94-.77,2.12-1.06,3.21-.59.95.41,1.63,1.29,1.82,2.39Z"/>
    <path class="cls-2" d="M85.94,94.23c-1.33.46-2.66-.36-3.33-1.54-.62-1.09-.43-2.74.59-3.62,1.08-.93,2.29-1.07,3.49-.45.97.5,1.71,1.6,1.57,2.93-.12,1.12-1.01,2.22-2.32,2.67Z"/>
    <path class="cls-2" d="M72.02,58.64c1.55.66,2.21,2.38,1.71,3.78-.55,1.54-1.99,2.35-3.61,1.95-1.35-.33-2.39-1.69-2.28-3.19.07-.97.7-1.85,1.39-2.25.89-.53,1.99-.63,2.79-.28Z"/>
    <path class="cls-2" d="M75.56,92.25c-.07-.4-.1-.96,0-1.35.23-.88.76-1.63,1.64-2.04,1.7-.8,3.63.11,4.21,1.9.49,1.51-.52,3.33-2.14,3.76-1.63.44-3.42-.58-3.71-2.28Z"/>
    <path class="cls-2" d="M83.78,67.11c.19.66.28,1.43-.06,2.1-.26.51-.85,1.09-1.37,1.38-1.52.86-3.29.25-4.05-1.15-.73-1.35-.32-3,1.02-3.95.87-.61,1.83-.77,2.89-.25.58.29,1.29.94,1.56,1.86Z"/>
    <path class="cls-2" d="M39.7,75.3c.93,0,1.8.68,2.45,1.51.74.94.66,2.34-.05,3.32-.62.85-1.67,1.57-2.96,1.26-1.66-.4-2.71-1.95-2.46-3.59.21-1.39,1.49-2.51,3.02-2.5Z"/>
    <path class="cls-2" d="M55.6,92.05c-.29,1.68-1.99,2.8-3.46,2.49-1.75-.37-2.69-1.8-2.44-3.46.24-1.58,1.78-2.81,3.4-2.52,1.63.29,2.79,1.81,2.5,3.5Z"/>
    <path class="cls-2" d="M62.38,91.72c-.07,1.54-1.29,2.79-2.89,2.85-1.55.06-2.83-.99-3.05-2.56-.24-1.78.99-3.34,2.78-3.45,1.8-.11,3.24,1.39,3.16,3.16Z"/>
    <path class="cls-2" d="M38.73,88.21c1.01-.15,1.88.27,2.57.98.57.58.94,1.62.76,2.48-.33,1.56-1.65,2.69-3.28,2.57-1.54-.12-2.71-1.44-2.7-3.04.01-1.49,1.04-2.75,2.64-2.99Z"/>
    <path class="cls-2" d="M87.19,74.02c1.21,1.38,1.01,3.29-.24,4.32-1.4,1.15-3.34.98-4.35-.49-.92-1.33-.69-3.07.43-4.05,1.22-1.07,3.13-.95,4.16.22Z"/>
    <path class="cls-2" d="M57.44,58.97c1.31.16,2.35,1.14,2.59,2.47.23,1.28-.53,2.51-1.82,3.16-1.52.78-3.36-.02-3.89-1.55-.35-1.03-.28-2.09.37-2.94.67-.87,1.68-1.27,2.74-1.15Z"/>
    <path class="cls-2" d="M48.8,91.81c-.22,1.61-1.77,2.85-3.37,2.64-1.4-.18-2.66-1.52-2.6-3.08.07-1.78,1.59-3.1,3.36-2.88,1.46.18,2.83,1.63,2.6,3.31Z"/>
    <path class="cls-2" d="M82.31,82.88c1.71-.04,2.85,1.33,2.8,3.1-.04,1.47-1.1,2.61-2.79,2.77-1.38.13-2.83-.83-3.07-2.33-.15-.99.07-1.83.74-2.56.61-.65,1.28-.96,2.32-.98Z"/>
    <path class="cls-2" d="M66.25,52.86c1.65-.75,3.27.06,3.97,1.55.65,1.37-.09,3.19-1.48,3.86-1.45.7-3.11.04-3.86-1.23-.85-1.44-.27-3.43,1.37-4.18Z"/>
    <path class="cls-2" d="M40.75,64.91c.92.68,1.18,1.6.59,2.71-.63,1.16-2.02,1.79-3.28,1.54-1.69-.34-2.7-2.07-2.28-3.81.39-1.6,2.08-2.54,3.99-2.05.33.44.49,1.25.98,1.61Z"/>
    <path class="cls-2" d="M45.55,59.97c.7.52,1.58,2.35.77,3.04-.94.8-2.28,1.12-2.93,2.49-.85-.25-1.62-.57-2.06-1.2-1-1.45-.9-3.07.31-4.2,1.04-.97,2.6-1.09,3.91-.13Z"/>
    <path class="cls-2" d="M49.6,58.81c-.84.41-1.52.91-2.09,1.64-.48-.75-1.22-.94-1.67-1.23-.25-.16-.79-.48-.99-.75-.86-1.68.05-3.44,1.59-4.03,1.68-.64,3.71.31,3.95,2.19.12.93-.04,1.82-.79,2.18Z"/>
    <path class="cls-2" d="M84.5,61.42l-1.3,1.04c-.34.27-1.39.33-1.79.02-.48-.85-.6-1.94-1.47-2.5-.34-.22-.7-.39-.83-.74.09-.3.2-.84.44-1.23.92-1.51,2.88-1.69,4.2-.7,1.35,1,1.55,2.62.75,4.12Z"/>
    <path class="cls-2" d="M74.35,60.18c.15-.75-.52-1.25-1.12-1.73l-.62-.49c-.18-1.38.44-2.74,1.59-3.33,1.34-.69,2.59-.32,3.56.59.82.78,1.32,2.89.12,3.48-1.13.55-2.63.41-3.53,1.47Z"/>
    <path class="cls-2" d="M84.63,66.7c-.28-.98-1.01-1.54-1.77-2.27l.72-1.32c.16-.3.73-.68,1.08-.85,1.52-.73,3.11-.03,3.85,1.25.74,1.29.5,3.38-1.08,3.93-.52.14-1.67-.58-2.32.03-.28-.3-.42-.56-.48-.77Z"/>
    <path class="cls-2" d="M78.75,60.12c1.26.6,2.14,2.3,1.27,3.73-.52.86-1.66,1.25-2.52,1.64-.64-1.17-1.61-1.53-2.58-2.11-.81-.48-.3-1.59.04-2.18.79-1.36,2.4-1.75,3.8-1.08Z"/>
    <path class="cls-2" d="M53.51,62.79l-.06.76c-1.19.13-2.11.76-2.96,1.49-.23.2-.43-.48-.58-.59l-1.94-1.45c-.35-1.55.72-2.93,2.1-3.36,1.25-.38,2.92.23,3.28,1.62.13.49.2,1.08.16,1.53Z"/>
    <path class="cls-2" d="M56.45,58c-1.23.38-2.1,1.02-2.78,1.88l-1.86-1.26c-1.03-1.35-.37-3.09.91-3.93,1.28-.84,3.1-.44,4.02.87l-.28,2.44Z"/>
    <path class="cls-2" d="M38.12,69.83c.72.04,1.37.2,2.05.97-.75,1.1-.74,2.41-.61,3.57-1.02-.43-2.01.98-2.73.98-1.52-.02-2.19-2.15-1.83-3.33.4-1.35,1.73-2.27,3.12-2.19Z"/>
    <path class="cls-2" d="M61.92,58.18c-.57.3-1.1.68-1.62,1.44-.73-.83-1.63-1.36-2.69-1.58-.8-1.66.71-3.59,2.41-3.79,1.83-.21,3.47,1.32,3.33,3.17l-1.43.75Z"/>
    <path class="cls-2" d="M38.92,82.19c.36.12.6.19,1.07.31-1.23,1.32-1.61,3-.84,4.64-.5.21-.92.34-1.33.34-1.36,0-2.65-1.04-2.87-2.3-.26-1.44.52-2.9,1.93-3.46.65-.26,1.43.26,2.04.47Z"/>
    <path class="cls-2" d="M86.03,86.3c.08-2.1-.82-3.65-2.73-4.3.6-1.34,1.7-2.06,2.94-1.9,1.14.15,2.1.89,2.51,2.15.58,1.81-.62,3.73-2.71,4.05Z"/>
    <path class="cls-2" d="M87.85,73.51c-1.14-1.35-2.94-1.69-4.6-1.03-1.09-1.32.83-1.39,1.38-3.31.13-.44.47-.84.97-.91,1.62-.21,2.76.69,3.34,2.02.49,1.12-.16,2.79-1.09,3.23Z"/>
    <path class="cls-2" d="M84.66,62.26c-.35.17-.92.55-1.08.85l-.37-.65,1.3-1.04c.09.24.04.55.15.84Z"/>
    <path class="cls-2" d="M49.22,70.59c1.74-.51,3.41.36,3.84,2.04.37,1.45-.34,3.2-2.06,3.74-1.39.44-3.01-.35-3.6-1.8-.62-1.54,0-3.44,1.81-3.97Z"/>
    <path class="cls-2" d="M51.21,87.93c-1.56,1.07-3.29.54-4.24-.71-1-1.32-.52-3.24.7-4.14,1.4-1.02,3.09-.77,4.1.46,1.05,1.28.91,3.38-.57,4.4Z"/>
    <path class="cls-2" d="M66.1,82.42c-1.44-.32-2.12-1.64-2.16-2.78-.04-1.31.69-2.56,2.04-3.02,1.28-.43,2.5.02,3.31.99.75.9.83,2.31.22,3.41-.59,1.05-1.89,1.73-3.42,1.4Z"/>
    <path class="cls-2" d="M45.87,76.41c1.68-.26,3.23.93,3.46,2.43.25,1.65-.77,3.2-2.36,3.56-1.51.34-3.26-.8-3.52-2.23-.32-1.76.61-3.49,2.42-3.76Z"/>
    <path class="cls-2" d="M63.1,69.09c-1.03,1.6-3.22,1.75-4.43.65-1.31-1.18-1.43-3.07-.27-4.34,1.23-1.34,3.37-1.41,4.55.13.74.96.89,2.41.15,3.56Z"/>
    <path class="cls-2" d="M41.81,82.5c1.65-.53,3.32.51,3.71,1.92.48,1.72-.3,3.4-1.97,3.86-1.53.41-3.22-.26-3.72-1.85-.47-1.51.16-3.35,1.98-3.93Z"/>
    <path class="cls-2" d="M63.18,70.58c1.55-.45,3.26.64,3.59,2.15.37,1.64-.44,3.27-2.17,3.67-1.51.34-3.09-.39-3.55-1.93-.52-1.75.2-3.32,2.12-3.88Z"/>
    <path class="cls-2" d="M69.78,70.59c1.62-.45,3.33.44,3.73,2,.4,1.55-.46,3.21-1.88,3.67-1.64.53-3.31-.21-3.88-1.86-.51-1.5.29-3.32,2.03-3.81Z"/>
    <path class="cls-2" d="M60.12,85.07c.27-1.41,1.58-2.5,2.91-2.54,1.84-.04,3.03,1.33,3.04,2.96.01,1.75-1.44,3.16-3.15,3.04-1.71-.12-3.17-1.57-2.8-3.47Z"/>
    <path class="cls-2" d="M58.08,87.92c-1.17.85-2.51.68-3.55.02-.92-.59-1.51-1.82-1.16-3.09.3-1.11,1.24-2.11,2.62-2.35,1.34-.23,2.45.64,3,1.76.58,1.18.32,2.77-.9,3.66Z"/>
    <path class="cls-2" d="M64.96,69.25c-.99-1.31-.69-2.93.24-3.93.94-1.01,2.54-1.33,3.73-.48,1.58,1.12,1.8,3.06.62,4.56-1.01,1.29-3.4,1.44-4.59-.15Z"/>
    <path class="cls-2" d="M58.82,76.76c1.66-.76,3.41-.12,4.05,1.46.58,1.44.06,3.22-1.49,3.99-1.4.7-3.01.13-3.86-1.3-.82-1.37-.37-3.39,1.3-4.15Z"/>
    <path class="cls-2" d="M56.16,70.59c1.63-.52,3.35.4,3.74,1.87.44,1.65-.28,3.38-1.99,3.84-1.47.4-3.08-.27-3.69-1.9-.51-1.38.14-3.24,1.94-3.81Z"/>
    <path class="cls-2" d="M77.21,70.62c1.76-.12,3.03,1.17,3.15,2.68.14,1.75-1.07,3.03-2.61,3.24-1.67.23-3.14-1-3.32-2.48-.23-1.81.94-3.31,2.78-3.44Z"/>
    <path class="cls-2" d="M49.77,65.94c.59,1.59-.12,3.18-1.43,3.83-1.44.71-3.12.25-3.93-1.2-.73-1.31-.41-3.05,1.07-4.02,1.49-.98,3.65-.34,4.28,1.39Z"/>
    <path class="cls-2" d="M45.03,75.47c-1.6.84-3.23.31-4.14-1.01-.89-1.3-.51-3.01.91-4.07,1.32-.98,3.27-.37,4.13.91.9,1.34.56,3.4-.9,4.17Z"/>
    <path class="cls-2" d="M52.98,76.48c1.66-.22,3.11,1.36,3.24,2.65.18,1.76-1.13,3.13-2.62,3.35-1.69.25-3.11-1.08-3.32-2.58-.22-1.59.9-3.18,2.7-3.41Z"/>
    <path class="cls-2" d="M73.66,64.45c1.65-.31,3.16.98,3.41,2.25.36,1.82-.81,3.38-2.23,3.63-1.78.31-3.2-.64-3.58-2.13-.43-1.67.55-3.39,2.4-3.74Z"/>
    <path class="cls-2" d="M56.22,68.92c-.82,1.25-2.13,1.76-3.44,1.39-1.28-.36-2.17-1.57-2.13-2.89.04-1.42,1.06-2.68,2.57-2.87,1.28-.16,2.28.35,2.93,1.29.61.86.7,2.12.07,3.08Z"/>
  </g>
</svg>