<?xml version="1.0" encoding="UTF-8"?>
<svg id="_レイヤー_1" data-name="レイヤー 1" xmlns="http://www.w3.org/2000/svg" viewBox="0 0 124 124">
  <defs>
    <style>
      .cls-1 {
        fill: #cca87a;
      }

      .cls-2 {
        fill: #fff;
      }
    </style>
  </defs>
  <circle class="cls-1" cx="62" cy="62" r="62"/>
  <g>
    <path class="cls-2" d="M63.97,63.7c.07.6.93.91,1.46,1.21l2.14,1.19c3.2,2.08,5.92,4.84,7.63,8.27l1.11,2.85.93,3.27.1,3.04c.04,4.41-1.49,8.68-4.02,12.24l-.44.47c-.77,1.13-1.68,2.01-2.66,2.79-.69.55-1.41,1.08-2.15,1.6-.12.08-.32.19-.47.25l-2.38,1.02c-.93.4-1.84.4-2.79.61-2.32.5-4.65.27-6.81-.63-.66-.27-1.32-.55-1.91-.96l-.69-.48c-.66-.45-1.27-1.05-1.81-1.68-1.91-2.18-2.88-4.99-3.38-7.85-.24-1.35-.27-2.76-.26-4.13,0-.94.07-1.8.19-2.83-.56.7-.71,1.45-.96,2.13-.59,1.56-.64,3.28-.64,4.96,0,2.48.64,5,1.77,7.21.07.29.2.45.08.61-.23.3-.54.23-.83.15l-1.7-.44c-1.36-.35-2.73-.94-3.9-1.7-1.19-.78-2.76-2.48-3.76-3.74-.97-1.23-1.57-2.71-1.98-4.22-.37-1.37-.65-2.7-.43-4.28.04-.31,0-.65-.27-.69l-.02-.27.2-2.26.36-2.41c.14-.92.5-1.8.8-2.66,1.98-5.59,6.51-9.95,12.07-11.99.78-.29,1.59-.52,2.4-.72,1.25-.3,2.16-1.12,3.15-2l2.57-2.3c1.3-1.16,3.08-.85,4.05.45l2.56,3.41.71.51Z"/>
    <path class="cls-2" d="M33.65,39.45c.79.37,1.73.91,2.62.81l2.65-.31,2.22-.07c.71-.02,1.51.17,2.21.29,1.04.19,2.05.37,3.16.61,2.36.69,4.49,1.91,6.45,3.36.35.26.63.77,1.1.83,2.13,2.12,4,4.5,4.88,7.36l.95,2.56-.05.63c-4.97-.74-6.66,3.12-8.22,4.17-.26.18-.57.38-.73.66-2.34.82-4.94,1.46-7.08,2.81-.52.32-.86.79-1.63.99-.38.1-.64.57-.88.72-2.42,1.49-4.96,4.75-6.25,7.28l-.88,1.72-.47,1.35c-.15.43-.41.92-.44,1.38-.02.23-.01.77-.33.93-.41-.19-.92-.37-1.31-.52-.25-.1-.69-.32-.92-.46l-1.79-1.12c-1.83-1.41-3.57-3.03-4.84-4.95-1.25-1.89-2.46-3.92-2.8-6.17l-.33-2.22-.19-2.41c-.06-.81.06-1.62.16-2.43.08-.68.16-1.3.36-1.98l.76-2.65c.89-2.21,2.07-4.27,3.69-6.16,1.08-1.26,1.07-3.11,1.49-4.62l.51-1.82c.66-2.38,3.45-1.76,5.93-.58Z"/>
    <path class="cls-2" d="M77.28,21.45l.8.91c.54,1.23.75,2.56.84,3.87.1,1.38.49,2.55,1.24,3.68.15.22.28.33.56.73l1.31,1.85c.1.14.22.44.29.59l1.02,2.31c-.19.25-.07.5.12.55.49,1.27.84,2.74.97,4.12l.24,2.56-.04.53c-.74-.28-1.56-.1-2.31-.03-.79.07-1.58.12-2.36.32l-2.37.6c-3.88.99-7.39,3.36-9.98,6.43-.11.13-.39.21-.38.48-1.52,1.77-2.58,3.9-3.44,6.06-.13.32-.26.67-.61.74.1-1.95-.66-4.04-1.16-5.69-.23-.77-.49-1.49-.82-2.21-2.06-4.46-5.58-8.24-9.95-10.54l-3.17-1.29-3.1-.76c.07-.62.17-1.17.37-1.64l1.14-2.61.98-1.81.42-.56c.52-.7.99-1.48,1.65-2.06l.92-.82c.79-.7,1.42-1.44,2.21-2.02l.37-.28c1.47-1.1,3.2-1.94,4.99-2.37l2.07-.5c1.51-.37,5.88-.35,7.45-.06.89.16,1.78.49,2.7.28.8-.19,1.57-.6,2.35-.82l2.41-.67c.69-.19,1.63-.06,2.28.12Z"/>
    <path class="cls-2" d="M96.7,45.77c.89.24,1.35,1.03,1.46,1.91l.32,2.57c.21,1.73.67,3.42,1.84,4.85.5.61.77,1.33,1.08,1.95.52,1.04.83,2.03,1.11,3.13l.34,1.34.39,2.84.02.9c-.36.57-.23,1.36-.2,2.01.07,1.34-.38,2.6-.79,3.85-.6,1.86-1.57,3.55-2.64,5.22l-.44.44c-2.07,2.42-4.48,4.55-7.52,5.65l-2.34.84c-.93.34-2.04.31-3.01.29l-1.07-.02c-.69-.01-1.42.08-2.07-.13l-1.2-.37c-.33-.1-.78.1-1.15-.42.65-.08,1.15-.44,1.68-.72,3.3-1.72,5.95-4.38,7.37-7.83.35-.86.91-1.74.78-2.93-.53,1.08-1.15,2-1.8,2.9-2.05,2.88-5.54,5.32-8.98,5.9.09-.34.02-.7,0-1.04-.15-1.89-.96-3.61-1.69-5.34-1.14-2.68-3.64-6.14-6.05-7.87-.2-.14-.41-.59-.74-.6-1.58-1.31-3.44-2.35-5.41-3.36-.21-.37-.15-1.2,0-1.62l1.07-3.08c.82-1.5,1.54-3.2,2.77-4.38l2.77-2.65c2.27-1.73,4.74-2.74,7.34-3.45l2.62-.28,2.04-.05,2.37.22,2.65.48c.79.14,1.56-.22,2.31-.42l2.3-.6c.8-.21,1.6-.43,2.44-.15Z"/>
  </g>
</svg>