<?xml version="1.0" encoding="UTF-8"?>
<svg id="_レイヤー_1" data-name="レイヤー 1" xmlns="http://www.w3.org/2000/svg" viewBox="0 0 124 124">
  <defs>
    <style>
      .cls-1 {
        fill: #fff;
      }

      .cls-2 {
        fill: #b43352;
      }
    </style>
  </defs>
  <circle class="cls-2" cx="62" cy="62" r="62"/>
  <g>
    <path class="cls-1" d="M63.2,37.48c.14.18.45.37.53.69l.23.93c-.13,1.56.4,2.93,1.62,3.51l.98.47c1.07.5,2.44-.08,3.52-.8,2.47-1.65,3.15,3.07,7.12,2.96.08.07.27.13.3.32.24,1.16.11,2.35.04,3.51-.05.88-.05,1.71-.3,2.59l-1.11,3.89-.27.57-1.25,2.59-1.39,2.5c-.08.14-.21.21-.22.49l-3.23.48c-3.76.93-7.05,3.44-9.34,6.79-1.1,1.61-2.09,2.97-3.94,3.81-1.64.74-3.25,1.69-4.4,2.94-.23.25-.73.41-.66.92-.78.48-1.07,1.8-1.54,2.71-3.02,1.38-6.18,2.31-9.34,2.86l-3.42.6c-.27.06-.77-.14-1.09.08l-6.12-.06-1.9-.26c-1.53-.21-3.03-.33-4.56-.72-2.25-.59-4.85-1.52-6.64-2.96-.07-.06-.09-.31-.11-.4-.02-.08-.15-.13-.24-.11-.37-.72-.47-1.62-.03-2.44.3-.57.95-1.08,1.72-1.34l2.32-.79c2-.68,4-1.32,5.95-2.1,2.8-1.11,5.48-2.54,7.75-4.57.27-.24.82-.31.9-.85.57.07.85-.65,1.1-.92l1.17-1.26,1.7-2.06c.63-.77,1.12-1.61,1.52-2.5.26-.57.96-1.18,1.22-1.83l1.07-2.59c.9-2.2,1.67-4.5,2.57-6.71l1.21-2.98c.14.03.25,0,.27-.08l.12-.54,1.81-2.81c.8-1.24,1.71-2.33,2.71-3.41,1.5-1.61,3.42-2.83,5.71-3.81.71.8,1.4,1.35,2.34,1.63l3.57,1.07ZM49.93,49.54s.01.05.01.08c-.72.51-.81,1.56-1.08,2.31l-1.05,2.9c-.85,2.35-1.98,4.63-3.4,6.72-.06.08-.12.17,0,.3l-2.45,3.18-2.15,2.59-1.86,2c1.23-.06,2.15-.64,2.93-1.27l2.31-1.89c.57-.47,1.13-.99,1.66-1.55,1.72-1.81,3.56-3.67,4.69-5.9l.97-1.93.94-1.96,1.37-3.53c.81-2.1,2.25-4.23,3.55-6.04.14-.2.42-.49.6-.66.65-.6,1.79-1.51,1.62-2.61-.18-1.13-1.32-1.98-2.62-1.53-2.69.92-6.36,8.27-6.05,8.79Z"/>
    <path class="cls-1" d="M71.78,65.44l.78-.13c1.78-.3,3.61.68,5.31,1.74,4.6,2.86,5.65,7.59,10.61,9.3l1.24.7c.67.38,1.27.76,1.76,1.47l2.07,3.05c.74,1.1,1.75,1.97,2.93,2.58l1.99,1.03c.96.5,1.82,1.63,2.47,2.47.92,1.18.63,2.89-.36,3.87l-.89.88c-2.16,1.54-4.59,2.59-7.15,3.31l-3.44.97c-2.19.62-4.49.87-6.74,1.21l-2.1.32-4.01.3c-.3.02-.67-.08-.96.14l-7.08-.14-1.07-.11-4.34-.43-2.97-.38-1.21-.32-2.03-.4-3.15-.84-3.51-1.14-1.96-.87c-.29-.13-.69-.24-.91-.4-2.12-1.57-4.81-2.76-3.34-5.36,2.24-3.96,7.39-4.78,8.97-7.74.98-1.84,1.83-3.43,3.93-4.2,4.88-1.81,5.49-5.71,10.37-9.18l2.54-1.26c.67-.33,1.52-.32,2.26-.44ZM70.12,69.6c-1.08.45-1.98,1.2-2.89,1.95-1.66,1.37-2.78,3.33-4.23,4.9-2.24,2.42-5.59,2.69-6.09,3.71-1.19,2.4-2.79,4.19-4.96,5.72l-3.71,2.61c.71.47,1.33.43,1.92.38.86-.06,1.79-.28,2.6-.55l.97-.32c.93-.31,1.83-.77,2.63-1.34.74-.52,1.35-1.2,1.89-1.92.4-.53,1.4-.91,1.45-1.62l2.52-1.51c.17-.1.37-.3.53-.39,1.43-.75,3.23-1.66,3.81-3.29.23.04.26-.12.29-.26l1.68-2.94c.14-.02.12-.1.18-.17,1.6-2.05,3.84-2.79,4.35-3.95.11-.26.2-1.06-.07-1.24-.95-.61-2.03-.12-2.85.21Z"/>
    <path class="cls-1" d="M83.96,21.09c.65,0,1.34.2,1.8.7.3.32.55.89.68,1.28.34,1.01-.22,2.81-1.51,2.9l-2.33.16c-1.05.07-2.17.17-3.19.75-2.44,1.36-4.56,3.42-5.83,5.71-.31.55-.77,1.09-.79,1.9l1.11.83c1.73,1.85,2.88,4.13,3.16,6.65.04.29.1.81-.05.99-.13.15-.64-.06-.75-.15l-2.22-1.61c-.1-.07-.27-.12-.34-.21-.35-.42-.98-1.32-1.75-1.39-1-.09-1.98.48-2.78.83-.96.42-2.04.72-2.94-.12l-.41-3.05c-.08-.6-.35-1.32-1.03-1.52l-1.45-.43c-1.2-.35-2.43-.51-3.73-1.31.79-1.44,2.07-1.73,3.43-1.82l3.14-.2,3.29.43c1.59-3.69,4.02-6.58,7.11-8.76l1.27-.9,2.02-.97c1.24-.59,2.71-.7,4.09-.69Z"/>
    <path class="cls-1" d="M59.87,15.71c2.1.56,4.31,1.01,6.08,2.28l1.82,1.3,1.01,1.16c.56.64.79,1.51,1.04,2.23.43,1.21.33,2.36.45,3.65.11,1.19-.19,2.41-.59,3.65-1.09.17-2.08.05-3.07-.15-1.08-.22-2.37-.31-3.33-.8-1.77-.9-3.21-2.31-4.1-4.07l-.9-1.79-.65-4.3.13-3.25c.56-.07,1.47-.09,2.12.09Z"/>
    <path class="cls-1" d="M40.17,93.21l1.38,1.18c.12.45.24.85.05,1.17-.35.6-.84.66-1.37.72-1.16.11-2.31.08-3.37-.61.09-.23-.17-.72-.04-.93l.22-.35c.62-1.01,2.15-2.01,3.12-1.18Z"/>
    <path class="cls-1" d="M102.32,96.09c.6.39,1.41,1.2.94,1.84-.09.35-.62.77-1.04.84-.93.16-1.97.17-2.75-.38-.23-.16-.77-.44-.68-.74l.3-1.05c.87-.85,2.13-1.23,3.23-.51Z"/>
    <path class="cls-1" d="M46.65,97.04c.34.08.74.18.98.4.35.33.48.69.33,1.11-.34.45-.86.7-1.24.99-.24-.46-1.38-.21-1.59-.87-.08-.26-.04-.51-.07-.81.41-.28.82-1.01,1.58-.83Z"/>
    <path class="cls-1" d="M95.43,99.02c.43.25,1.1.83.95,1.36-.27.9-1.14,1.15-1.85.95-.63-.18-1.34-.4-1.69-1.27.72-.81,1.58-1.34,2.59-1.05Z"/>
  </g>
</svg>