<?xml version="1.0" encoding="UTF-8"?>
<svg id="_レイヤー_1" data-name="レイヤー 1" xmlns="http://www.w3.org/2000/svg" viewBox="0 0 124 124">
  <defs>
    <style>
      .cls-1 {
        fill: #1a6733;
      }

      .cls-2 {
        fill: #fff;
      }
    </style>
  </defs>
  <circle class="cls-1" cx="62" cy="62" r="62"/>
  <path class="cls-2" d="M61.8,17.4c1.45-.08,2.76.66,3.72,1.83.36.45.87.75,1.35,1.07l1.68,1.06c-.1.38.05.62.29.78.3.2.58,0,.88-.1l.83-.29c.76-.27,1.72-.01,2.45.27.01.08.1.11.16.13,1.36.98,2.19,2.63,1.99,4.29-.03.22-.16.63,0,.88.07.12.93.43,1.25,1.14.15.34.05.49-.17.72-.72.33-1.61.85-1.97,1.61-.61.46-1.03,1.19-1.46,1.85l-1.74,2.66c-.16.25-.34.55-.48.81l-.87,1.63c-.37.7-.82,1.39-1.01,2.16-.09.39-.25.97-.06,1.48.39,1.1,2.42-1.09,3.51-3.93.3-.78.9-1.53.94-2.37.55-.4.5-1.22.81-1.73l1.47-2.39c.4-.65,1.45-.93,2.21-.92.8,0,1.53.43,2.09.97.24.23.34.33.79.23l1.52-.32c.77-.16,1.58.02,2.34.17,1.16.24,2.06,1.09,2.49,2.18.25.63.4,1.3.32,1.97l-.25,2.29c-.07.09-.14.66.29.39,1.95,1.93,1.45,4.13-.29,6.21-.15.18-.46.39-.66.53l-1.5,1.04c-.46.32-.52.48-.46.9.26,2.07-.7,2.88-2.21,4.17-.15-.05-.32-.02-.3.19l-2.05.77-2.48.94c-.62.24-1.32.49-1.94,1-.54.45-1.52,1.02-1.9,1.55-.11.15-.31.39-.45.5-.56.41-1.14,1.29-1.54,1.89-.5.73-.9,1.48-1.22,2.3l-.84,2.13-.65,2.23-.23.8c-.39,1.34-.33,3.65.39,3.69.99.05,1.61-.65,2-1.26l.64-1c.46-.72.82-1.52,1.07-2.35.18-.59.35-1.16.38-1.79.03-.65.24-1.35.09-2.01.31-.15.21-.49.23-.7.07-.75.36-1.41.84-2.03.64.1,1.13.29,1.5.98l.6,1.12c.34-.87.16-1.52.31-2.18l.4-1.8c.28-.04.32-.96.54-.84l.34.17c.24.31.42.65.97,1.03l.9-1.95c.35-.76,1.05-1.26,1.82-1.01v.3c.03.21.16.1.4-.2.05.18.03.33-.2.39.13.79.14,1.48.1,2.33.35-.29.76-.92,1.27-1.09.12.04.19.53.44.45l.13,2.25-.02,2.43c.57-.71.59-1.43.8-2.05l.27-.83.39-1.83c.14-.65.73-1.45,1.05-1.97.08-.13.31-.3.45-.43.96-.85,2.32-1.84,3.71-1.97,1.56-.14,2.96.71,3.54,2.29l1.35-.32c.68-.16,1.43-.22,2.15-.21.83.02,1.66.25,2.45.45,0,.12.05.17.17.12,1.56.97,2.32,2.69,1.97,4.49l-.25,1.25c-.04.21-.15.47-.07.68.04.1.23.16.31.24,1.09,1.09.98,2.13,1.33,2.13l-.42,2.09-.92,1.58c-.16.17-.52.15-.66.49-.11.27-.95.3-.83.81,1.4,1.08,2.16,2.56,1.79,4.18-.31,1.34-1.22,2.26-2.27,3.18-.3.27-.91.39-.92.95,0,.78-.39,1.46-.85,2.11-.19.27-.51.56-.79.73-.64.38-1.37.62-2.12.64-.72.02-1.39-.25-2.1-.44-.05-.27-.06-.44,0-.7.38.12.73.14.99-.08-.89-.96-1.94-1.19-3.01-1.55-.81-.27-1.62-.45-2.41-.54-.93-.11-1.87-.08-2.79-.11-.59-.01-1.15.02-1.73.16-.66.16-1.35.19-2.02.64-.27.18-.84.46-.87.84-.03.5.56.41.75.51.56.28,1.44.17,2.03.27.86.14,1.55.04,2.36,0l2.24-.12c.82-.04,1.7-.03,2.44.18.12.03.35.1.52.03l1.19.95c.24.18.44.77.53,1.08.2.66.16,1.48-.08,2.12l-.34.92c.51.45.86.97,1.07,1.52.25.64.48,1.42.44,2.1-.03.68-.32,1.4-.65,2-.14.25-.6.43-.64.82-1.39.88-2.89,1.55-4.68,1.39-.07.17-.07.33-.12.39-.47.6-.94,1.37-1.68,1.71-.19.09-.5.25-.72.25l-1.64.06-2.36-.67c-.11.24-.2.42-.32.56-.5.52-1.13.95-1.84,1.12-.61.14-1.34.14-1.93-.06-3.29-1.1-4.36-3.55-6.96-5-.35-.2-.67-.51-1.16-.62-.49-.11-1.09-.32-1.66-.08-1.01.42-1.71,1.35-1.75,2.35l-.07,2.09-.17.31-.08,2.11v.61s-.11,1.55-.11,1.55l-.18,2.24-.11,2.31c-.05.95-.28,1.87-.63,2.73l-.72.8c-.4.44-.98.72-1.55.87l-.74.19-2.47.04-1.65-.31c-1.71-.53-2.46-2.17-2.14-3.79l.51-2.67.35-1.65.54-2.72.3-2.38c.09-.69.12-1.39.1-2.1-.03-.92-.3-1.83-1.12-2.25-.79-.41-1.66-.65-2.42-.11-.43.02-.63.21-.94.36-1.91.97-3.89,4.11-6.82,5.1-.56.19-1.45.25-2.06.1-.94-.24-1.68-.87-2.26-1.71-.49.26-1.02.23-1.45.41l-.75.3c-.47.19-1.33.06-1.8-.1.02-.2-.48-.16-.68-.07-.71-.57-1.32-1.29-1.73-2.16-.11-.06-.38-.11-.48-.11-1.37,0-2.84-.31-3.98-1.19-.3-.23-.73-.68-.97-.98-.27-.34-.46-.99-.54-1.44-.18-1.01.03-2.08.48-2.99.17-.35.46-.74.87-1.06.35-.27-.14-.73-.22-1.01-.13-.48-.24-1.24-.14-1.71.14-.68.36-1.32.84-1.79.29-.28.64-.51,1.02-.65.18-.07.38-.25.59-.25l2.27.04c.72.01,1.42.04,2.13.07l2.74.09c.57.02,1.33-.23,1.82-.32.23-.04.77-.25.77-.59,0-.45-.69-.67-.99-.83-.58-.32-1.24-.53-1.9-.64-.91-.15-1.82-.11-2.74-.13-.61,0-1.18.05-1.79.13-.85.12-1.68.27-2.49.56-1.07.38-2.29.58-3.08,1.59.5.08,1.01.05,1.16.46-.02.04-.03.11-.05.16-.73.27-1.52.56-2.31.49-.67-.05-1.46-.23-1.94-.66l-.69-.62c-.74-.67-.74-1.92-1.13-2.54-1.74-1.52-2.63-1.85-3.08-4-.17-.82.1-1.69.48-2.42.34-.65.9-1.12,1.52-1.65-.7-.42-1.21-.88-1.7-1.38-.24-.24-.55-.69-.68-.99-.34-.79-.56-1.65-.38-2.48.45-2.18,2.02-2.01,1.28-3.32-.18-.32-.23-.88-.24-1.26-.07-2.94,1.46-4.37,4.27-4.76.81-.11,1.68-.02,2.47.16l1.44.34c.6-1.29,1.54-1.97,2.67-2.2.69-.14,1.34-.09,2,.16h.17s1.8,1.23,1.8,1.23c1.14.74,1.88,1.85,2.13,3.13.28,1.44.48,2.94,1.39,4.4.08-.87-.01-1.64.02-2.45.02-.58.04-1.17.18-1.74.02-.08.13-.2.09-.46-.03-.22.15-.45.32-.42.11.01.18.08.32.17.38.26.66.51.87.98.14-.66.02-1.1.06-1.58l.05-.55c.28-.03.14-.45.19-.56.21-.41,1.03-.26,1.27.05l.5.69c.26.35.5.75.63,1.18.08.28.1.64.42.98.42-.37.63-.75.87-1.12l.43-.03c.15.16.21.43.54.46-.13.6.24,1.14.32,1.69.11.81.06,1.6.35,2.47.42-.84.75-1.48,1.3-2.02.87-.11,1.35.6,1.64,1.34-.2.24.1.67.13.9.05.32-.11.82.14,1.15-.09.99.17,2.31.52,3.26.29.82.61,1.7,1.08,2.47l.33.53c.37.59,1.46,1.71,2.29,1.39.93-.36.46-1.84.37-2.51-.08-.57-.16-1.41-.29-2.02-.15-.71-.44-1.39-.65-2.05-.5-1.58-1.32-3.3-2.23-4.67-.36-.54-.92-1.38-1.43-1.69-.15-.42-.51-.37-.54-.44-.3-.71-1.06-1.08-1.67-1.51-1.38-.95-3.01-1.44-4.54-2.09l-1.93-.82c-.1-.04-.24-.04-.25-.17-.78-.48-1.6-1.06-2.02-1.93-.07-.14-.27-.32-.28-.48l-.14-1.85c.08-.15.19-.38.09-.49l-2.31-1.52c-.09-.06-.1-.09-.14-.15-.04-.09-.19-.09-.24-.12-.44-.67-1.27-1.64-1.48-2.57-.35-1.59.36-3.08,1.65-3.89l-.03-.43-.35-1.88c-.14-.77.21-1.55.36-2.32.28-.08.33-.44.46-.62.97-1.25,2.63-1.75,4.19-1.53.42.06.83.22,1.27.21.24,0,.56.14.81.22.71-.83,1.72-1.33,2.72-1.33.49,0,1.06.12,1.43.41l.68.54,1.22,2.29c.28.53.48,1.11.82,1.64.11.18.18.47.26.69l.58,1.59,1.48,2.73c.34.62,1.12,1.82,1.94,1.69.73-.12.38-1.26.21-1.7-.61-1.63-1.63-3.24-2.49-4.71-.9-1.53-1.76-3.1-3.04-4.38-.33-.33-.57-.77-.97-1.06-.5-.35-.66-1.09-.51-1.67.25-.28.62-.64.67-1.06.05-.48.08-1.18-.04-1.6.21-1.42.93-2.72,2.2-3.42.5-.28,1.45-.5,2.01-.34l1.79.51c.28.08.46-.39.57-.56.46-.75,1.37-1.23,2.18-1.48.25-.08.36-.32.48-.46,1.03-1.19,2.22-2.17,3.81-2.26Z"/>
</svg>