<?xml version="1.0" encoding="UTF-8"?>
<svg id="_レイヤー_1" data-name="レイヤー 1" xmlns="http://www.w3.org/2000/svg" viewBox="0 0 124 124">
  <defs>
    <style>
      .cls-1 {
        fill: #fff;
      }

      .cls-2 {
        fill: #66587d;
      }
    </style>
  </defs>
  <circle class="cls-2" cx="62" cy="62" r="62"/>
  <g>
    <path class="cls-1" d="M78.29,90.98c-8,8.45-19.72,15.78-31.5,14.78-7.37-.62-14.07-3.98-18.8-9.7-6.42-7.76-7.59-18.43-3.38-27.58,2.76-6.01,7.41-10.48,13.24-13.53,3.02-1.58,6.1-2.42,9.38-3.6,7.69-2.78,14.1-7.88,19.1-14.34,3.22,1.49,6.55,1.94,9.89,1.91-.3,2.88-.55,5.68-.08,8.46.5,3,3.12,4.91,6.14,4.28,3.02-.59,5.62-1.92,8.19-3.71,1.49,3.63,3.67,6.55,6.47,9.05-3.36,12.84-9.61,24.43-18.63,33.97Z"/>
    <path class="cls-1" d="M81.56,48.67c-.55.14-1.06.24-1.51-.11-.39-.3-.63-.68-.74-1.29-.74-4.06-.59-8.08.95-11.88-4.56,1.11-9.27.75-13.26-1.38-.76-.4-1.33-.83-1.52-1.54-.16-.6.15-1.62.97-1.77,2.72-.5,5.21-1.52,7.48-3.24,4.97-3.78,11.3-4.61,16.99-1.41,1.02-1.89,1.42-3.88,1.87-5.94.32-1.47,2.02-2.24,3.29-1.85,1.39.43,2.32,1.75,2.05,3.31-.47,2.66-1.17,5.14-2.54,7.59,5.23,4.28,7.1,10.47,5.97,17.05-.43,2.49-.57,4.8-.12,7.28.12.67-.65,1.19-1.11,1.35-.54.19-1.15.05-1.69-.4-3.58-2.99-5.86-7.02-6.93-11.52-2.88,3.15-6.35,4.78-10.15,5.76Z"/>
  </g>
</svg>