<?xml version="1.0" encoding="UTF-8"?>
<svg id="_レイヤー_1" data-name="レイヤー 1" xmlns="http://www.w3.org/2000/svg" viewBox="0 0 124 124">
  <defs>
    <style>
      .cls-1 {
        fill: #9b3c20;
      }

      .cls-2 {
        fill: #fff;
      }
    </style>
  </defs>
  <circle class="cls-1" cx="62" cy="62" r="62"/>
  <g>
    <path class="cls-2" d="M67.65,28.13c4.14-.3,8.36-.29,12.39.63l4.36,1c2.36.54,4.67,1.38,6.87,2.44l.8.39c3.42,1.65,6.64,3.65,9.39,6.25l.91.86c1.39,1.31,2.57,2.94,3.52,4.59,1.98,3.43,2.67,7.22,2.66,11.16l-.02,6.24c0,1.69-.05,3.37-.43,5.01-.14-.02-.14.08-.16.18-.53,2.3-1.57,4.52-3.09,6.33l-2.06,2.44-3.81,3.26c-.37.32-.99.48-1.2.96-2.08.97-4.43,2.4-7.21,3.27l-3.31,1.04-3.08.82-3.89.74-6.7,1.2c-1.82.33-3.62.8-5.38,1.3-2.14.61-4.25,1.31-6.34,2.11l-5.7,2.16c-1.43.54-4.17,1.16-5.98,1.56-1.83.41-3.69.61-5.55.77-1.85.16-3.71.13-5.57.02-3.93-.24-7.85-1.03-11.53-2.43-1.92-.73-3.74-1.73-5.49-2.83-3.08-2.95-5.36-4.18-6.4-9.48l-.17-.89.05-6.15.05-4.96c0-.72.14-1.46.38-2.15.56-1.63,1.52-3.01,2.67-4.28.79-.87,1.78-1.59,2.73-2.27,1.65-1.18,3.46-2.11,5.22-3.13l.96-.56c1.88-1.09,3.84-2.09,5.5-3.46,1.17-.96,2.36-1.98,3.17-3.29,1.28-.41,3.8-7.37,6.39-10.2l1.85-2.03c3.62-3.19,7.99-5.38,12.62-6.69,3.47-.98,7.03-1.64,10.62-1.91ZM61.8,32.21c-1.99.4-3.98.99-5.88,1.67-3.87,1.37-7.63,3.55-10.35,6.76-2.79,3.3-3.88,7.66-6.71,10.94-.08-.2-.21-.08-.23-.01-.03.07-.1.23-.09.28-1.2,1.29-2.65,2.54-4.05,3.67-.41,0-.78.44-1,.69l-8.68,4.82c-1.4.79-3.4,2.61-4.24,3.89-.43.65-.64,1.38-.85,2.13-1.4,4.96,3.37,9.38,7.75,11.45l.61.29c3.4,1.6,7.18,2.38,10.99,2.61,1.75.11,3.5.19,5.26.07,2.08-.13,4.15-.4,6.17-.89,1.4-.34,2.85-.57,4.16-1.17.51-.24,1.16-.35,1.7-.55l5.83-2.12c2.1-.77,4.24-1.48,6.4-2.06,3.49-.94,7.09-1.37,10.61-2.08l6.79-1.35c2.38-.48,4.62-1.4,6.92-2.52,3.29-1.6,6.09-3.77,8.34-6.53.66-.81,1.2-1.67,1.69-2.57.65-1.18,1.12-2.46,1.4-3.8.4-1.96.31-4.01-.15-5.97-.27-1.13-.75-2.14-1.27-3.17-.47-.93-1.3-2.29-1.95-2.98-.1-.11-.04-.43-.33-.41.04-.15-.07-.3-.21-.3-.68-.81-1.62-1.84-2.43-2.44-1.06-1.09-2.29-1.95-3.52-2.76-2.83-1.88-5.96-3.29-9.18-4.34-7.46-2.44-15.65-2.8-23.48-1.25Z"/>
    <path class="cls-2" d="M85.11,35.7c2.03.7,4.02,1.56,5.93,2.56,2.08,1.1,4,2.54,5.65,4.22l1.08,1.1c1.9,1.92,3.24,4.38,3.81,7.02.21.96.28,1.93.22,2.9-.23,3.92-1.78,6.49-4.46,9.14-2.89,2.77-6.51,4.72-10.53,5.92l-.88.37c-2.39.61-4.98,1.06-7.41,1.48l-4.66.79c-2.67.46-5.31,1.04-7.99,1.9l-4.42,1.43-4.6,1.73-1.24.4c-3.91,1.26-7.71,2.39-11.72,2.55l-4.85-.1c-2.13-.04-4.26-.52-6.32-1.12-1.88-.55-3.75-1.33-5.41-2.32-1.3-.78-2.66-1.69-3.59-2.89-1.17-1.51-1.82-3.45-1.46-5.32.64-3.36,4.99-5.13,7.7-6.67l3.5-2c1.09-.62,2.4-1.41,3.27-2.28,1.16-.76,2.11-1.72,3.04-2.7.64-.68,1.33-1.46,1.77-2.28,2.98-3.86,4.11-8.47,8.15-11.7,2.04-1.63,4.3-3.04,6.72-3.77l5.29-1.59c7.77-1.71,15.88-1.33,23.39,1.23Z"/>
  </g>
</svg>