<?xml version="1.0" encoding="UTF-8"?>
<svg id="_レイヤー_1" data-name="レイヤー 1" xmlns="http://www.w3.org/2000/svg" viewBox="0 0 124 124">
  <defs>
    <style>
      .cls-1 {
        fill: #fff;
      }

      .cls-2 {
        fill: #bf8932;
      }
    </style>
  </defs>
  <circle class="cls-2" cx="62" cy="62" r="62"/>
  <path class="cls-1" d="M73.68,18.35c2.3-.19,4.67-.09,6.9.49l2.35.61c.89.23,1.74.54,2.57.88l2.25.93,2.22,1.17c-.02.21.14.26.27.3l1.85,1.32c1.63,1.16,2.97,2.65,4.44,4.13l1.12,1.13c.63.64.93,1.68,1.68,2.23,0,.05.01.13-.03.19l1.21,2.32.78,1.58,1.21,3.22.6,2.25c.4,1.52.74,3.07.78,4.64l.07,2.42-.08,2.33-.14,1.52-.24,1.95c-.04.31-.28.63-.02,1.01-.13,0-.24.05-.27.22l-.47,2.32-.56,2.18-1.7,4.64-.9,2.22-.89,2.09c-.67.88-1.04,1.82-1.43,2.7-.17.38-.7.64-.41,1.43.06.16,0,.54-.13.63-.08.05-.53-.02-.59.06-.5.63-1.08,1.69-1.35,2.38l-.5.71-1.19,1.83-1.76,2.52c-.45.64-1.05,1.26-1.31,2-.2-.01-.25.17-.3.27-.64.57-1.06,1.38-1.59,1.99l-3.18,3.66c-.25.29-.63.75-.9.97-.45.38-.84.92-1.25,1.3l-1.18,1.12-1.24,1.19-1.35,1.14-3.14,2.56c-1.43,1.17-3.07,2.04-4.62,3.04-1.49.96-3.11,1.65-4.7,2.42-.84.4-1.8.5-2.62,1.21-.54-.16-1.29.11-1.79.49-.94-.02-1.82.51-2.66.65l-2.2.36-2.37.34-2.18.09c-2.44.1-4.88,0-7.24-.58l-1.93-.48-2.32-.66-.37-.18-2.3-.89c-.95-.37-1.92-.9-2.71-1.5-.11.07-.27.06-.35.04-.36-.46-1-.68-1.44-1-1.39-1-2.78-1.98-4.02-3.29l-3.1-3.27c-.62-.65-.94-1.64-1.91-1.93-.13-.65-.43-1.4-.79-2.05l-1.16-2.1-.68-1.64c-.1-.23-.34-.54-.4-.75l-.78-2.48-.49-2.05c-.35-1.47-.68-2.97-.69-4.49l-.03-2.99.12-2.14.84-4.66c.14-.79.45-1.53.72-2.29l.55-1.52c.13-.34.37-.88.24-1.23.61-.44.71-1.22,1.02-1.76.88-1.54,1.9-3.28,2.98-4.64l.18-.1.11-.25c.32-.73,1.11-1.45,1.72-2.06l1.31-1.33c.61-.62,1.29-1.18,1.93-1.69l2.01-1.59c.16.08.33-.05.28-.21l4.83-3.34,1.29-.99c.32-.25.66-.51.94-.82l1.53-1.68.49-.71c.32,0,.38-.32.56-.57l1.02-1.49,2.05-3.39s.19.05.23-.02c1-1.83,2.19-3.43,3.49-4.93.37-.42.68-.85,1.11-1.29,1.72-1.74,3.67-3.36,5.71-4.82,1.68-1.2,5.16-3.09,7-3.67l2.22-.7,2.61-.66,2.23-.3,2.33-.2Z"/>
  <circle class="cls-2" cx="92.06" cy="46.83" r="4.77"/>
  <circle class="cls-2" cx="57.54" cy="92.87" r="4.77"/>
  <circle class="cls-2" cx="86.32" cy="66.94" r="4.77"/>
  <circle class="cls-2" cx="66.36" cy="74.46" r="4.77"/>
</svg>