<?xml version="1.0" encoding="UTF-8"?>
<svg id="_レイヤー_1" data-name="レイヤー 1" xmlns="http://www.w3.org/2000/svg" viewBox="0 0 124 124">
  <defs>
    <style>
      .cls-1 {
        fill: #996656;
      }

      .cls-2 {
        fill: #fff;
      }
    </style>
  </defs>
  <circle class="cls-1" cx="62" cy="62" r="62"/>
  <g>
    <path class="cls-2" d="M66.58,21.88l2.77.25,2.25.4,2.08.4c.88.17,1.65.51,2.63.91l1.16-.28c1.17.05,1.75,1.24,3.85,1.62.65.12.96,1.06,1.49,1.44l3.96,2.9,1.27,1.03c.2.17.43.39.6.57,2.07,2.28,4.12,4.55,5.91,7.2.17.25.73.58.7.88-.07.69.45.93.71,1.2,1.27,1.31,2.63,2.81,2.82,4.75.07.73-.04,1.44.26,2.12.77,1.74,1.24,3.62,1.65,5.48l.43,1.96.43,2.68.19,2.06.18,2.62c.53.64,1.13,1.46.89,2.42l-1.21,4.83-.7,2.44-.7,2.27c-.5,1.62-.94,3.26-1.68,4.78l-2.3,4.72-.77,1.26c-.15.25-.5.66-.69.94-1.45,2.04-3.24,3.86-4.94,5.75-.14.41-.26,1.25-.86,1.3-.19.02-.43.31-.43.48-1.8.56-1.01,1.76-2.08,2.61l-.39.02c-.07,0-.11.11-.07.2-.85.42-1.71.75-2.65.92-.23.04-.47.29-.65.64-1.41-.04-2.78.6-4,1.15-1.57.72-3.21,1.3-4.87,1.78l-2.13.62-2.43.53c-1.02.23-2.07.33-3.11.35l-1.77.04c-.84.02-1.65-.15-2.47-.11l-1.55.08c-.31.02-.64-.14-.98-.11-1.4.11-2.83-.03-4.21-.33l-2.74-.6-4.75-1.54-2.47.12c-1.89-.41-2.65-2.57-4.81-3.63-.12-.06-.33-.18-.43-.27-.52-.46-1.23-1.01-2-.8-.88.25-1.75-.59-2.23-1.23l-.34-.45c-.53-.71-.96-1.57-1.64-2.33-2.14-2.39-4.34-4.62-6.03-7.22-.48-.74-.89-1.67-1.67-2.18-.02-.13-.16-.21-.24-.25-.66-.64-.87-1.57-1.02-2.47-.11-.65-.3-1.26-.63-1.96l-1.09-2.36-1.04-2.95-.41-2.19c-.36-1.91-.37-3.86-.42-5.79.06-.2.15-.33.13-.56-.05-.86.15-1.77-.13-2.6-.09-.27-.07-.61-.07-.9.05-1.87.99-3.1,1.43-4.64.41-.53.54-1.74.72-2.43l.42-1.55c.29-1.06.84-2.04,1.13-3.11.02-.07.09-.15.07-.28.48-.1.74-.85.92-1.36l1.18-3.32c.26-.74,1.37-1.16,1.79-1.91.39-.36,1.14-.49,1.69-1.15l4.27-5.11c.92-1.11,1.86-2.1,3.04-2.76l1.84-1.02.71-.46,4.76-3.14,1.9-1.26c.17-.11.54-.34.72-.44l3.03-1.64,1.74-.51,2.47-.75c.75-.23,1.56-.39,2.31-.45.64-.05,1.37-.05,2,.06.8.14,1.59.1,2.4.01l2.03-.21,2.84-.19ZM60.83,84.19c9.75-3.37,18.09-9.96,23.4-18.85,5.4-9.05,7.16-20.95,1.07-29.69-2.72-3.9-6.7-6.59-11.2-8.04-9.72-3.14-20.75-.65-29.22,4.66-5.57,3.5-10.21,7.96-13.7,13.55-6.1,9.76-8.28,22.78-.79,32.09,7.05,8.76,19.99,9.88,30.43,6.27Z"/>
    <path class="cls-2" d="M55.77,76.52c-9.69,1.95-19.06-2.63-20.72-12.21-1.63-9.41,4.41-18.96,12.36-24.32,6.55-4.41,14.85-6.57,22.35-3.86,9.98,3.6,11.99,14.58,7.49,23.85-4.12,8.51-12.1,14.65-21.49,16.55Z"/>
  </g>
</svg>