<?xml version="1.0" encoding="UTF-8"?>
<svg id="_レイヤー_1" data-name="レイヤー 1" xmlns="http://www.w3.org/2000/svg" viewBox="0 0 124 124">
  <defs>
    <style>
      .cls-1 {
        fill: #753615;
      }

      .cls-2 {
        fill: #fff;
      }
    </style>
  </defs>
  <circle class="cls-1" cx="62" cy="62" r="62"/>
  <path class="cls-2" d="M101.18,32.73c3.29.12,7.09,2.64,6.29,5.05-.22.65-.82,1.11-1.57,1.49,3.42,3.74,4.82,8.87,2.87,13.68-4.54,11.21-12.69,20.26-22.94,26.7-17.87,11.23-40.92,15.8-60.52,7.02-4.89-2.19-7.53-6.81-7.55-11.93-.88.37-1.73.34-2.36-.09-2.75-1.86.51-9.33,3.23-8.69.56.13,1.15.49,1.7,1.48,3.58-4.38,9.26-6.09,14.79-4.38,13.15,4.08,28.72.07,39.69-8.2,4.54-3.42,8.02-7.54,10.85-12.47,2.73-4.77,7.79-7.19,13.23-6.62-.16-1.04-.06-1.76.26-2.21.44-.62,1.2-.85,2.03-.82Z"/>
</svg>