<?xml version="1.0" encoding="UTF-8"?>
<svg id="_レイヤー_1" data-name="レイヤー 1" xmlns="http://www.w3.org/2000/svg" viewBox="0 0 124 124">
  <defs>
    <style>
      .cls-1 {
        fill: #873345;
      }

      .cls-2 {
        fill: #fff;
      }
    </style>
  </defs>
  <circle class="cls-1" cx="62" cy="62" r="62"/>
  <g>
    <path class="cls-2" d="M62,101.1c-25.54,0-46.58-17.83-49.38-40.77h-.33c0,25.41,22.26,46,49.71,46s49.71-20.6,49.71-46h-.33c-2.81,22.94-23.84,40.77-49.38,40.77Z"/>
    <g>
      <path class="cls-2" d="M91.79,93.26c-15.4,9.93-36.14,11.31-53.18,3.48-18.72-8.6-29.38-26.26-25.55-44.34,2.68-12.64,12.15-23.53,25.37-29.64,19.69-9.1,44.11-5.76,59.52,8.03,20.59,18.41,17.69,47.07-6.16,62.46ZM86.39,92.22c11.19-6.09,18.84-16.03,20.72-27.13,2.29-13.52-4.23-26.97-16.76-35.46-9.75-6.61-22.2-9.61-34.73-8.1-14.34,1.73-26.79,9.25-33.68,19.97-7.92,12.32-7.17,27.27,1.88,39.06,13.64,17.76,41.42,23.17,62.58,11.66Z"/>
      <path class="cls-2" d="M72.54,90.85c-6.17,2.81-12.12,4.48-18.77,1.51-1.96-.87-3.96-1.45-6.13-1.61-9.36-.69-11.47-6.99-14.81-9.11l-3.77-2.4c-2.68-1.71-4.15-4.24-4.6-7.1-.4-2.52-1.18-4.81-2.33-7.13-1.41-2.83-1.72-5.73-.35-8.59l2.19-4.56,1.15-5c.96-4.17,3.94-6.7,7.92-9.19,2.26-1.42,4.1-3.02,5.77-4.9,3.95-4.45,9.04-4.62,15.15-4.77,2.28-.05,4.18-.63,6.21-1.41,2.36-.91,4.84-.91,7.2,0,2.72,1.05,5.37,1.83,8.33,2.16,4.14.45,8.09,1.75,10.82,4.48,3.16,3.16,6.73,3.62,8.99,5.84,4.16,4.07,2.93,8.39,4.78,11.35,3.15,5.04,3.66,10.95,1.07,16.25-1.99,4.07-5.21,6.85-7.49,11.99-2.04,4.6-5.74,8.47-11.49,9.67l-4.29.9c-1.94.41-3.77.82-5.55,1.63ZM69.18,33.86c.07-1.05.23-2.06.11-3.15-1.39-.87-2.97-1.28-4.54-1.77-.97-.3-1.87-.6-3-.54-1.11,1.97-2.62,6.32-1.3,6.82l3,1.13c.61.23,1.14.5,1.85.48.81-1.81,1.82-2.2,3.89-2.96ZM57.96,35.75c.28-.49.61-.87.64-1.24.16-1.64.27-3.19.96-4.89-1.57.92-2.08,2.29-2.45,3.78-.22.88-.27,1.77.85,2.35ZM49.22,35.92c.56-.55,1.04-1.02,1.28-1.71-1.13-1.12-2.28-2.19-3.79-2.91-.27-.12-.81.34-.97.52l-3.57,4.14c-.41.48-.97,1.27-.69,1.86.6,1.23,1.75,2.18,3.02,3.16,1.45-1.78,2.98-3.37,4.71-5.07ZM82.95,35.8c-.17-.59-1.03-.91-1.54-1.21-2.02-1.19-3.87-2.52-6.23-3.31-1.1.03-2.15,1.2-2.37,1.88,2.75,1.26,5.19,2.45,7.62,3.81.52.29.8.68,1.29,1.17.57-.56,1.49-1.42,1.22-2.33ZM54.14,34.32c-.87-1.23-2.09-1.75-3.51-2.05,1.08.96,2.25,1.57,3.51,2.05ZM79.49,39.35c.2-.56-.04-1.02-.54-1.31-2.11-1.26-4.25-2.35-6.48-3.39-.24-.11-.57-.03-.66.11l-.24.4-1.95,4.14c-.14.3-.33.79-.15,1.08.13.22.45.47.82.66l6.65,3.45c1.18-1.6,1.89-3.31,2.56-5.14ZM50.56,40.08c1.65-1.06,3.21-1.99,5.29-2.6-1.08-1.22-3.51-2.44-4.22-1.83-2.02,1.75-4.07,3.7-5.71,5.77-.02.4,1.02.98,1.34.77l3.29-2.11ZM40.24,35.53c-1.43,1-2.36,2.02-3.71,2.82-.26.16-.46.45-.33.67.57.94,3.92-.85,4.03-3.49ZM67.29,40.12l2.16-4.35c-.75.23-1.64.56-1.96,1.15-.74,1.38-1.19,2.75-2.05,4.14.73-.14,1.59-.4,1.85-.94ZM89.91,38.61c.39-1.05-1.55-1.97-3.04-1.87-.3.9,1.42,1.41,3.04,1.87ZM49.06,43.13c.56.2,1.04.16,1.55.15,1.81-1.43,3.55-2.77,5.43-4.08l-1.68.44c-1.89,1.05-3.63,2.12-5.3,3.49ZM59.25,46.2l3.31-.66c.39-.08.58-.26.69-.43.51-.81-2.97-4.5-4.44-6.06-2.57,1.52-4.71,3.11-6.91,4.94l3.64,5.3c.21.31.99.83,1.24.47.82-1.19-.23-3.04,2.49-3.58ZM93.5,43.31c0-.23-.11-.44-.19-.48-2.74-1.56-4.37-2.92-7.91-1.91l5.3,2.77c.87.18,2.04-.24,2.8-.38ZM36.28,48.09l3.58-5.86c-2.43-.42-4.62-.54-7.01-.55-1.59,1.92-2.58,4.03-3.25,6.25,2.03.39,3.82.69,5.79.89.42.04.79-.44.89-.72ZM75.61,45.34l-4.94-2.58c-2.37-1.2-2.94-1.26-5.24.2l6.9,3.29c1.15.09,2.43-.53,3.27-.92ZM89.24,45.59c.2-.59.07-1.15-.58-1.45l-3.74-1.7c-.68-.31-1.25-.55-2.17-.59-.49.8-1.39,1.84-1.21,2.86.24,1.4.91,2.92,1.91,4.01.45.49,2.95,1.89,3.52,1.66.4-.16,1.75-3.3,2.27-4.8ZM43.27,45.92c.79-.8-.88-2.47-2.23-3.27l-3.02,5.72c-.56,1.07-.22,2.4,1.21,2.69,1.16-1.91,2.44-3.52,4.04-5.14ZM52.73,47.99l-1.92-2.89c-.68-.34-1.38-.55-2.35-.43.36,1.36,1.25,2.46,2.8,2.87.5.16.91.47,1.47.45ZM92.28,48.62c.75-1.24.95-2.61,1.43-3.92-.94-.02-2.23.07-2.53.74l-1.94,4.44c1.03-.39,2.47-.46,3.04-1.26ZM76.64,51.52c.68-.46,1.39-.6,2.31-.45.63.1,2.09.03,2.34-.65.49-1.34-1.12-3.74-2.75-4.49-1.68,1.13-3.62,1.59-5.64,2.29-1.05,1.81-.4,3.57,1.92,4.54l1.82-1.25ZM96.37,47.45c-.02-.18-.26-.78-.51-.64-.96.52-.83,1.63-.52,2.56.2.62,1.12,1.35,2.09,1.42.67-.85-.89-1.52-1.06-3.34ZM64.21,51.05c.49.24.88.58,1.56.76.19-.41.25-.75.3-1.1l.41-3.22c.04-.29-.12-.59-.56-.57-2.24.09-4.37.42-6.47,1.04l-.87,3.35,2.8-.85c1.02-.31,1.94.17,2.82.59ZM69.69,53.82c.59-1.73.92-3.26,1.02-4.93-.58-.9-1.57-1.48-2.76-1.79-.27,1.92-.43,3.61-.82,5.47.82.5,1.52,1.02,2.56,1.24ZM46.11,56.41c2.53-1.75,4.86-3.52,7.13-5.54-1.89-1.3-3.85-2.26-6.07-2.75-2.13,1.57-3.92,3.13-5.82,4.78-.22.3-.77.85-.54,1.18l3.86,2.3c.36.22,1.1.27,1.44.04ZM37.25,52.05c-.23-.57-.64-1.28-1.33-1.51-1.67-.56-3.42-.77-5.17-1.04.66.79,1.36,1.51,2.31,1.7l4.19.84ZM26.21,54.42c1.64-.52,2.39-1.7,2.13-3.08-.07-.4-.17-.81-.84-.84-.21,1.81-2,3.28-1.29,3.92ZM87.14,60.58c1.89.17,3.75.18,5.54-.21-.04-2.95-.35-5.79-.81-8.61-2.43.03-6.34.92-5.66,1.47.83.67,1.27,1.49,1.25,2.5l-.32,4.86ZM97.7,59.44c.13-2.16.16-4.19-.27-6.21-1.22-.67-2.46-1.09-3.87-1.39.26,2.88.42,5.56.45,8.43,1.28-.14,2.46-.28,3.7-.83ZM51.87,58.26l1.18-3.82c.17-.57.46-1.06,1.23-1.3-.13-.37-.23-.6-.58-.88-2.07,1.67-4.12,3.17-6.29,4.71-.31.22-.67.47-.63.74.04.28.09.56.38.86,2.22-1.01,4.54.25,4.72-.32ZM63.65,58.22c1.87-.69,3.63-1.28,5.44-2.23-2.11-1.39-4.3-2.56-6.66-3.63-.26-.05-.61-.12-.86-.04-1.88.58-3.58,1.2-5.47,2.05l5.68,3.09c.61.29,1.15.64,1.86.76ZM84.62,61.41c.53-1.79.7-3.65.79-5.51.03-.68-.44-1.05-1.04-1.31-1.71-.75-3.53-1.14-5.37-1.57-2.82-.67-3.45,3.12-4.02,5.87,1.46.77,2.74,1.58,4.02,2.54,1.79.27,4.56.58,5.62,0ZM39.18,62.07c1.47-.03.42-5.53-.77-7.5-1.99-.55-3.9-.91-5.99-.87-.25,2.64-.04,5.07.46,7.64,2.04.46,4.08.78,6.3.74ZM27.27,63.07c1.48-.46,2.42-.9,3.64-1.49.18-2.34-.16-4.68-.44-7.11l-3.84,2.29c-.34,2.15-.08,4.27.63,6.31ZM73.47,55.56c-.1-.52-.88-.84-1.42-.99-.2-.06-.51.23-.51.38,0,.14.1.4.19.57.42.88-.03,1.73.03,2.61.1.21.72.14.89.02.6-.4.94-2.04.83-2.6ZM60.73,65.01c.64-1.61,1.04-3.13,1.45-4.74.12-.48-.1-.84-.51-1.14l-6.24-3.61c-.2-.12-.4-.13-.47-.07-.1.09-.21.26-.25.4l-1.29,4.59c.13.83.91,1.26,1.67,1.65l5.65,2.92ZM44.01,59.67c.54-.03.94-.51.85-.72-.6-1.42-1.71-1.71-3.46-2.61l.7,1.94c.23.64,1.1,1.43,1.92,1.39ZM68.68,60.48l1.01-3.13-4.34,1.71c-.84.33-1.25.8-1.46,1.57-.4,1.41-1.05,2.71-1.25,4.19,2.84-1.16,5.03-1.83,6.05-4.33ZM55.85,65.56c-.99-2.11-4.03-2.84-4.44-4.17-.21-.7-.59-1.37-1.69-1.39-.8-.02-1.83.13-2.5.58l8.01,6.61c.8-.1.95-.92.62-1.63ZM67.56,67.06c1.77-2.31,3.54-4.46,5.68-6.67-.97-.23-1.95.06-2.53.79l-3.39,4.27c-.43.54-.49,1.15.24,1.61ZM75.67,72.15c2.06-1.86,3.82-3.68,5.3-5.78.26-.37.36-.89-.01-1.2-1.53-1.3-5.27-4.1-6.22-4.14-.3-.01-6.39,6.62-5.76,7.26,1.24,1.26,2.85,2.01,4.39,2.95.71.43,1.34.93,2.3.92ZM48.92,72.68c2.04-1.32,3.67-2.78,5.3-4.33l-8.07-7.04c-.31-.15-.53-.26-.82-.15-1.73,1.42-3.36,2.85-4.79,4.49-.38.44-.38.82.03,1.22,1.75,1.71,7.04,6.65,8.35,5.8ZM98.83,64.55c.43-.92.67-2.23-.14-3.03-.3-.3-.86.29-.86.65l-.02,2.46c0,.23.42.34.6.21l.41-.29ZM89.24,70.01c1.94-1.67,3.57-3.48,5.24-5.36-.57-.46-1.12-.7-1.77-.85l-4.88-1.15c-.55-.13-.97-.07-1.34.34l-2.28,2.59c-.76.86-1.01,1.99-1.43,3.05l4.82,1.62c.61.2,1.19.16,1.66-.24ZM31.77,64.23l4.06-.94-3.35-.38c-1.25.04-2.35.62-3.52,1.09.87.13,1.81.46,2.81.23ZM38.47,67.42c-.62-.86-.63-1.86.2-2.56-.21-.21-.53-.3-.84-.23-2.37.53-4.62,1.12-6.88,2.13,1.58,2.12,3.37,3.96,5.58,5.5,1.92-.32,3.55-.74,5.31-1.34-.57-1.21-2.24-1.94-3.36-3.5ZM91.47,74.46c1.95-1.74,3.58-3.3,5.05-5.08-.15-1.33-.51-2.51-1.21-3.59-1.73,2.13-3.45,3.98-5.46,5.78.42,1.09.83,2.07,1.62,2.89ZM61.6,77.18c2.22-1.01,4.43-1.94,6.42-3.3.77-1.39-.76-3.91-2.12-5.23-1.4-1.37-3.73-1.44-5.43-.45-1.33.78-3.04,1.22-4.01,2.38-.44.54.36,1.4.63,1.85.97,1.62,1.9,3.08,3.19,4.48.3.32.83.49,1.32.27ZM34,76.2c.42-1.01.74-1.96.82-3.01l-4.8-4.82-.58,3.08c-.23,1.24,2.77,3.54,4.55,4.75ZM89.43,74.51c-.35-.93-.54-2.12-1.5-2.46l-4.94-1.71c.25.93.87,1.81,1.82,2.21l4.61,1.96ZM55.35,73.83c-.4-.81-.74-1.49-1.42-1.95-.35-.02-.73.55-.72.85.02.61,1.61,1.7,2.14,1.1ZM37.67,76.06c0-1.99,1.33-2.35,3.1-3.21-1.51.17-2.9.56-4.19,1.13l-.68,2.72c.71-.14,1.2-.33,1.77-.64ZM77.9,79.69c1.13.47,1.81.25,2.55-.34,1.64-1.3,3.37-2.46,4.92-3.9.3-.28-.16-.54-.48-.67l-3.68-1.47c-2.21-.88-3.12,1.69-6.68,2.43-1.02.21-2.05.62-2.39,1.53l5.76,2.43ZM54.28,76.82c-.54-.95-1.37-1.16-2.11-1.61-.78-.48-1.55-.67-2.56-.53-3.22.45-3.86-2.07-5.85-1.04-.89.47-1.93.69-2.9,1.38l7.08,4.29c.28.17.93.48,1.24.34,1.81-.81,3.33-1.81,5.1-2.82ZM35.71,78.65c-3.22-.33-2.68-2.02-4.37-2.52-.09,2.67,2.77,3.05,5.16,4.61.66-.53.26-1.98-.79-2.08ZM47.12,85.72c.38-1.57.62-2.89.62-4.34-.08-.35-.78-.6-1.09-.79l-6.68-4.36c-.49,1.55-.63,2.96-.71,4.46l1.1,1.02c2.13,1.51,4.32,2.81,6.75,4ZM81.11,85.21c2.28-1.43,4.01-2.96,5.73-4.67.05-1.34-.12-2.56-.49-3.94l-5.78,4.85c-.02,1.27.09,2.57.53,3.76ZM91.01,76.76c-.81-.13-2.12,1.8-1.56,3.48,1.4-.84,2.37-3.35,1.56-3.48ZM59.14,81.54c1.1.78,2.16,1.52,3.46,2.06l8.13-3.35c-1.56-1.16-3.11-2.05-4.8-2.95l-3.89,1.69c-.99.37-2,.33-2.79-.38-.91.3-1.85.6-2.59,1.18l2.49,1.76ZM53.42,82.95c.54-.43.31-1.31.47-1.77-.17-1.25.5-1.98,1.37-3.11-1.78,1.02-3.79,1.93-5.23,3.31-.86,1.18-.79,2.81-1.22,4.22,1.64-.76,3.2-1.51,4.6-2.65ZM79.32,84.88c.16-1.19-.07-2.02-.44-2.94-.39-.42-.95-.75-1.55-.95-1.78-.62-3.32-1.34-5.08-2.23.66,1.02,1.21,1.86,1.24,3.01.01.42.32.77.74.99l5.09,2.14ZM61.58,86.19c0-.8-.26-1.35-.87-1.78l-4.26-3.03-.32-.14c-.41-.18-.24,3.28.22,4.96,1.35,1.48,3.36,2.5,5.19,3.67l.04-3.67ZM63.55,90.14c2.72-1.02,5.17-1.96,7.61-3.33.32-1.77.28-3.52.05-5.27l-6.18,2.94c-.57.27-1.37.55-1.49,1.16-.3,1.51-.26,3,0,4.51ZM57.2,89.62l-3.42-2.81c-.72-.59-2.87.12-4.31.89.31.64,1.24.77,2,.7,2.89-.28,3.77,2.09,5.73,1.23Z"/>
    </g>
  </g>
</svg>