<?xml version="1.0" encoding="UTF-8"?>
<svg id="_レイヤー_1" data-name="レイヤー 1" xmlns="http://www.w3.org/2000/svg" viewBox="0 0 124 124">
  <defs>
    <style>
      .cls-1 {
        fill: #fff;
      }

      .cls-2 {
        fill: #475250;
      }
    </style>
  </defs>
  <circle class="cls-2" cx="62" cy="62" r="62"/>
  <path class="cls-1" d="M76.99,93.47c-8.68,8.77-19.93,10.14-28.58,1.18-3.36,1.01-6.74,1.2-10.05.29-6.81-1.88-11.49-7.94-11.93-15.04-2.6-2.12-4.63-4.55-6.03-7.57-1.58-3.59-1.94-7.42-.9-11.16,1.02-3.4,2.7-6.4,5.09-9.06-.84-4.2.04-8.39,2.59-11.8,1.47-1.83,3.26-3.06,5.37-3.95,2.47-5.68,8.45-8.87,14.6-7.37,4.55-4.81,11.1-6.68,17.63-5.33,3.57.74,6.6,2.49,9.52,4.6,6.89-1.7,13.8.16,16.89,6.54.9,1.85,1.36,3.72,1.78,5.69,6.55,2.86,10.61,8.86,11.02,15.87.14,2.46-.03,4.75-.91,7.18,4.06,7.34,1.87,15.18-5.6,19.06-2.9,8.92-11.15,13.21-20.5,10.87ZM82.68,80.93l-1.41,1.92c.05,1.46-.29,2.83-.52,4.29,2.75-.87,4.51-2.86,5.8-5.13,2.42-4.26,5.79-.78,10.46-4.16,2.98-2.15,4.45-5.8,3.4-9.38-2,2.53-4.31,4.44-7.15,5.56-1.07.42-2.16-.36-2.56-1.27-.31-.71-.17-2.17.85-2.65,6.04-2.82,9.18-9.08,7.76-15.71-.81-3.77-3.08-7.06-6.44-8.92-.27,2.18-.78,3.93-1.82,5.62,3.23,4.98,3.35,11.69-.78,15.7-.57.55-.9,1.2-1.14,1.92-1.24,3.75-4.49,6.22-8.47,6.59-2.9.45-5.77.44-8.59-.48-2.18.37-4.28.69-6.45.43-2.35-.2-4.57-.92-6.4-2.53-2.63.74-5.32.29-7.36-1.38-1.99-1.63-2.74-4-2.97-6.58l-1.09-3.2c-.47-1.37-1.5-2.46-2.59-2.89-2.54-1.02-5.25.72-5.59,1.61-.49,1.3-1.49,2.15-2.84,1.83-3.91-.93-.45-10.41,5.94-12.14-.79-3.07.07-5.83,1.87-8.14,2.55-3.26,6.56-3.6,10.14-3.3,1.69-1.91,4.04-4.6,7.31-3.7l1.98-1.83c1.72-1.58,3.92-2.14,6.37-2.08-7.23-5.17-16.71-4.59-21.57,3.32-1.68,2.73-4.66,4.56-7.75,5.03l-4.07.61c-2.17.33-4.28.81-5.82,2.43-1.63,1.71-2.4,3.97-2.48,6.37,3.5-1.89,8.55-3.5,8.69-.13.04.89-.5,1.95-1.6,2.16-2.8.54-5.27,1.7-7.37,3.73-5.7,5.52-7.19,13.84-1.48,19.93.71-1.95,1.31-3.75,2.66-5.13.9-.92,2.44-.6,3.14.37.7.97.4,1.93-.27,3.05-3.26,5.45-1.67,12.67,3.42,16.42,2.86,2.1,6.44,2.55,10.06,1.68-1.4-2.93-1.79-6.07-1.82-9.09-4.86-1.35-7.41-6.22-6.78-11,.17-1.28,1.17-2.04,2.32-1.96,1.19.08,2.06,1.08,1.96,2.39-.13,1.79.23,3.66,1.45,5.02,2.25,2.51,5.8.41,7.14,4.22.65,1.86,2,3.2,3.53,3.77,1.99.74,4.01.38,5.68-.69,1.26-.8,2.65-.26,3.2.82.75,1.47-.25,2.51-1.47,3.15-4.09,2.15-8.73,1.85-12.2-1.27.94,4.17,3.84,7.34,7.03,8.9,6.45,3.14,12.56.67,17.7-4.41,1.37-1.36,2.42-2.91,2.9-4.85-2.73.65-5.23.03-7.64-1.19-1.28-.65-1.88-2.02-1.11-3.24.78-1.24,2.27-1.17,3.47-.47,2.91,1.72,6.23.6,7.79-2.22.62-1.11,2.1-1.33,2.94-.77.98.66,1.37,2.04.63,3.05ZM88.02,47.37c1.1-3.9.7-7.72-.97-11.12-1.85-2.98-4.87-4.57-8.52-4.16,1.2,1.92,1.61,4.01,1.76,6.14,3.17,1.69,5.07,4.58,5.92,7.86.62.47,1.09.97,1.82,1.28ZM68.57,69.39c2.03.34,3.75.95,5.64,1.51,2.39.72,5.14.4,7.49-.25,1.73-.48,2.88-1.92,3.33-3.52.86-3.08,3.01-3.7,3.5-5.35.63-2.16-.49-4.47-2.38-5.76-1.75-1.19-2.91-2.45-3.26-4.64-.36-2.26-.9-4.54-1.94-6.57-2.19-4.23-8.92-4.99-13.24-2.65,7.81-.08,13.14,3.97,13.53,12,.07,1.35-.29,2.38-1.71,2.48-1.12.08-1.82-.76-2.04-1.96-.31-1.64-1.81-3-3.33-3.61-3.97-1.59-5.27,2.91-9.4.64-2.65-1.46-5.64-1.02-7.57,1.07-1.91,2.08-2.17,5.29-.43,7.62,2.26,3.02,5.64,1.17,7.1,5.07.76,2.03,2.45,3.52,4.74,3.9Z"/>
</svg>