<?xml version="1.0" encoding="UTF-8"?>
<svg id="_レイヤー_1" data-name="レイヤー 1" xmlns="http://www.w3.org/2000/svg" viewBox="0 0 124 124">
  <defs>
    <style>
      .cls-1 {
        fill: #aa8278;
      }

      .cls-2 {
        fill: #fff;
      }
    </style>
  </defs>
  <circle class="cls-1" cx="62" cy="62" r="62"/>
  <path class="cls-2" d="M64.16,21.21l1.8.19c.59.06,1.18.12,1.76.19l2.08.28,1.77.43c.69.17,1.39.42,2.09.54.69.12,1.22.27,1.9.55l2.98,1.11,2.95,1.54c.61.32,1.17.73,1.82.96-.01.08-.01.13.04.15l.28.1,1.88,1.29.17.16,1.54,1.17c1.15.88,2.29,1.86,3.26,2.92.15.17.45.38.59.54l2.02,2.24.8,1.12,1.24,1.61c.07.09.02.12.17.12.34.77.77,1.72,1.57,2.28.17.52.4,1.22.67,1.82l.94,2.06.65,1.55c.04.1.08.27.11.36l.52,1.74.51,1.87.41,2.12c.19,1,.18,1.52.38,1.38l-.02.6.12,1.75c.05.71.09,1.49.01,2.21-.15,1.32-.41,2.64-1.1,3.76l-1.05,1.69c-.44.6-1.38,1.12-2.07,1.83-.38.39-1.17.52-1.66.79-.6.33-1.27.59-1.93.65l-1.7.16c-1.51.14-2.98-.21-4.42-.61l-1.68-.46c0-.06-.08-.16-.13-.14-.05.02-.13.06-.2.01-.48-.29-1.08-.43-1.6-.64l-2.12-.89-3.65-1.25-1.88-.52c-.23.53-.02.95-.01,1.32.01.96.14,1.89.2,2.84l.1,1.67.21,1.5.24,1.83c.22,1.65.64,3.28.93,4.92l.19,1.07.43,2.03.47,2.01.76,3.17.21.84.33,1.73.36,2.1.27,1.92c.08.57.06,1.26-.05,1.84l-.36,1.97c-.26,1.42-1.25,2.71-2.18,3.81-.12.14-.41.32-.57.42l-1.96,1.25-1.49.6-2.29.66-1.84.33-1.99.23-1.91.14-4.02.09c-3.38.07-6.65-.18-9.86-.79l-1.82-.58c-1.4-.45-2.67-1.11-3.87-1.96-.01-.08-.01-.1-.05-.14-.07-.08-.2-.05-.26-.05-1.11-1.13-1.91-2.5-2.36-4.02-.2-.68-.37-1.38-.37-2.09v-1.94s.21-1.78.21-1.78l.28-1.56.46-2.36.96-3.82.6-2.52.29-1.52.35-1.65.75-4.29.29-2.11.14-1.7.16-1.89c.06-.72.16-1.44.14-2.17,0-.39.2-.8,0-1.31l-1.89.51-3.65,1.24-2.6,1.03c-.05.18-.08.45-.21.48-.22.06-.63-.05-.8-.06-.27,0-.5.16-.62.2l-1.48.48-2.12.52c-1.94.47-3.91.04-5.78-.65-.32-.12-.71-.41-1.1-.39-.29-.32-.68-.48-.96-.73l-1.32-1.14-.8-.97-.71-1.12-.91-2.18c-.23-.54-.22-1.28-.25-1.84-.03-.55-.02-1.13,0-1.68.04-.68-.03-1.49.18-2.14.18-.54-.03-1.11.1-1.61l.6-2.28.51-1.86.64-2.05,1.62-3.89c.1-.25.61-.54.38-.99l3.25-4.83c1.9-2.45,3.98-4.78,6.46-6.66l1.38-1.04.33-.23,2.15-1.39.98-.63c.3-.19.57-.3.88-.48,1.31-.74,2.66-1.4,4.05-1.96l1.83-.73,4.12-1.18,1.88-.45,1.91-.25,1.9-.3,3.74-.19,2.47.06Z"/>
</svg>