<?xml version="1.0" encoding="UTF-8"?>
<svg id="_レイヤー_1" data-name="レイヤー 1" xmlns="http://www.w3.org/2000/svg" viewBox="0 0 124 124">
  <defs>
    <style>
      .cls-1 {
        fill: #75182c;
      }

      .cls-2 {
        fill: #fff;
      }
    </style>
  </defs>
  <circle class="cls-1" cx="62" cy="62" r="62"/>
  <path class="cls-2" d="M76.33,26.7l2.36.15c1.29.08,2.52.51,3.7.96,2.16.84,4.18,2.23,4.53,2.21l1.8-.1,2.06-.03c.59,0,1.26.1,1.84.22l2.25.49,2.04.87c1.37.58,2.57,1.42,3.69,2.39-.04.14,0,.25.17.26.26.38.56.79.99,1,.06.11.04.57.06.44l1.11,1.25c-.11.22.08.45.17.63.29.61.58,1.19.78,1.83l.89,2.9.38,2.91c-.07.04-.1.12-.08.23l-.02,2.19-.18,1.9c-.13,1.39-.45,2.79-.96,4.07l-.8,2.02c-.12.3-.26.73-.46.96-.29.33-.42.87-.63,1.17l-1.41,2.02-1.22,1.37c-.28.32-.92.49-.86,1.02-.11-.08-.2-.05-.27-.03-.12.04-.12.26-.16.4-.6.13-.98.74-1.44,1.02l-1.85,1.13c-1.33.81-2.8,1.46-4.3,1.86l-1.85.49-2.22.35c-1.32.21-2.68.24-3.96.64l-1.95.61c-1.19.37-3.36,1.51-4.26,2.21l-1.22.96c-1.07.84-2.1,1.72-3.03,2.71l-1.41,1.53-.99,1.01-.84.95c-1.54,1.74-3.07,3.5-4.82,5.07l-1.5,1.35-.44.29-1.69,1.32c-.13.1-.38.26-.52.34l-1.98,1.26-1.78,1.04c-.08,0-.23-.01-.23.11l-4.19,1.71-2.03.69-2.01.56-4.02.75-2.2.31c-.44.06-.98.11-1.41.11l-3.45-.02c-.16,0-.42-.01-.57-.03-1.77-.17-3.62-.28-5.22-.99l-1.73-.77c-2.22-.98-4.19-2.59-5.34-4.85-.03-.07-.45-.03-.44-.1,0-.13.14-.41.12-.53l-.23-1.52-.03-1.24c-.04-1.61.66-3.14,1.59-4.45.07-.1.11-.19.15-.37l1.85-1.95.63-.59,1.36-1.19.39-.26,3.94-3.04c3.16-2.44,5.8-5.28,7.99-8.6.16-.24.21-.44.28-.63.06-.16.3-.39.4-.53.33-.46.54-.99.78-1.46l.87-1.71,1.74-3.83c.11-.23.12-.54.19-.67.17-.29.36-.69.34-1.1.39-.05.35-.62.49-.83.38-.6.6-1.35.92-2l2.09-4.27,2.23-3.71.77-1.25.76-.98,4-4.41c1.12-1.24,2.36-2.22,3.75-3.09.6-.3,1.21-.63,1.51-1.15.7-.11,1.32-.57,1.88-1l1.68-.73.38-.22,2.12-.76,3.92-.97,1.87-.17,2.37-.09Z"/>
</svg>