<?xml version="1.0" encoding="UTF-8"?>
<svg id="_レイヤー_1" data-name="レイヤー 1" xmlns="http://www.w3.org/2000/svg" viewBox="0 0 124 124">
  <defs>
    <style>
      .cls-1 {
        fill: #209959;
      }

      .cls-2 {
        fill: #fff;
      }
    </style>
  </defs>
  <circle class="cls-1" cx="62" cy="62" r="62"/>
  <g>
    <path class="cls-2" d="M58.88,71.27l-.04-1.87.12-8.59c-1.67-1.92-1.9-4.52-1.38-6.93.64-.05.95.17,1.49.43.07-3.94.16-7.67-.08-11.77-2.69-1.11-4.09-4.08-3.05-6.93,1.48.28,2.54.91,3.74,2.01.28-1.76,1.05-3.25,2.43-4.23,1.35,1.1,1.96,2.47,2.36,4.26,1.08-.96,2.07-1.78,3.76-2,.87,2.71-.31,5.73-3.05,6.74-.23,2.36-.16,4.49-.22,6.82.43-.25.87-.53,1.4-.6.9,2.25.29,5-1.06,6.99l.11,15.67c-2.31.27-4.46.12-6.55,0Z"/>
    <path class="cls-2" d="M66.42,110.06c-1.03,1.99-4.95,2.02-7.14,1.33-1.08-.34-1.55-.94-1.52-2.06l.86-29.41c2.35.05,4.62.1,6.98-.04l.82,30.18Z"/>
    <path class="cls-2" d="M73.22,55.81c-.45,4.91-.68,9.63-.73,14.73-1.85.37-3.64.59-5.72.66.03-5.71.19-11.2.99-16.69.28-1.88.66-3.57.52-5.55l.56-7.22c.52-1.29,1.1-2.58,1.13-4.25-.09-.28.15-.56.43-.25.43-1.31,1.18-2.62,2.61-3.43,1.24,1.04,1.42,2.7,1.53,4.27,1.19-.77,2.19-1.32,3.64-1.43.45,2.59-.9,5.15-3.58,5.8l-.84,7.33c.47-.33,1.39-.69,1.52-.28.48,1.6-.24,5.09-2.05,6.3Z"/>
    <path class="cls-2" d="M57.31,69.4c0,.59.06,1.21-.19,1.8-1.81-.16-3.6-.21-5.48-.67-.13-4.98-.27-9.81-.8-14.6-1.93-1.79-2.33-4.29-2.04-6.66.69-.03,1,.2,1.57.48-.15-2.55-.49-4.8-.89-7.25-2.6-.72-3.97-3.24-3.46-5.82,1.4.1,2.26.66,3.46,1.42.1-1.57.41-3.05,1.55-4.25,1.32.65,2.16,1.88,2.63,3.31.21.16.35.02.55-.19-.27,1.85.57,3.18,1.03,4.54l1.16,11.07c-.99,2.75-.57,5.65.59,8.22.28,2.93.3,5.76.32,8.59Z"/>
    <path class="cls-2" d="M79.97,74.54c0,.42.02.81-.2,1.09-.21.27-.61.42-1.06.55-10.46,3.04-24.02,3.04-34.54-.38-.1-3.03-.51-5.44,1.34-4.96,10.87,2.83,22.58,2.93,33.59-.19.41-.03.84.99.85,1.4l.03,2.48Z"/>
    <path class="cls-2" d="M45.51,69.16c-.44-4.53-.97-8.75-1.73-13.21-2.06-1.65-2.61-3.79-2.57-6.5.66-.02,1.01.22,1.62.47l-1.17-7.23c-2.65-.57-4.32-2.95-3.85-5.65,1.45-.05,2.52.57,3.61,1.27-.05-1.61.04-3.06,1.18-4.23.69.18,2.01,1.08,1.96,1.97-.44,2.67.19,5.31,2.57,6.86.21,1.6.88,3.18.79,4.86-1.44,2.42-.58,6.34,1.34,8.78.47,4.57.73,8.96.77,13.68l-4.54-1.08Z"/>
    <path class="cls-2" d="M67.63,96.79l-.06-2.62-.43-14.44c1.88-.12,3.64-.29,5.58-.56l1.98,27.48c.07,1-.19,1.73-1.15,2.16-1.58.7-3.64.81-5.24.1-.34-.15-.38-.84-.38-1.09l-.3-11.02Z"/>
    <path class="cls-2" d="M55.09,109.21c-2.5.56-5.81-.15-5.65-2.24l2.09-27.78c1.88.28,3.61.46,5.54.59l-.86,27.84c-.02.8-.2,1.38-1.13,1.59Z"/>
    <path class="cls-2" d="M80.19,55.95c-.69,4.52-1.34,8.75-1.64,13.15-1.54.43-2.85.89-4.49,1.1.04-4.63.3-9,.68-13.57,1.99-2.35,3.05-6.91,1.16-8.93.43-1.58.63-3.13.89-4.78,2.49-1.39,3.18-4.17,2.71-6.89-.12-.7,1.05-1.79,1.77-1.85,1.23.76,1.26,2.61,1.35,4.09,1.15-.6,2.14-1.23,3.57-1.21.51,2.51-1.14,5.14-3.79,5.56l-1.35,7.34c.68-.21.98-.48,1.62-.49.23,2.52-.54,4.91-2.49,6.49Z"/>
    <path class="cls-2" d="M47.77,105.55c-.11,1.35-4.78,1.17-5.88-1.34l3.26-26.32,4.73,1.09-.68,9.77-1.43,16.8Z"/>
    <path class="cls-2" d="M76.3,106.03l-1.34-16.66-.66-10.43,4.53-1.05,3.29,25.58c.29,2.24-3.02,3.23-5.81,2.55Z"/>
    <path class="cls-2" d="M58.65,21.55c-.09.19-2.11.3-2.88,4.86-.41-1.94-1.54-3.7-3.32-4.37-.44-.17-.83-1.06-1.14-1.58-.99-1.64.1-4.69.8-4.47l.9.29c-.03-1.14.04-3.6,1.5-3.99,1.38-.24,2.34,2.12,2.66,3.27.11,0,.6-.69.93-.45,1.22.88,1.85,2.65,1.58,4.13l-1.04,2.31Z"/>
    <path class="cls-2" d="M68.31,26.49c-.2-1.36-.64-2.42-1.19-3.57-.39-.8-1.72-.95-2.67-3.43-.61-1.61.69-4.11,1.57-4.33.28-.07.6.2.99.4.02-1.15,1.11-3.32,2.45-3.36,1.49.51,1.61,2.79,1.62,4.13.25-.07,1.03-.56,1.32-.15,1.61,2.29.34,5.41-.89,5.91-1.87.77-2.66,2.5-3.19,4.39Z"/>
    <path class="cls-2" d="M65.1,35.54c-.62-1.12-1.33-3.33-2.95-3.45-1.54-.08-2.52,2.19-3.18,3.39l-1.92-1.06c-1.37-1.44-1.26-3.7-.42-5.44,1.28.24,2.12.96,3.08,2.04.34-1.69.79-3.37,2.31-4.56,1.48,1.05,2.05,2.7,2.41,4.58.94-.95,1.77-1.87,3.14-2.05.63,1.64.86,3.69-.2,5.16-.45.63-1.37.87-2.28,1.37Z"/>
    <path class="cls-2" d="M64.97,28.67c-.41-1.1-1.3-3.32-2.78-3.41-1.6-.1-2.66,2.17-3.11,3.48-.5-.25-.87-.59-1.55-.68-.43-1.92.25-4.46,1.28-4.78.26-.08.62.2,1.1.48.05-1.7.68-3.19,2.15-4.41,1.41,1.05,2.04,2.7,2.27,4.4.38-.36,1.06-.69,1.31-.4,1.07,1.28,1.28,2.88,1.04,4.49-.53.29-.96.72-1.71.83Z"/>
    <path class="cls-2" d="M50.91,32.63c-1.39.08-1.87,2.16-2.29,3.28-.71.14-1.79-.19-2.29-.75-1.06-1.17-1.21-3.01-.69-4.49,1.2,0,2,.63,3.09,1.32-.09-1.63.17-3.21,1.31-4.59,1.49.85,2.33,2.15,2.76,3.87.65-.78.89-1.67,2.06-2.13-.33,1.66-.39,3.26.17,5.02-.48.33-.77.78-.97,1.12-.64-1.01-1.72-2.75-3.14-2.67Z"/>
    <path class="cls-2" d="M78.64,32.91c-.1.37-.12,1.06-.36,1.48-.77,1.37-1.13,1.19-2.76,1.78-.33-1.87-1.55-3.98-2.57-3.67-1.27.39-2.15,1.6-2.93,2.66-.21-.28-.67-.75-.76-1.03.36-1.6.5-3.38.07-4.93,1.09.4,1.26,1.15,1.94,1.97.36-1.44,1.26-2.84,2.65-3.8,1.38,1.26,1.38,2.99,1.51,4.6.97-.56,1.87-1.5,2.89-1.24.56.29.48,1.64.33,2.18Z"/>
    <path class="cls-2" d="M49.96,26.29c-1.47.14-1.91,2.35-2.28,3.45-.58.09-.96-.23-1.48-.37-.79-1.98-.24-4.59.58-4.59.23,0,.51.13.88.38.09-1.83.02-3.49,1.46-4.2,1.47.32,2.13,1.91,2.54,3.28.4-.17.56-.44.76-.48.85-.16,2.19,2.26,1.9,4.29-.5.33-.76.74-1.32.7-.66-.86-1.71-2.59-3.03-2.47Z"/>
    <path class="cls-2" d="M78.07,25.69c.25,1.03.28,2.58-.24,3.65-.44.1-.87.49-1.49.34-.29-1.1-.88-3.2-2.21-3.43-1.37-.24-2.46,1.6-3.02,2.53-.62-.24-.97-.58-1.44-.97-.05-1.57.49-3.28,1.88-4.07.26-.02.63.47.84.58.35-1.19,1.15-3.06,2.52-3.36,1.34.51,1.61,2.81,1.44,4.05.32.16.73-.18.93-.22.46.16.52.69.78.9Z"/>
    <path class="cls-2" d="M41.24,26.69c-1.29.37-1.83,2.37-2.04,3.58-.61-.03-.99-.22-1.43-.44-1.12-2.01-.45-4.53.27-4.4l.96.18c-.11-.98-.22-3.44,1.1-3.79,1.31-.35,2.37,1.72,2.63,2.7l.79-.4c.34-.17,1.19.75,1.12,1.21-.18,1.24-.25,2.34-.33,3.49-.92-.85-1.84-2.17-3.08-2.14Z"/>
    <path class="cls-2" d="M86.83,28.93c-.34.77-.99,1.39-2.01,1.28-.3-1.15-.67-3.17-2-3.46-1.24-.27-2.14,1.42-3.1,2.12.02-1.81-.44-3.28-.2-4.22.24-.08.59-.49.99-.49.24,0,.77.53.84.29.34-1.21,1.32-2.68,2.52-2.74,1.19.65,1.33,2.62,1.18,3.87.43-.06.82-.29,1.11-.14.24.12.54.61.56.99l.11,2.51Z"/>
    <path class="cls-2" d="M87.05,31.23c.16,1.51.03,3.13-1.22,4.38-.5.51-1.45.66-2.12.73-.32-1.49-.84-2.8-2.01-3.74l-1.71.75c.28-.8,0-1.71.14-2.63.18-1.29,1.39-2.28,2.54-2.83,1.07,1.29,1.22,2.71,1.22,4.38,1.04-.68,2.06-1.27,3.18-1.04Z"/>
    <path class="cls-2" d="M40.3,36.44c-.6-.25-1.65-.32-2.2-.81-1.12-1.21-1.4-3.01-1.09-4.56,1.29-.03,2.06.61,3.12,1.19,0-1.73.12-3.24,1.37-4.4,1.08.7,2.16,1.6,2.42,2.87l.05,2.5c-.52-.32-.86-.6-1.36-.59-.44,0-.98.41-1.18.88-.63.81-.9,1.41-1.15,2.9Z"/>
  </g>
</svg>