<?xml version="1.0" encoding="UTF-8"?>
<svg id="_レイヤー_1" data-name="レイヤー 1" xmlns="http://www.w3.org/2000/svg" viewBox="0 0 124 124"><metadata><?xpacket begin="" id="W5M0MpCehiHzreSzNTczkc9d"?><x:xmpmeta xmlns:x="adobe:ns:meta/" x:xmptk="XMP Core 6.0.0"><rdf:RDF xmlns:rdf="http://www.w3.org/1999/02/22-rdf-syntax-ns#"><rdf:Description rdf:about="" xmlns:xmp="http://ns.adobe.com/xap/1.0/" xmlns:xmpMM="http://ns.adobe.com/xap/1.0/mm/" xmlns:dc="http://purl.org/dc/elements/1.1/" xmlns:dcterms="http://purl.org/dc/terms/" xmpMM:DocumentID="xmp.did:cb9f5498-bb58-4572-8043-8c369e6bfb9b" xmpMM:InstanceID="xmp.iid:cb9f5498-bb58-4572-8043-8c369e6bfb9b" dcterms:provenance="https://cai-manifests.adobe.com/manifests/urn-c2pa-c03ace62-54c7-43bf-944b-4135ce73322a-adobe"> </rdf:Description></rdf:RDF></x:xmpmeta>
<?xpacket end="w"?></metadata>
  <defs>
    <style>
      .cls-1 {
        fill: #e52400;
      }

      .cls-2 {
        fill: #fff;
      }
    </style>
  </defs>
  <circle class="cls-1" cx="62" cy="62" r="62"/>
  <path class="cls-2" d="M67.63,35.92c1.41-.48,2.91-.18,3.64,1.21.19.37.21.95.83,1.2.36.14.79.48,1.14.52,3.23.38,3.34,2.54,4.72,3.54.69.5,1.35.15,2.85,1.08,1.13.7,1.62,1.98,1.56,3.35l1.15.24c.89.43,1.79.97,2.19,1.88.35.78.43,1.68.39,2.58l3.08,1.3c.7.3,1.28.91,1.73,1.55.59.82.83,2.1,1.76,2.74.89.62,1.69,1.27,1.69,2.4,0,.36-.14.87.29,1.14.24.15.57.27.87.36,1.87.58,3.76,1.53,4.67,3.24l.33.62c.52.97.8,2.06.83,3.26.03.87.53,1.53.86,2.18.31.6.61,1.19,1.19,1.64,1.24.97,2.15,2.19,2.73,3.57-.1.12-.04.25,0,.39,1.03,3.83-1.51,7.85-5.47,8.47l-5.61.1h-4.91s-6.1.02-6.1.02l-5.15-.02h-6.15s-5.14,0-5.14,0h-5.66s-5.39,0-5.39,0l-5.52.02-5.75-.03-5.3.02h-5.74s-5.65-.03-5.65-.03c-1.89,0-3.85.21-5.7-.13-1.76-.33-3.29-1.51-4.25-2.95l-.88-1.63c-.08-1.21-.35-2.63.02-3.88.14-.48.25-1.02.51-1.45l.81-1.32,5.17-4.99c.26-.25.63-.78.73-1.17l.53-2.11c.41-1.65,1.62-2.87,3.13-3.82.51-.32.74-.86,1.22-1.19l1.55-1.08c-.25-2.02.99-3.68,2.95-4.16.57-.14,1.09-.79,1.21-1.38.4-1.97,1.36-3.73,2.77-5.06l1.32-.42c.55-.17,1.72,0,2-.7.25-.64.32-1.36.83-1.76.48-.38,1.09-.47,1.82-.4.74-3.76,4.32-2.92,4.61-3.59.59-1.34,1.48-2.26,2.69-2.79.8-.35,1.66-.53,2.5-.72,1.12-.25,1.96-.87,2.64-1.74,2.02-2.57,4.38-.99,4.97-1.04.19-.02.4-.08.61-.27,1.31-1.2,3.29-.92,4.27.55.18.27.68.68.96.64Z"/>
</svg>