<?xml version="1.0" encoding="UTF-8"?>
<svg id="_レイヤー_1" data-name="レイヤー 1" xmlns="http://www.w3.org/2000/svg" viewBox="0 0 124 124">
  <defs>
    <style>
      .cls-1 {
        fill: #eca933;
      }

      .cls-2 {
        fill: #fff;
      }
    </style>
  </defs>
  <circle class="cls-1" cx="62" cy="62" r="62"/>
  <path class="cls-2" d="M82.28,19.67l2.47-.03,1.79.2c.77.09,1.53.19,2.23.34l1.9.4.81.21c.41.11.81.26,1.26.27l2.34,1.06,1.04.46c.03.37-.4,1.11-.76,1.64l-.91,1.35c-.4.6-.84,1.16-1.35,1.71l-2.85,3.04c-1.67,1.78-3.68,3.02-5.73,4.13l-2.03.86-2.14.71c-.55.18-1.15.13-1.68.25-.76.17-1.52.22-2.31.31-.64.08-1.24-.05-1.87-.13l-2.27-.28-2.9-.87-.93-.39c-.18.01-.42-.18-.37-.31.16-.44.55-.58.78-.82,1.19-1.28,2.49-2.23,3.8-3.2.08-.06.18-.15.18-.26.56-.06,1.01-.47,1.5-.73l2.09-1.18c.05.03.11.09.19.04,1.27-.75,2.73-1.17,4.18-1.79l.48-.21,2.04-.62c-.92-.23-1.74.1-2.53.1-.48,0-.76.09-1.3.23l-2.46.64c-1.62.42-3.23,1.05-4.6,1.96l-2.66,1.76-1.32,1.16c-.45.4-.92.87-1.32,1.26l-.38,3.12c-.03.2-.07.57.11.65.1.05.33,0,.49.34.52-.15,1.1-.05,1.41.32,1.31.02,2.23.69,3.32,1.13,3.79,1.51,6.7,4.16,9.25,7.32.81,1,1.32,2.07,1.96,3.19.97,1.71,1.18,2.88,1.4,3.35.41.87.7,1.66.87,2.55l.44,2.29c.11.59-.08,1.05.26,1.62.27.47.13,1.35.13,1.96l.04,4.19c0,.48-.19.91-.24,1.31l-.42,2.9-1.35,5.06-.37.97-1.54,3.48c-.68,1.52-1.57,2.92-2.49,4.3l-1.44,2.16-2.35,2.86c-1.95,2.38-4.37,4.16-4.84,4.9-.6.93-1.62,1.48-2.46,2.21-.79.7-1.55,1.11-2.36,1.66l-2.13,1.45c-.06.1-.17.14-.19.24-1,.23-1.88.97-2.85,1.53-.41.23-.9.34-1.18.46l-2.05.87-.51.22-3.61,1.26-2.14.66-3.83.63-2.28.22h-1.88c-.74.02-1.58.01-2.28-.2-.52-.15-1.1-.08-1.71-.23l-2.08-.53c-.71-.18-1.45-.45-2.12-.74-.24-.1-.68-.48-.95-.49-.57-.03-.73-.07-1.05-.39-1.15-1.15-2.56-1.99-3.49-3.31l-.44-.62-.85-1.61-.6-1.76c-.47-1.97-.54-3.95-.08-5.9.15-.61.25-1.28.43-1.9l.56-1.87,1.72-4.01.73-1.88.45-1.55.42-2.02c.15-.73.28-1.43.35-2.19.06-.61.19-1.27.22-1.86l.11-2.11v-1.94s.01-1.87.01-1.87l.22-2.12.2-1.84c.05-.44.04-1.04.19-1.53.19-.6.54-1.06.55-1.77,0-.19.16-.53.21-.69l.53-1.77.7-2.11.82-1.92,1.12-2.02-.03-.23c.37-.01.52-.84,1.14-1.7l1.3-1.8c.97-1.34,2.11-2.59,3.33-3.65.12-.1.25-.34.37-.43l1.94-1.49,2.02-1.19c1.33-.78,2.74-1.42,4.21-1.86l2.09-.62.82-.13,3-.4,1.87-.13c.19-.01.28-.05.22-.29.57.31,1.4.24,2.04.23.28,0,.7.18,1.07.01.16-.62.05-1.25.08-1.82.03-.57-.11-1.1-.19-1.67l-.31-2.31c-.08-.59-.14-1.2-.36-1.75-.08,0-.09-.14.04-.12l-.52-1.89-.6-2.09c-.16-.55-.42-1.27-.7-1.74.28-.95.69-1.25,1.71-1.43l2.64-.47c.42-.07.77-.11,1.04.13.21.19.48,1.16.54,1.53l.31,2.14.22,1.83c.1.8.03,1.6.1,2.5.02.2-.34.59.12.86.42-.68.52-1.25,1.12-2.08.06-.08.29-.14.14-.44.47-.16.43-.51.51-.7l3.59-3.75c.6-.14,1.2-.57,1.83-.83l2.55-1.08c.43-.18.89-.38,1.28-.45.74-.12,1.47-.45,2.22-.41.62.03,1.16-.2,1.76-.2Z"/>
</svg>