<?xml version="1.0" encoding="UTF-8"?>
<svg id="_レイヤー_1" data-name="レイヤー 1" xmlns="http://www.w3.org/2000/svg" viewBox="0 0 124 124">
  <defs>
    <style>
      .cls-1 {
        fill: #8a7766;
      }

      .cls-2 {
        fill: #fff;
      }
    </style>
  </defs>
  <circle class="cls-1" cx="62" cy="62" r="62"/>
  <path class="cls-2" d="M84.85,61.58c-9.6-1.46-19.27,9.82-20.66,18.96-1.38,9.13,5.28,17.72,14.88,19.18,9.6,1.46,18.51-4.77,19.89-13.9,1.38-9.13-4.51-22.77-14.11-24.23ZM69.8,82.39l.41-2.68s.67-1.85,2.29-2.2c1.62-.34,3.12.08,3.12.08,0,0,1.42,3.54-.15,4.87s-5.66-.08-5.66-.08ZM80.16,92.93l-2.3,1.91s-1.88-.6-2.29-2.2c-.41-1.6-.04-3.12-.04-3.12,0,0,3.48-1.56,4.87-.04s-.24,3.45-.24,3.45ZM84.77,86.5l-1.07-.16-.94-3.44,1.44-1.06,1.78,1.55-1.2,3.11ZM93.93,91.79s-.65,1.65-2.52,1.5c-1.86-.15-2.65-2.96-2.65-2.96,0,0,2.49-3.12,3.56-3.09,1.07.03,2.22.47,2.22.47l-.62,4.08Z"/>
  <path class="cls-2" d="M57.16,69.42c-2.99-8.74-14.52-18.12-23.71-14.98-9.19,3.14-12.56,17.61-9.57,26.35,2.99,8.74,12.86,13.28,22.05,10.14,9.19-3.14,14.22-12.78,11.23-21.52ZM33.73,87.06l-2.42-2.61.79-1.61,2.29.55.37,3.32-1.03.35ZM37.65,81.66c-1.72.73-3.71-1.4-3.71-1.4,0,0,.77-3.92,1.73-4.39s2.18-.61,2.18-.61l1.33,3.9s.18,1.77-1.54,2.49ZM48.72,84.89l-1.16,2.75s-1.94.34-3.04-.9c-1.1-1.23-1.48-2.75-1.48-2.75,0,0,2.37-2.99,4.3-2.29,1.93.7,1.38,3.18,1.38,3.18ZM49.15,70.94c-.78,1.9-5.06,2.55-5.06,2.55l-.88-2.56s-.26-1.96,1.02-3.01c1.28-1.05,2.8-1.37,2.8-1.37,0,0,2.89,2.49,2.11,4.39ZM51.88,80.68l-.71-3.06,1.89-.24,1.18,1.65-2.36,1.65Z"/>
  <path class="cls-2" d="M70.93,20.88c-9.51-1.96-19.76,8.8-21.62,17.85-1.86,9.05,4.34,17.97,13.85,19.93s18.73-3.79,20.59-12.84c1.86-9.05-3.31-22.98-12.82-24.93ZM55.68,49.34l-1.06-.22-.76-3.48,1.5-.99,1.69,1.64-1.37,3.04ZM61.33,39.97c.15,2.47-4.08,2.47-4.08,2.47l-.73-4.66s1.16-1.75,1.75-2.04c.58-.29,1.89.15,2.77,1.16s.15.58.29,3.06ZM70.83,54.51l-2.4,1.78s-1.85-.7-2.17-2.32c-.32-1.62.12-3.12.12-3.12,0,0,3.56-1.37,4.87.21s-.42,3.44-.42,3.44ZM69.63,41.57l-3.07-1.73s-.36-2.79,2.34-2.79,4.01.1,4.01.1l.21,2.67-3.49,1.75ZM79.25,51.69s-.74,1.61-2.59,1.37c-1.85-.24-2.22-3.92-2.22-3.92,0,0,2.39-2.16,3.46-2.07,1.07.08,2.19.59,2.19.59l-.83,4.04Z"/>
</svg>