<?xml version="1.0" encoding="UTF-8"?>
<svg id="_レイヤー_1" data-name="レイヤー 1" xmlns="http://www.w3.org/2000/svg" viewBox="0 0 124 124">
  <defs>
    <style>
      .cls-1 {
        fill: #b48252;
      }

      .cls-2 {
        fill: #fff;
      }
    </style>
  </defs>
  <circle class="cls-1" cx="62" cy="62" r="62"/>
  <g>
    <path class="cls-2" d="M64.13,35.89c.23.59.46,1.13.6,1.74l.6,2.64.23,1.93.09,2.6-.25,3.01c.48-.28.63-.76.81-1.17,1.95-2.01,4.36-4.4,7.19-5.29l2.06-.65,3.04-.3c.63-.06,1.25.08,1.75.54.3.29.44.94.56,1.49.07.31.05.78.05,1.12.02,1.21.04,2.41-.24,3.6-.12.52-.47,1.11-.29,1.7-.12.2-.45.06-.43.03.26.54-.05.64-.13.8l-.49.99-1.46,2.42c-.11.03-.22.13-.25.24-.89.89-1.72,1.75-2.8,2.55l2.87-.31h2.62c1.56-.02,3.16.23,4.67.67l2.15.63c1.09.32,2.12.82,3.06,1.42l1.7,1.09,1.08.68c.58.36.57,1.23.53,1.88-1.88,2.1-3.93,4.12-6.54,5.23l-2.21.75c-1.4.47-2.97.71-4.46.45-.68-.12-1.54-.2-2.41-.15l-.51-.23c-.24-.11-.23.12-.36.25l-3.43,3.86-2.15,2.37-5.29,5.24c-1.95,1.93-4.25,3.41-6.74,4.28l-1.74.6-2.8.56c-.51.1-1.15.1-1.67,0l-3.13-.58-1.79-.69-2.28-1.2c-.11-.06-.23-.03-.3.08,0-.07-.04-.18-.17-.37-.53.27-.75.86-1.1,1.24-1.95,2.2-3.85,4.49-5.31,7.04l-2.27,3.95c-.36.63-.77,1.26-.4,2.26-.4-.05-.57-.03-.73.08-.11.07-.2.28-.29.46l-.84,1.77c-.18-.06-.22.08-.2.2-2.12,1.03-3.34-.77-4.9-1.94l-.6-.45-1.54-1.5-.64-.64-1.15-1.46c-.6-.76-.54-1.81-.21-2.51.03-.07.26-.11.32-.12.07,0,.1-.14.06-.21.68-.19,1.24-.61,1.84-.95l1.92-1.1.68-.31,4.21-2.7c1.81-1.16,6.67-5.36,6.63-5.73.34-.04.62-.32.88-.69l-.77-.99c-.13-.17-.35-.48-.47-.69-.76-1.35-1.62-2.91-1.92-4.54-.08-.42,0-.95-.31-1.3l.08-3.71c0-.41.15-.91.24-1.33.32-1.6.98-3.1,1.68-4.56.72-1.49,1.56-2.92,2.46-4.31,1.48-2.29,3.24-4.43,5.09-6.45l.24-.27,1.96-2.1,2.7-2.69-.19-1.42c-.11-.78-.24-1.57-.23-2.37l.02-1.43c.03-1.82.43-3.68,1.38-5.22l1.2-1.96.3-.62c.31-.15.71-.51.81-.82l1.76-1.68c.55-.54,1.69-1.54,2.54-.76,1.8,1.63,2.9,3.88,3.71,6Z"/>
    <path class="cls-2" d="M80.13,24.3h2.77c.57,0,1.21.17,1.8.24,1.8.22,3.5.84,5.18,1.48.61.23,1.32.03,1.93.05l2.23.07c.78.02,1.38.37,1.9.99.26.32.37.83.41,1.25.02.23.04.48.18.67l.03.15c-.48,1.49.13,2.96.6,4.39l.69,2.1c.51,1.54.79,3.13.92,4.74l.17,2-.09,2.05c-.31,2.51-.99,4.98-2.24,7.15-.62,1.08-1.28,2.1-2.04,3.11l-.55.73-1.49,1.38c-1-.35-1.95-1.07-3.42-1.69l-1.8-.76-2.77-.81-1.72-.33-1.89-.15c.09-.62.46-1.17.69-1.73l.97-2.33c.58-1.39.69-3.02.7-4.53,0-.83-.03-1.64-.24-2.43-.09-.34-.15-.66-.22-1.02l-.22-1.02c-.23-1.05-1.16-1.51-2.12-1.69-1.14-.22-2.35-.55-3.49-.29l-1.01.22c-1.95.2-3.79.97-5.48,1.86-.59.31-1.17.67-1.67,1.11-.21.19-.5.28-.9.47.15-.65-.31-1.21-.34-1.59-.05-.69-.21-1.44-.37-2.11-.53-2.2-1.32-4.27-2.41-6.42,1.02-.66,1.6-1.53,2.47-2.19,1.26-.96,2.53-1.89,3.9-2.53l2.15-1c1.5-.7,3.16-1.11,4.8-1.36.65-.1,1.37-.23,2.02-.23ZM78.85,28.51c-1.05-.15-2.11.4-3.09.7-.88.27-1.83.71-2.59,1.14-.36.2-1.07.44-1.35.79-.19.24-.69.46-.94.63-.55.39-1.51.97-1.86,1.54-.07.06-.3.11-.34.23-.03.1.08.25.1.43l.18,1.35c1.55-1.11,2.86-2.07,4.36-2.88l1.56-.85c.22-.12.66-.3.9-.37l2.09-.62c.77-.23,1.55-.38,2.33-.54l1.85-.37,4.45-.51c-.75-.33-1.43-.55-2.18-.67l-1.76-.29c-1.22-.2-2.49.04-3.72.3ZM93.58,38.25l-.21,1.95-.37,2.37c-.09.55-.14,1.08-.33,1.67l-.76,2.38-.11.36-.74,1.81-2.54,3.97,1.25.36c.07.12.16.24.28.27.71.16,2.54-2.45,3.35-4.11,1.27-2.59,1.17-4.53,1.4-5.13.12-.33.06-.75.07-1.08.03-1.59-.15-3.11-.45-4.61-.17-.82-.34-1.64-.74-2.57l-.1,2.36Z"/>
  </g>
</svg>