<?xml version="1.0" encoding="UTF-8"?>
<svg id="_レイヤー_1" data-name="レイヤー 1" xmlns="http://www.w3.org/2000/svg" viewBox="0 0 124 124">
  <defs>
    <style>
      .cls-1 {
        fill: #fff;
      }

      .cls-2 {
        fill: #666673;
      }
    </style>
  </defs>
  <circle class="cls-2" cx="62" cy="62" r="62"/>
  <g>
    <path class="cls-1" d="M60.39,94.39c-2.75.39-5.18-.61-7.62-1.38-2.03-.64-4.01-1.23-5.43-2.86-.72-.82-.95-2.79-2.53-5.4-3.38-5.55.67-9.58.82-10.48.54-3.27,2.74-6.12,6.21-6.36,1.87-1.99,4.63-2.79,7.24-2.09.72.46,1.34,1.06,2.17,1.21l3.31.6c2.5.45,4.13,2.3,4.69,4.78.24,1.08,1.18,1.73,1.83,2.54,1.28,1.61,1.73,3.86,1.34,5.96-.46,2.48-1.13,4.95-2.32,7.18-1.22,2.29-3.68,3.43-5.93,4.46-1.25.57-2.26,1.63-3.79,1.85Z"/>
    <path class="cls-1" d="M39.94,58.51c-2.75.39-5.18-.61-7.62-1.38-2.03-.64-4.01-1.23-5.43-2.86-.72-.82-.95-2.79-2.53-5.4-3.38-5.55.67-9.58.82-10.48.54-3.27,2.74-6.12,6.21-6.36,1.87-1.99,4.63-2.79,7.24-2.09.72.46,1.34,1.06,2.17,1.21l3.31.6c2.5.45,4.13,2.3,4.69,4.78.24,1.08,1.18,1.73,1.83,2.54,1.28,1.61,1.73,3.86,1.34,5.96-.46,2.48-1.13,4.95-2.32,7.18-1.22,2.29-3.68,3.43-5.93,4.46-1.25.57-2.26,1.63-3.79,1.85Z"/>
    <path class="cls-1" d="M93.92,92.26c-2.89,1.55-6.05,2.92-8.71.93l-3.18-2.37c-2.57-.02-5.1-2.2-5.18-4.83-.03-1.05.14-1.82-.62-2.72-1.64-1.96-1.51-4.7.07-6.72.38-3.56,1.67-6.84,5.07-7.66,1.36-.33,2.19-1.14,3.34-1.8,3.72-2.16,8.35-1.38,11.51,1.29,1.63,1.38,5.18,1.35,5.84,5.09.28,1.61.63,3.19,1.2,4.78.94,2.62.23,5.44-1.69,7.39-.72.73-1.14,1.46-1.34,2.5-.58,3-3.36,4.69-6.31,4.12Z"/>
    <path class="cls-1" d="M79.11,67.02c-2.71,1.2-4.39,3.59-4.79,6.68-2.98-.21-2.21-3.89-4.77-6.2-1.98-1.78-4.38-2.89-7.05-2.84-.78-.77-.95-1.82-1.45-2.7-1.28-2.24-1.09-4.79.74-6.68.82-.85,1.04-1.57,1.1-2.75.1-2,1.85-3.81,3.65-4.49,1.47-.55,2.87-.55,4.29-.93l3.02-1.55c2.09-.47,4.2.55,5.76,1.86,1.61,1.34,5.38-.81,6.89,6.3.17.82.92,1.53,1.35,2.18.61.93.43,1.89.62,2.86.31,1.56.52,3.06-.3,4.55-2.28.1-4.09,1.1-5.91,2.29l-3.18,1.4Z"/>
  </g>
</svg>