<?xml version="1.0" encoding="UTF-8"?>
<svg id="_レイヤー_1" data-name="レイヤー 1" xmlns="http://www.w3.org/2000/svg" viewBox="0 0 124 124">
  <defs>
    <style>
      .cls-1 {
        fill: #fff;
      }

      .cls-2 {
        fill: #ec5666;
      }
    </style>
  </defs>
  <circle class="cls-2" cx="62" cy="62" r="62"/>
  <path class="cls-1" d="M33.84,28.29h.49c.95-.02,1.87-.14,2.86.13l-2.87,1.13-2.22,1.28c-.63.36-1.07.73-1.08,1.42-.21-.07-.29.17-.21.3l-.96,1.96-1.15,2.62-2.44,5.91-1.65,4.51-1.14,2.46c-.09.18-.35.45-.48.6l-1.7,2.04c-.08.01-.35.09-.38.2l-.04.2c-.49.52-1.17.98-1.53,1.81l3.94,2.04c.8.41,1.59.9,2.49,1.12.14.04.34.1.46.16l2.57,1.24,2.33,1.01,4.97,2.22,1.73.75c-.04.18.15.29.29.2l4.97,2.52c.31.43.66.75,1.24,1.1.36-.87.85-1.37,1.5-1.91l-6.42-4.52-.78-.68-2.02-1.57c-.24-.19-.62-.51-.88-.75l-2.11-1.96c-.14-.13-.4-.35-.5-.51-.3-.49-1.22-1.22-1.29-1.92-.09-.9.03-1.5-.75-2.12-.17-.19-.39-.72-.47-.97-.18-.62-.25-1.82.05-2.49.34-.75.4-1.83.86-2.4l1.27-1.58c.82-.48,1.03-1,1.56-1.8l1.31-1.95,1.22-1.25.97-.99c.1-.1.36-.17.49-.29,1.22-1.02,2.5-2.22,4.25-2.55.63-.12,1.01-.68,1.45-.96,1.69-1.06,3.5-1.99,5.38-2.66.68-.24,1.45-.69,2.11-.78l3.17-.43c.64-.09,1.37.17,1.92-.22.03.61,1.24-.09,1.81,1.06-1.8.26-3.32.61-4.83,1.21l-1.04.41c-2.21.87-4.37,2.48-5.82,4.53-.41.58.49,1.3.96,1.24.57-.07,1.22-.23,1.34-.92.29.08.8.47,1.01.21l.41-.48c.16-.19.36.05.57.23.26.22.78-.28.77-.68.57,0,.69.3.96.51.27-.28.39-.39.5-.49.27-.23.77.26.88.16l.52-.5c.07-.07.33.08.48.42l1.4-.4c.27.52,1.08.44,1.66.45.1.05.16.4.16.47l-1.26.36-2.77.84-1.76.64-1.81.72c-.57.23-1.1.56-1.61.84-.69.37-1.74,1.08-2.13,1.67-.1.15-.37.39-.54.52l-3.89,3.11c-1.16.93-2.43,1.41-3.74,1.82l-2.04.64c-.48.15-.37.62-.55.75-.32.23-.66,1.24-.14,1.42.6.2,1.3.21,1.79.82,1.82,2.26,3.93,4.19,6.17,5.88.3.23.66.41.97.65l1.43,1.1,1.29,1.3c.81.82.63,2.21,1.34,2.14.21-.02.47-.11.56-.41l.54-1.84,1.21-2.46c.35-.72,1.42-2.15,2.39-1.76.83.47,1.52,1.31,2.6.42-.48-1.18-1.24-1.07-1.81-2.17-.32-.62-.32-1.31.1-1.84.46-.6.99-.82,1.72-.71,1.12.16,1.56,1.1,1.59,2.45l1.61-1.88c.28-.33.7-.56,1.14-.57.4,0,.79.37,1.15.66.46-.07.68-.51.74-.56.69-.18.97.14,1.46.29.65.6.78,1.56,1.82,2.05-.08-1.28.57-2.15,1.4-2.4,1.08-.33,2.01.42,2.16,1.37.33,2.24-2.07,1.94-2.15,2.76-.04.41.09.76.58.87.78.17,1.53-.08,1.75-.73.85-.33,1.69.38,2.25.98.16.18.36.54.47.76.63,1.26,1.38,2.62,1.68,4.09.09.44.89.7,1.02.42.39-.82.64-1.41,1.07-2,.4-.54.91-1.02,1.56-1.49l2.76-2,1.32-1.18c.41-.36.8-.68,1.21-1.06l1.53-1.45.93-1.08c.13-.15.45-.29.55-.51.31-.65,1.15-.87,1.94-.73.21-.86-.38-1.39-.6-1.82-.49-.93-1.6-.74-2.43-1.04-1.65-.59-3.17-1.54-4.62-2.54-.31-.21-.8-.53-1.04-.78-.43-.43-1-1.04-1.54-1.44-.26-.19-.57-.54-.83-.78-.66-.61-1.38-1.28-2.21-1.68l-2.43-1.17-.33-.1c-.67-.19-1.37-.64-2.04-.83l-2.68-.77-1.9-.7c.16-.22.61-.42.87-.4.53.04,1.18-.23,1.72-.35.2.16.72.42.88.28.11-.1.32-.42.57-.23.23.17.34.38.46.45.2.13.39-.02.34-.23.48-.16.77.34,1.16.46.11-.07.39-.43.5-.41.11.02.27.15.37.21.07.13.22.4.38.43.15.02.5-.48.64-.4.37.23.86.71,1.27.47l.31-.05c.18.69.79.89,1.32.94.36.03,1.3-.23,1.11-.91-.31-1.1-1.56-2-2.38-2.52l-.85-.74c-.46-.4-1-.55-1.43-.83-1.69-1.09-3.62-1.66-5.59-2.15-.5-.12-1.2.1-1.66-.58,2.32-.78,4.71-.77,6.85-.06l2.8.93,4.74,2.22c.56.87,1.59,1.36,2.61,1.32l2.42,1.72c.93.66,1.75,1.48,2.54,2.32.21.22.52.48.68.7.75.98,1.51,1.94,2.06,3.03l.27.53c.63.35,1.19.8,1.52,1.46l.98,1.95.44.99c.28.62.13,1.37.1,2.04-.03.82-.98,1.53-1.1,2.26-.19,1.2-.5,2.15-1.33,3.01l-1.15,1.18-1.07.99-3.45,2.93c-.07.05-.18.08-.22.18l-2.52,1.87-.37.38c-.25-.03-.39.09-.63.27l-3.35,2.45,1.46,2.06c.78-1.01,1.96-1.54,3.03-2.2.45-.28,1.09-.33,1.55-.92l2.61-1.1.24-.04,3.15-1.5,2.63-1.22,2.2-.85,5.6-2.64,4.02-2.15c-1.66-1.51-2.78-3.22-4.14-4.46l.07-.26c-.59-.72-.93-1.58-1.26-2.44l-1.94-5.1c-.41-1.08-.6-2.5-1.61-3.17l-.47-2.04-1.47-3.07-1.23-2.6c-.93-1.17-2.6-1.69-3.86-2.36-.31-.16-.59-.32-.93-.46l-1.05-.42c.12-.19.3-.22.52-.13l1.77-.04c1.25-.02,2.53.19,3.7.64,2.71,1.05,4.3,3.29,5.63,5.94.87,1.72,1.73,3.45,2.48,5.21l1.2,2.82c.8,1.87,1.66,3.71,3.08,5.2-.1.18.06.31.19.29,1.21,1.81,2.31,3.78,2.94,5.92-.13.36.07.77.07,1.1,0,1.87-1.02,3.35-2.64,4.35l-5.63,3.48c-.63.39-1.32.81-1.93,1.14l-2.51,1.37-5.91,3.06-1.94.9c-2.04.95-4.11,1.84-6.54,2.29l.27,1.99,3.65-1.26,2.4-.48,2.51-.46,4.95-.86,3.31-.51,2.6-.39c2.48-.37,4.95-1,7.56-1.22.06-3.03-.03-5.81,1.03-8.35l.98-2.37,2.66-6.45.33-.9.41-1.44c.16-.55.34-1.15.56-1.68.37-.88.43-1.96.97-2.73.33-.47.54-.79.45-1.41-.17-1.24-.46-2.49-.94-3.63-.3-.7-.45-1.44-.92-2.29.95.29,1.39.77,1.84,1.32l.81.98,1.28,2.04c.26.42.46,1.01.56,1.52l.31,1.61-.47,2.78-1.15,4.48-1.12,3.16-1.82,4.72c-.39,1.02-.46,2.13-.66,3.19l-.39,2.04c-.08.43-.18.84-.35,1.24-.03.09-.01.17,0,.26l-.52,1.23c-.92,2.5-2.97,4.92-5.32,5.51l-9.77,2.47c-.59.15-1.44.16-1.76.71-.91-.34-1.86.18-2.75.37l-5.22,1.16-2.55.53-2.07.1-1.96-.06-.67,2,2.91.02,1.65.22,1.63.13c1.35.11,2.59.49,3.83.76l2.04.44,3.07.55,1.8.42,6.96,1.57-1.02-2.21s.09-.19.03-.36c-.55-1.23-.72-2.55-.69-3.89v-2.64s3.48-.9,3.48-.9c-.53,2.44.23,4.33,1.04,6.23.68,1.6.88,3.33.99,5.28l-1.4,1.71c-.4.49-.95.58-1.56.63l-1.17.09-3.49-.44-4.95-.61-2.8-.4-2.21-.29-2.58-.34-2.78-.42-2.49-.44c-1.78-.31-3.49-.87-5.23-1.58-.51.65-1.01,1.03-1.67,1.44l2.12.78,2.46.82,2.2.72,1.57.59,1.35.46,2.44.78,2.22,1.04c.08.04.16.14.2.2.46.78,1.03,1.58,1.08,2.52.04.83-.26,1.78-.76,2.42l-.99,1.28c-.37.47-.77,1.01-1.22,1.45-.31.31-.52.65-.78,1.08l-1.18,2.11c-.38.42-1.05,1.05-1.26,1.65-.16.45-.55.67-.82,1-.45.55-1.08.96-1.76,1.17-1.89.59-3.95.98-6.1.34.32-.35.84-.57,1.17-.67.81-.25,1.82-.21,2.62-.88l1.16-.45c.67-.6.89-1.7,1.34-2.48l.59-1.03.63-1.43c.86-1.97,2.02-3.69,4.02-5.19l-5.38-1.73-2.12-.62-5.33-1.69c-1.1-.35-2.1-.92-3.12-1.4l-.5-.24-1.43-1.62-.61.15-2.48.55-3.08.33c-.98.1-1.94.16-2.95.12-.59-.03-1.18-.13-1.75-.2l-2.7-.32c-.69-.08-1.35-.37-2.06-.25-.56-1.12-1.25.9-2.8,1.51-.14.05-.2.12-.12.28l-2.56.95-2.08.79c-.25-.11-.54,0-.43.37-.16-.29-.31-.11-.42-.14-.19-.05-.52.01-.5.35-.54-.34-1.17.2-1.62.33l-3.3.96-2.5.73-2.09.69,1.27,1.19c.53.5,1.05.97,1.42,1.65l1.33,2.48,2.57,4.67c.59,1.06,2.27,1.21,3.27,1.5l2.09.61-.03.42c-.68-.1-1.54-.05-2.2.08-.05-.04-.13-.1-.2-.12-.17-.06-.34.09-.44.13l-2.69-.48c-.13-.02-.35-.09-.47,0-1.55-.44-2.56-1.6-3.48-3.01l-1.09-1.68-.95-1.44-.52-.83-2.03-2.26c-.19-.21-.44-.49-.56-.76-.39-.87-.72-1.84-.57-2.77.19-1.17.93-2.25,2.09-2.76l1.54-.69,4.05-1.27c.38-.12.76-.21.9-.46l6.99-2.25c-.65-.55-1.14-.81-1.64-1.44-1.83.69-3.49,1.21-5.25,1.5l-2.79.45-2.21.24-2.32.36-2.73.34-3.24.43-4.03.57-2.02.27-1.17.24-2.35-.09c-.14,0-.29-.15-.52-.15-.83-.64-1.81-1.4-1.98-2.49-.17-1.05-.04-2.07.26-3.05l.59-1.9c.29-.94.91-1.78,1.15-2.75.17-.67.27-1.56.14-2.22.03-.09.14-.27.11-.4l.05-.81,2.98.79c.21,1.26.29,2.39.2,3.54-.25.32-.13.93-.24,1.28l-.83,2.69c-.13.42-.7.81-.63,1.6l.99-.2,5.14-1.15,3.28-.69,1.35-.22,3-.61,4.95-.93,3.79-.36c.35-.03.92.24,1.33-.07l-.78-1.85h-1.3c-.81,0-1.64.06-2.43-.1l-2.82-.59-1.96-.36c.05-.18-.15-.22-.25-.2l-2.97-.6-2.45-.48-10.88-2.74-1.71-.55c-.87-.28-1.47-.88-2.15-1.57l-1.33-1.37c-.62-.64-.85-1.65-1.13-2.5-.55-1.66-1.08-3.35-1.28-5.1-.08-.68-.09-1.51-.41-2.11-.12-.22-.12-.7-.26-1.06l-1.86-4.55-.56-1.74-.87-2.74c-.39-1.23-.65-2.35-.79-3.51l-.22-1.81c-.24-1.99,1.21-4.54,2.59-6.2.15.06.27-.07.24-.22.42-.33.73-.81,1.22-1.04.18-.09.3-.39.61-.2-.49.68-.64,1.53-.94,2.26-.24.6-.55,1.15-.64,1.86-.09.75-.67,1.74-.23,2.49l.63,1.07.72,2.5,1.74,5.03.83,2.05,2.35,5.5c.41.96.6,1.98.71,3.03.18,1.7.29,3.43.4,5.28l3.55.59,2.43.36.85.27,4.3.6,1.07.12,6.26,1.07,1.9.44,3.14.61c.67.13,1.72.64,2.38.74.24.04.53.45,1.05.2-.08-.53-.07-1.1.21-1.65-.3-.32-.81-.27-1.2-.38l-2.22-.62c-.71-.2-1.43-.46-2.06-.88-.07,0-.14-.03-.2-.06l-5.69-2.67c-.59-.61-1.59-.97-2.35-1.36l-1.81-.91c.02-.2-.16-.27-.3-.23l-5.37-3.14-3.94-2.6-1.27-1.03c-.05-.43-.06-.9-.19-1.27-.14-.42-.48-.96-.5-1.4-.02-.61.07-1.42.36-2.02l1.67-3.43.74-.92.8-1.47,1.65-2.29c.06-.09.03-.14.03-.23l1.49-3.08.85-2.2,2.64-5.34c.34-.69.7-1.35,1.18-2.07l.88-1.33c.54-.27.93-.91,1.23-1.26l1.79-.79c.97-.43,1.97-.74,3.01-.76Z"/>
</svg>