<?xml version="1.0" encoding="UTF-8"?>
<svg id="_レイヤー_1" data-name="レイヤー 1" xmlns="http://www.w3.org/2000/svg" viewBox="0 0 124 124">
  <defs>
    <style>
      .cls-1 {
        fill: #fff;
      }

      .cls-2 {
        fill: #b4aaae;
      }
    </style>
  </defs>
  <circle class="cls-2" cx="62" cy="62" r="62"/>
  <g>
    <path class="cls-1" d="M56.9,79.72c-1.42-.25-2.27-1.3-3.84-1.84.57,1.54,2,2.41,3.27,3.14.76.44,1.58.62,2.66.91-3.94,3.76-7.93,7.15-12.13,10.47-2.97,2.35-5.59,2.56-8.72.17-.24-.19-.46-.12-.62.15.91,1.39,2.28,2.21,3.87,2.83-4.08,1.98-8.2,1.21-11.52,3.45l-4.1,2.77c-.42.28-.81.37-1.13.09-.45-.39-.42-.8-.08-1.3l2.93-4.29c.94-1.38,1.36-2.98,1.53-4.63.66-6.35,3.58-11.21,7.88-15.58l.89,2.44c.42,1.16,1.28,2.39,2.73,2.86-.54-1.37-1.22-2.35-1.5-3.49-.6-2.43-.14-4.55,1.58-6.43l19.93-21.79c.76,1.93,1.82,3.49,3.31,4.84.59.53,1.05,1.26,1.88,1.37.03-.84-.69-1.16-.99-1.63-1.86-2.89-3.64-5.42-1.08-7.82,1.87-1.75,3.63-3.41,5.71-4.85,5.55-3.86,11.7-1.56,15.53,3.88,3.62,5.15,1.35,10.76-2.99,15.16-6.4,6.48-12.87,12.67-19.8,18.57-1.43,1.22-3.67.8-5.22.53Z"/>
    <path class="cls-1" d="M95.99,39.25c-2.95.65-5.85-.54-8.74,3.77,1.88-.74,3.69-1.94,5.83-2.15,1.23-.12,2.27-.11,3.32-.4,1.79-.5,3.08-1.84,2.95-3.96,1.34-.44,2.53-.92,3.37-1.79.3-.04.55-.2.86-.21l.24,1.07c1.74-.28,3.17.54,3.55,2.07.34,1.37-.5,2.81-1.94,3.52l-2.32.55c.38.69.5,1.43.28,2-.93,2.37-3.87,1.38-6.63.23.18.51.21,1.08-.07,1.63-.57,1.14-2.28,1.21-3.92.26-2.35-1.36-3.37-1.66-6.12.16-.44-1.18-1.11-2.1-1.95-3.12l1.41-1.49,2.88-2.97,6.84-7.59-.28-.28-10.71,9.92-1.34,1.23c-.98-.87-1.98-1.45-3.15-1.98,1.31-1.61,1.78-3.53.75-5.2-1.05-1.7-1.78-3.58-.49-4.62.46-.37,1.15-.41,1.85-.27-1.06-2.48-2-5.28-.07-6.47.63-.39,1.54-.43,2.34.14.25-1.09.31-1.91.78-2.73.77-1.36,2.18-1.91,3.57-1.43,1.31.44,2.04,1.81,1.79,3.47l1.51.37c-1.08,1.07-1.9,2.27-2.21,3.62-.06.11-.29.45-.43.47-2.22-.05-3.69,1.4-3.92,3.46l-.44,3.78-1.95,4.79c1.84-1.12,3.23-3,3.36-5.29.13-2.3.1-4.63,1.98-5.31.6-.22,1.37,0,1.96.52l.51-1.7c.7-2.36,2.54-4.39,4.27-3.62.53.24,1.05.89,1.24,1.71,1.33-1.1,2.96-1.61,4.43-.71,1.59.97,1.37,3.21-.12,5.02.86.25,1.3.5,1.72,1.24.5,2.77-2.26,3.83-5.35,4.71.51.74.77,1.49.46,2.19-.3.67-1.1,1.25-1.86,1.41Z"/>
  </g>
</svg>