<?xml version="1.0" encoding="UTF-8"?>
<svg id="_レイヤー_1" data-name="レイヤー 1" xmlns="http://www.w3.org/2000/svg" viewBox="0 0 124 124">
  <defs>
    <style>
      .cls-1 {
        fill: #fff;
      }

      .cls-2 {
        fill: #ccb600;
      }
    </style>
  </defs>
  <circle class="cls-2" cx="62" cy="62" r="62"/>
  <g>
    <path class="cls-1" d="M66.12,43.62c2.74-5.93,4.21-11.06,4.99-14.83-1.47,3.09-4.5,8.33-10.12,14.16-7.94,8.24-22.78,19.19-48.5,24.86.28,2.3,1.82,9.38,10.26,12.7,2.22.88,6.25,1.42,11.17,1.12,18.26-13.68,27.54-27.93,32.2-38Z"/>
    <path class="cls-1" d="M84.35,25.82l-.43-.08c6.4,27.87-2.16,45.96-10.58,56.19-3.95,4.8-8.42,8.57-12.83,11.46-2.03,3.26-4.1,6.27-6.09,9,2.04,1.55,8.97,5.83,18.9,1.89,13.38-5.31,22.96-24.7,24.9-33.45,3.42-15.42-1.26-30.48-13.86-45.01Z"/>
    <path class="cls-1" d="M83.79,25.13c-.5-.56-1-1.15-1.53-1.71l-1.8.45,1.81-.48c.51.55,1.01,1.1,1.5,1.65,0,.03.01.06.02.09.01.01.01.08.02.1.04.15.04.5.1.52l.22.04.21.04,1.41.27,1.38.27,1.83.35c1.38.27,2.97-.71,3.24-2.1l.49-2.55c.27-1.38-.89-2.68-2.27-2.94l-23.22-4.46c-1.38-.27-2.86.52-3.13,1.91l-.49,2.55c-.27,1.38.77,2.87,2.16,3.13l6.18,1.19.85.16.92.18h.01s0,.03,0,.04l.08-.02.22.04-.32.03c-.03.28-.07.63-.11.97h0c-.03.29-.08.62-.12.96h0c-.04.26-.08.53-.12.82,0,.02,0,.04,0,.06-.05.3-.1.61-.16.93-.05.26-.09.52-.15.8-.11.57-.24,1.18-.39,1.82-.85,3.71-2.31,8.51-4.85,14.03-4.55,9.87-13.42,23.63-30.51,37.03-.45.35-.91.7-1.37,1.06-.44.34-.89.67-1.35,1.01-2.33,1.73-4.79,3.46-7.42,5.16.88,2.24,4.49,9.64,14.06,10.1,3.42.17,10.52-1.78,18.02-6.58.59-.38,1.19-.78,1.79-1.19.59-.41,1.19-.85,1.78-1.3,3.16-2.39,6.28-5.25,9.15-8.74,14.78-17.96,13.79-40.17,10.05-55.42l.82.16,1.09.21c-.08-.01-.08-.43-.12-.61Z"/>
  </g>
</svg>