<?xml version="1.0" encoding="UTF-8"?>
<svg id="_レイヤー_1" data-name="レイヤー 1" xmlns="http://www.w3.org/2000/svg" viewBox="0 0 124 124">
  <defs>
    <style>
      .cls-1 {
        fill: #fff;
      }

      .cls-2 {
        fill: #7ca74f;
      }
    </style>
  </defs>
  <circle class="cls-2" cx="62" cy="62" r="62"/>
  <path class="cls-1" d="M74.9,20.36c.19.7.27,1.4.15,2.14-.15.27-.75.59-.85.89-3.13.68-5.72,3.59-6.61,6.49l-.67,2.17c-.28.91-.39,1.89-.42,2.88-.05,1.43.14,2.82.89,4.11l-.05-3.88c-.01-.8.13-1.85.35-2.56l.23-.76c.41-.39,1.06-.64,1.54-.7l2.31-.29,2.37.07,2.38.49,2.68.96c.14.13.21.3.44.38.7.24,1.35.75,1.92,1.26.43.38.69.99,1.3,1.19.18.51.55.88.94,1.43-1.82.13-3.36.67-4.87,1.22-.91.33-1.69.69-2.41,1.3-1.03.87-2.3,1.66-2.62,3.35.93-.81,1.73-1.47,2.68-2.01.83-.47,1.71-.93,2.65-1.14l2.42-.55c.73-.17,1.58-.3,2.32-.2l2.63.35,2.3.67c1.71.5,4.35,2.53,5.53,4.34.7,1.06,1.45,2.02,1.81,3.19.32,1.03.67,2.08.86,3.15l.34,1.93.2,2.33-.08,2.68-.21,2.3-.42,2.54-.4,2.31-1.27,5.12c-.17.68-.4,1.39-.57,2.06l-.66,2.75c-.1.41-.46.83-.13,1.33-.56,0-.28.69-.36.95-.51,1.78-.72,3.45-1.02,5.1l-.41,2.32-.5,2.7-.52,2.62-1.34,4.58-.85,2.05-1.64,2.6c-.91,1.45-2.18,2.43-3.5,3.33-1.38.94-2.94,1.45-4.58,1.76-.94.18-1.96.26-2.91.09l-2.01-.35c-.27-.05-.71-.4-1.11-.34-.24.03-.5.36-.61.62-.11.25-.39.35-.54.48-.7.64-1.38,1.3-2.18,1.87-.19.13-.53.31-.74.44-.75.44-1.53.8-2.36,1.08-1.58.53-3.39.98-5.05.92l-.9-.24c-1.37-.02-2.52-.3-3.65-.71-.69-.25-1.4-.66-2.08-.99l-.94-.46-1.44-1.17-1.12-1.05c-.18-.17-.33-.41-.53-.77-.58-.02-1.04.2-1.5.37-.68.26-1.45.32-2.17.31l-2.36-.06c-.68-.02-1.54-.11-2.19-.45l-2.9-1.51-.63-.52-1.91-1.66-.28-.37c-1.2-1.59-2.42-3.48-3.01-5.41l-.71-2.34c-.49-1.64-.79-3.34-1.09-5.02l-.42-2.33-.43-2.5-.97-4.97-.61-2.44-.6-2.37-.62-2.41-1.14-4.91-.57-2.53-.32-2.33-.15-2.34-.11-2.42.17-2.7.37-2.15.87-2.81c.95-3.06,4.28-6.55,7.11-7.45l2.71-.86,2.11-.18c.89-.08,1.84-.16,2.7.06l2.66.67c.72.18,1.48.36,2.01.89.11.11.24.09.32.13,1,.51,1.78,1.3,2.78,2.15-.35-1.2-1.12-2.16-2.07-2.9-.25-.2-.66-.48-.92-.71-.7-.62-1.59-.93-2.44-1.26-1.43-.56-2.81-1.02-4.67-1.08l1.41-1.68c.15-.18.39-.45.61-.49.17-.03.92-1.12,2.4-1.95.25,0,.36-.08.52-.15l2.15-.9,2.6-.56c.78-.17,1.63-.19,2.43-.11l2.97.28c.72.07,1.45.33,2.06.72.14.18.23.58.23.81l-.04,2.31-.28,1.88c-.18,1.21-.52,2.31-.92,3.68.95-.86,1.32-1.95,1.68-3.02.28-.81.43-1.66.58-2.5l.43-2.38.53-2.66.75-2.2c.89-2.64,2.12-5.17,3.83-7.4.11-.15.27-.35.39-.47l1.94-1.97c.12-.12.32-.29.47-.38l2.69-1.66c2.01-1.24,4.61,1.48,5.42,4.51Z"/>
</svg>