<?xml version="1.0" encoding="UTF-8"?>
<svg id="_レイヤー_1" data-name="レイヤー 1" xmlns="http://www.w3.org/2000/svg" viewBox="0 0 124 124">
  <defs>
    <style>
      .cls-1 {
        fill: #fff;
      }

      .cls-2 {
        fill: #669945;
      }
    </style>
  </defs>
  <circle class="cls-2" cx="62" cy="62" r="62"/>
  <g>
    <path class="cls-1" d="M85.5,38.89c1.32,1.03,2.2,2.4,2.87,3.92.26.59.42,1.22.6,1.83.44,1.49.73,3.04.58,4.6l-.43,4.48-.34,1.98-.57,2.26-1.44,4.47-.89,2.46c-.06.16-.21.4-.28.55l-.82,1.76-.73,1.48c-1.17,2.36-2.56,4.61-4.19,6.81-.07.09-.06.19-.02.27-.34.15-.51.48-.72.74l-1.15,1.49-.97,1.16-4.38,4.49-.88.84c-1.12,1.07-2.4,1.95-3.64,2.88l-2.18,1.74s-.11.05-.18-.02l-4.83,2.78-4.12,1.93-4.09,1.52-2.3.7-2.78.66-2.1.38-3.86.48-2.85.05c-.56.01-1.12,0-1.67-.08l-2.63-.37-2.08-.68c-1.61-.52-2.97-1.68-3.62-3.27-.56-1.37-.58-2.94-.15-4.38.18-.6.55-1.32.95-1.82,1.15-1.45,2.63-2.67,4.31-3.7,9.55-5.86,17.75-12.93,20.19-24.26.66-3.09,1.07-6.1,1.56-9.23.6-3.82,1.61-7.51,3.82-10.69,2.32-3.34,6.33-5.29,10.33-4.4,1.16.31,1.88,1.78,2.63,2.46,3.65,3.3,6.03-.3,8.42-.34,1.82-.03,3.32,1.06,4.61,2.07ZM40.81,83.63c3.29-.99,5.64-3.04,8.25-4.94,6.44-5.12,10.65-12.11,12.43-20.08.82-3.65,1.38-7.17,1.93-10.88.47-3.14,2.12-5.77,4.28-8.04.05-.3-.58-.45-.9-.37-2.47.64-4.3,2.43-5.37,4.78-3.77,8.32-.7,19.28-11.73,31.58-2.71,3.02-5.79,5.3-8.9,7.97Z"/>
    <path class="cls-1" d="M71.12,13.99c.05.05.14.08.21.09,1.49.19,4.75,4.44,5.42,6.27l.65,1.77c.92,2.51,1.27,5.17,1.16,7.99.89.31,1.73.63,2.53,1,.14.06.31.25.45.33,1.71.94,3.07,2.28,4.09,3.93,0,.07-.03.19.02.28.03.06.07.12.16.13.08.35.52.74.34,1.22-1.8-1.11-3.6-2.3-5.7-2.12-2.09.19-4.34,2.38-5.57,1.7-1.9-1.06-2.57-4.26-6.79-4.01l-2.61.16c.66-.84,1.66-1.36,2.4-1.85l.25-.04c1.24-.67,2.64-1.08,4.06-1.2.74-.06,1.58.16,2.26-.29.12-.85.16-1.72.09-2.48-.2-2.11-.77-4.16-1.92-6.01-.68-1.09-1.31-2.11-2.32-2.79l-.76-.52c-.56-.38-.84-1.09-.94-1.68.24-1.23,1.25-2.22,2.51-1.88Z"/>
  </g>
</svg>