<?xml version="1.0" encoding="UTF-8"?>
<svg id="_レイヤー_1" data-name="レイヤー 1" xmlns="http://www.w3.org/2000/svg" viewBox="0 0 124 124">
  <defs>
    <style>
      .cls-1 {
        fill: #fff;
      }

      .cls-2 {
        fill: #669958;
      }
    </style>
  </defs>
  <circle class="cls-2" cx="62" cy="62" r="62"/>
  <g>
    <path class="cls-1" d="M64.69,24.59l4.43,4.08c-3.53,5.15-7.35,9.51-11.66,13.83-6.51,6.53-12.21,13.41-17.25,21.07l-4.53,7.6c-2.17,3.64-3.97,7.48-5.95,11.41-.27.53-.93.93-.63,1.7l2.38-4.09,5.54-8.71c6.81-10.7,14.92-20.43,24.13-29.35,2.37-2.3,4.42-4.56,6.4-7.14l3.53-4.59,8.01,6.79c-.47,1.08-1.29,1.68-2.04,2.49-3.27,3.51-6.14,7.15-8.89,11.12-4.51,6.51-9.43,12.53-14.78,18.21-4.79,5.08-9.76,10.15-15.15,14.66l-4.47,3.75.2.21,4.72-3.41c5.42-3.91,10.52-8.3,15.29-12.96,6.47-6.34,12.25-13.29,17.43-20.83,2.86-4.16,6.04-7.8,9.69-11.38,1.74,1.33,3.34,2.57,4.68,4.14-.04.56-.48,1.19-.77,1.44l-1.35,1.16c-1.47,1.27-3.01,2.47-3.95,4.07-.45-.06-.63.42-.83.71l-1.82,2.53c-1.75,2.43-4.41,6.62-5.87,7.69l-7.94,3.89c-1.76.86-2.97,2.39-3.33,4.18-.27,1.36-.14,2.73.36,3.99.08.21.19.38.14.6l-.16.61-4.23,3.88-2.96,2.51-2.32,1.91-2.97,2.06c-.62.45-1.39.81-1.91,1.38-.06,0-.14.05-.14.13l-1.5.77-1.68,1.25c-.15-.13-.39.02-.52.1l-3.62,2.33c0-.14-.15-.18-.25-.11l-.71.5c-2.05,1.14-4.13,2.28-6.05,3.66l-6.04,4.31c-.67.48-1.44.99-1.96,1.65-.09-.01-.2,0-.3.06-.1.05-.14.15-.17.24-.5.43-1.29.89-1.73,1.47-.87.2-2.07.04-3.15-.13-.19-.31-.34-.91-.86-1.13l.03-.22c-.6-.75-.76-1.82-.28-2.66l1.95-3.37c.1-.17.22-.49.34-.65.75-1.12,1.43-2.37,2-3.61.04-.09.11-.18.1-.32l-.02-.25c.28-.05.4-.34.54-.63l.63-1.29.59-1.41,2.01-4.51,1.03-2.38.68-1.77c.18-.47.48-1.16.63-1.62.05-.16.18-.42.25-.58l.84-1.93.72-1.87c.06-.15.25-.24.25-.56l.97-1.97.72-1.64c.11.05.25-.05.24-.13,0-.09-.02-.24.03-.34l1.73-3.34.44-.77,1.97-3.29c.13-.21.31-.45.44-.65l1.01-1.53c1.56-2.35,3.22-4.68,5.02-6.84,0-.09-.02-.21-.05-.23.64-.37,1.18-1.22,1.6-2.03.16.17.38-.02.34-.16l1.17-1.43.56-.67,1.63-1.84,4.63-4.71.98-1.03,3.38-3.53,1.61-1.8,2.25-2.82,2.65-4.32c.46-.75,1.1-1.42,1.87-1.57Z"/>
    <path class="cls-1" d="M87.88,50.49c.61.05,1.16.5,1.62,1.02l1.45,1.64,2.29,2.73,4.01,4.76c.53.63,1.2,1.44,1.89,1.5l.33.18,1.85.8.3.17c.2.12.42.25.68.25.01.09.06.19.18.21l.33.05,2.38,1.13.31.08c.41.11,1.14.59,1.64.69-.05.19.15.28.29.22.74.38,1.52.86,2.32,1.01.04.18.24.29.43.18.06.3.44.2.59.23.25.48.66.83,1.14,1.07-.05.32.02.64.26.89l.04.26c.09.62-.08,1.34-.3,1.91-.05.12-.17.31-.24.42l-.93,1.43c-.18.28-.43.53-.53.85l-.04.12-1.86,3.2-.97,1.71-.45.71-.99,1.63c-.21.35-.71.87-.76,1.38l-.66,7.41-.17,1.64-.04.5-.11,1.38c-.05.6-.13,1.15-.12,1.75,0,.14.04.34,0,.48-.07.2-.19.28-.21.53-.07,1.03-.93,2.03-1.94,2.13l-.54.05c-.56.05-1.17.1-1.65-.1l-.48-.2-1.46-.25-.47-.23-1.94-.42-2.13-.48-1.64-.4-.57-.17-1.62-.27c-.56-.09-1.28-.65-2.01-.49l-3.2.7-1.14.3c-.28.07-.48.11-.8.18l-1.12.27c-.06.01-.16.03-.23.05l-4.17.99c-.67.16-1.34.28-2,.48-.55.16-1.23.16-1.78.05-.15-.03-.35-.04-.47-.11-.55-.31-1.14-.85-1.42-1.37-.13-.25-.26-.74-.28-1.04l-.15-1.84c-.01-.15.08-.31-.09-.5.1-.25,0-.49,0-.72l-.03-.79-.95-9.37c-.24-1.18-1.3-2.17-1.76-3.16-.28-.6-.64-1.18-1.15-1.63.05-.94-.94-1.78-1.38-2.61l-.56-1.07c-.16-.31-.3-.73-.62-.94l-.06-.33c-.02-.1-.13-.15-.21-.17l-1.05-1.64c.06-.08.08-.15.02-.28-.65-1.24-.18-2.98,1.21-3.64l12.43-5.97,6.99-7.95c.12-.14.09-.34.1-.44,1.26-.72,1.56-2.31,3.19-2.69.36-.08.84-.04,1.21,0ZM89.42,71.09c1.51-1.42,2.83-3.01,3.73-4.94.39-.83.1-1.74-.46-2.4l-4.63-5.49c-.2-.23-.56-.43-.8-.45-.24-.02-.51.34-.69.55l-4.34,5.05c-.97,1.13-1.06,2.35-.27,3.59,1.05,1.63,2.06,3.34,3.71,4.46,1.28.87,2.68.63,3.74-.37ZM75.34,79.18c3.49-.37,8.57-2.34,7.39-5.54-.77-2.09-2.14-3.85-3.68-5.42-.68-.7-1.63-.83-2.55-.42l-6.48,2.92c-.28.13-.5.48-.46.64l.16.63,2.99,5.25c.53.94,1.3,2.08,2.62,1.94ZM101.74,77.51l3.31-5.56c.23-.38.06-1-.34-1.18l-6.43-2.95c-.77-.35-1.81-.35-2.45.27-1.57,1.53-2.92,3.29-3.77,5.32-1.43,3.4,3.94,5.58,7.64,5.75.93.04,1.6-.9,2.05-1.65ZM76.78,92.4c2.7-.63,5.4-1.05,7.98-2.1,1.63-.67,2.28-10.66-2.23-10.05-2.07.28-4,1.08-5.84,1.97-.91.44-1.41,1.23-1.31,2.28l.67,7.47c.02.2.54.48.73.43ZM98.8,91.37l.51-6.87c.07-.97-.24-1.68-1.1-2.17-1.76-1-3.73-1.68-5.73-2.04-1.93-.35-3.17.94-3.53,2.67-.54,2.63-.45,7.19,1.66,7.7l7.13,1.72c.66.16,1.02-.36,1.07-1.02Z"/>
    <path class="cls-1" d="M92.93,14.03l.14.22c.04.07.2.01.24-.02.44.58,1.15,1.09,1.37,1.82.15.52.09,1.14.03,1.67l-3.47,4.5-.49.51-1.26,1.58c-1.05,1.32-2.25,2.8-2.54,4.67-.32,2.06-.12,4.01.37,5.82l.12,1.39.17.51c.42,1.31-.24,2.69-.22,4.03-.07.01-.16.01-.24.05-.88-.54-1.65-1.28-2.5-2.02l-11.27-9.71-6.77-5.97c.42-.37.73-.5,1.06-.57.18-.04.45.05.5-.22l.21-.03c.25-.04.54-.12.77-.14l1.61-.11c.09,0,.17,0,.25,0l1.46.07c.46.02.91.26,1.45.14l.44.08c.81.14,1.66.06,2.48-.01.8-.07,1.51-.25,2.22-.55,1.48-.63,2.65-1.76,3.83-3.05l4.25-4.61c-.04-.1.03-.18.07-.21.62-.58,1.28-1.22,2.12-1.44,1.41-.49,2.69.73,3.62,1.57Z"/>
    <path class="cls-1" d="M87.28,69.68c-2.43-1.3-3.75-5.47-1.44-6.87.99-.6,2.34-.55,3.3.25.87.73,1.18,2.07.66,3.37-.44,1.11-1.13,2.94-2.52,3.24Z"/>
    <path class="cls-1" d="M80.85,74.79c-2.11,1.6-5.64,1.98-6.83,0-.53-.88-.42-1.82-.01-2.7.67-1.44,2.31-1.96,3.76-1.13,1.37.8,2.51,2.02,3.09,3.82Z"/>
    <path class="cls-1" d="M95.55,88.75c-1.45,1.03-3.41.21-4.02-1.42-.57-1.53-.68-3.23-.06-4.73,1.87-.11,3.48.77,4.68,2.06,1.14,1.22.91,3.02-.6,4.09Z"/>
    <path class="cls-1" d="M94.59,75.39c-1.47-.6.42-3.2,2.2-4.4,1.02-.68,2.21-.59,3.12.09.9.67,1.38,1.74,1.07,2.95-.61,2.36-3.63,2.49-6.39,1.35Z"/>
    <path class="cls-1" d="M83.12,87.38c-.75,1.79-2.52,2.24-4.08,1.28-1.3-.8-1.74-2.74-.44-4.13.94-1.02,2.91-2.14,4.45-1.91,1.13,1.09.64,3.41.08,4.76Z"/>
  </g>
</svg>