<?xml version="1.0" encoding="UTF-8"?>
<svg id="_レイヤー_1" data-name="レイヤー 1" xmlns="http://www.w3.org/2000/svg" viewBox="0 0 124 124">
  <defs>
    <style>
      .cls-1 {
        fill: #848259;
      }

      .cls-2 {
        fill: #fff;
      }
    </style>
  </defs>
  <circle class="cls-1" cx="62" cy="62" r="62"/>
  <g>
    <path class="cls-2" d="M60.61,59.33c.02-.86-.63-1.31-1.04-1.34-.8-.07-1.21.55-1.27,1.41-.78,11.33-.11,22.56,1.53,33.9-1.1.08-1.72-.7-2.15-1.56-3.53-7.17-5.93-14.63-7.02-22.66-1.09-7.98-.28-15.69,2.22-23.25.21-.64.01-1.3-.43-1.56-2.24-1.27-4.2,8.24-4.78,12.44-1.34,12.37,1.17,22.46,6.3,33.83-13.22-9.28-18.25-26.5-12.53-41.39,2.07-5.4,5.68-9.88,10.51-13,1.87-.61.9-2.35,2.95-4.06.99-.83,2.3-.38,3.27-.18,1.1-.96,2.16-2.1,3.69-2.09,1.56.01,3,.73,4,2.33,1.49-1.01,3.05-.6,4.03.65.58.74.83,1.57.99,2.63,5.02,2.92,9.05,7.26,11.32,12.82,6.19,15.17.79,33.09-12.86,42.54,5.38-12.2,8.97-25.2,5.71-38.27-.11-.75-.66-1.31-1.27-1.28-.92.05-1.28.75-1.11,1.71,1.16,6.53,1.18,12.92-.24,19.39-1.52,6.94-3.81,13.48-7.09,19.69-.55,1.05-1.82,1.44-2.71,1.41-1.41-11.45-2.36-22.73-2.03-34.11Z"/>
    <path class="cls-2" d="M18.35,68.1c-.31-.65-.82-.86-1.34-.64-.34.15-.58.7-.46,1.29,4.67,12.6,15.72,20.4,28.55,24.71-8.35,2.03-17.1-.42-23.76-5.99-7.43-6.22-11.62-16.38-8.85-25.75-.9-.88-.88-1.84-1-2.76-.13-1.01,1.31-1.52,1.55-2.22.43-1.26.11-2.44,1.16-3.37.81-.72,2.01-1,3.35-1.05.43-.74.95-1.73,1.8-1.88,1.02-.18,2.1.06,3.04.73,4.8-1.66,9.85-1.77,14.71-.12-.65,2.17-1.02,4.17-1.26,6.41-2.51-1.48-6.75-3.31-7.44-2.1-.92,1.64,4.2,2.32,7.31,4.94-.16,11.66,4.42,23.33,13.62,30.95-.65.56-1.26.31-1.88.12-12.61-3.99-23.26-10.98-29.11-23.29Z"/>
    <path class="cls-2" d="M92.35,83.79c-5,3.41-10.13,5.9-15.79,7.66-.87.27-1.62.49-2.13-.39,8.24-4.29,16.17-9.58,22.06-16.47.47-.55.43-1.12.11-1.52-.41-.51-1.03-.53-1.56.02-4.2,4.29-8.81,7.92-14.15,11.16,4.8-7.25,7.4-15.42,7.4-23.95,2.93-2.46,7.61-3.2,7.44-4.56-.24-1.9-4.67.1-7.57,1.74-.25-2.27-.7-4.23-1.24-6.4,4.82-1.58,9.92-1.62,14.69.15,1.01-.87,1.99-1.01,3.07-.84.85.14,1.4,1.2,1.83,1.87,1.23.21,2.53.31,3.25,1.15.83.95.96,2.11,1.04,3.42.57.51,1.5,1.15,1.65,1.78.25,1.11-.26,2.19-.87,3.08,3.22,12.07-3.79,23.91-14.61,29.46-5.58,2.86-11.97,3.81-18.02,2.25,12.63-4.11,24.03-12.2,28.53-24.66.19-.52-.04-.88-.31-1.14-.28-.27-1.03-.41-1.3.17-3.07,6.47-7.48,11.89-13.53,16.01Z"/>
  </g>
</svg>