<?xml version="1.0" encoding="UTF-8"?>
<svg id="_レイヤー_1" data-name="レイヤー 1" xmlns="http://www.w3.org/2000/svg" xmlns:xlink="http://www.w3.org/1999/xlink" viewBox="0 0 124 124">
  <defs>
    <style>
      .cls-1 {
        fill: #fff;
      }

      .cls-2 {
        fill: url(#_名称未設定グラデーション_785);
      }
    </style>
    <linearGradient id="_名称未設定グラデーション_785" data-name="名称未設定グラデーション 785" x1="18.16" y1="105.84" x2="105.84" y2="18.16" gradientUnits="userSpaceOnUse">
      <stop offset="0" stop-color="#6e3a18"/>
      <stop offset="1" stop-color="#b49a7d"/>
    </linearGradient>
  </defs>
  <circle class="cls-2" cx="62" cy="62" r="62"/>
  <g>
    <path class="cls-1" d="M59.53,21.73l.51-.02,2.03-.02,2.24.04,2.94.27,2.27.33,2.1.43,1.88.47c1.32.33,2.6.8,3.85,1.32l1.85.76.92.48,1.13.52c1.34.61,2.62,1.41,3.81,2.29l1.14.85.91.63c1.22.84,2.3,1.9,3.38,2.93l.29.28c1.23,1.18,2.32,2.48,3.34,3.75l.6.76.7.98c.39.55.71,1.21,1.26,1.69-.05.01-.09.1-.05.17l1.29,2.28.34.75,1.25,3.24.47,1.6c.66,2.23.61,5.38-1.03,7.14-1.19,1.27-2.81,2.05-4.46,2.26l-1.84.22c-.49.06-1.04.06-1.53.02l-1.7-.11-2.06-.26-3.79-.72-2.34-.51-1.62-.32-4.03-.83-1.64-.26c-.71-.11-1.42-.21-2.14-.3l-2.03-.23-1.93-.17-1.44-.13-2.51-.1c-.7-.03-1.39-.01-2.09,0l-1.72.03-1.59.04-2.37.17-1.85.18-2.11.22-1.88.3c-1.19.19-2.4.35-3.58.61l-2.28.5-2.1.45c-.54.11-1.13.25-1.67.34l-4.37.8-1.66.22c-.51.07-1.07.13-1.58.12l-1.87-.04c-1.29-.03-2.59-.38-3.8-.86-.66-.27-1.24-.74-1.82-1.13-.21-.14-.36-.5-.64-.59l-.74-1.28c-.55-1.38-.67-2.82-.41-4.37.32-1.89.77-3.69,1.59-5.31l1.7-3.33c2.54-4.47,6.11-8.34,10.21-11.45.08,0,.11-.07.15-.1l1.58-1.14,1.86-1.17c.01-.07.1-.09.22-.14l1.67-.91c1.22-.67,2.48-1.3,3.79-1.75l3.48-1.19,2.13-.56,2.1-.49,2.08-.3,1.3-.17,1.9-.16Z"/>
    <path class="cls-1" d="M59.95,57.12l2.02-.02,1.95.02,2.04.1,1.76.11,2,.19,1.69.22,2.12.3,1.89.31,1.9.46.55,1.31.85,2.33.13.28.59,1.55.63,1.73.73,2.11c.01.06,0,.16.13.15-.02.48.27.93.39,1.36l.65,2.21.98,3.59.47,2.25.35,1.95.22,2.01.11,1.77v1.83s-.12,1.52-.12,1.52l-.28,2.1-.48,1.95c-.03.12-.09.19-.03.33l-.79,1.74-.98,1.86-.52.74c-.76,1.09-1.7,2.13-2.81,2.88l-1.19.79c-1.04.69-2.19,1.19-3.34,1.66-.68.28-1.41.4-2.07.58-.6.17-1.24.4-1.89.47l-4.03.43-1.62.06h-2.6s-1.64,0-1.64,0c-3.15,0-6.33-.37-9.25-1.54l-1.53-.61-2.34-1.35c-.14-.08-.35-.26-.46-.36l-1.32-1.13-.92-.93-.86-1.16-.29-.35c-.82-1.28-1.58-2.64-1.92-4.13l-.49-2.13-.25-1.5-.15-1.85v-1.93s.15-1.86.15-1.86l.21-2.1.31-1.83.86-3.64.5-1.87.73-2.29,1.16-3.4.91-2.55c.06-.17.15-.42.22-.6l.44-1.16.72-1.91c.14-.36.34-.92.52-1.27l2.11-.46,1.83-.35,1.73-.24,1.91-.27,2.28-.21c.32-.03.71-.05,1.03-.07l2.4-.12Z"/>
  </g>
</svg>