<?xml version="1.0" encoding="UTF-8"?>
<svg id="_レイヤー_1" data-name="レイヤー 1" xmlns="http://www.w3.org/2000/svg" viewBox="0 0 124 124">
  <defs>
    <style>
      .cls-1 {
        fill: #fff;
      }

      .cls-2 {
        fill: #e399b8;
      }
    </style>
  </defs>
  <circle class="cls-2" cx="62" cy="62" r="62"/>
  <g>
    <path class="cls-1" d="M19.48,26.71l2.53.17,2.5.25.2.02,2.59.53,2.48.51,2.34.66,2.73.84c.09.03.21.07.28.11l2.25,1.03,2.79,1.5c.02.06.08.17.15.16.07,0,.23.02.3.07l2.45,1.85c.58.44,1.34.88,1.76,1.32l1.84,1.89,1.33,1.54c.19.22.51.59.69.81l1.61,2.06,3.01-1.04c1.5-.52,3.04-.98,4.61-1.13l3.8-.36,1.72-.09,3.09.17,1.71.18c1.87.19,3.74.61,5.52,1.22l2.61.9.27.12c.72-.62,1.12-1.43,1.68-2.09,1.02-1.21,2-2.46,3.18-3.51l1.7-1.5c.26-.23.74-.57,1.04-.79,1.7-1.25,3.62-2.45,5.5-3.3,1.56-.71,3.11-1.4,4.77-1.85l3.14-.85,4.7-.9,3.35-.36,1.75-.14c1.58-.12,3.47,1.3,3.33,3v.9s-.65,1.46-.65,1.46l-.4.82.2.31c.04.06-.49.27-.44.35.09.16.28.67.22.86-.04.12-.27.22-.56.18-.48.86-.66,1.88-.95,2.74-.34,1.02-.55,2.05-.66,3.09l-.15,1.41-.32,5.96c-.04.72.27,1.59-.14,2.12-.66.84-.51,1.96-.85,2.87-.36.96-.65,1.97-1.17,2.8l-.07.49-1.29,1.92-1.79,2.11c-.16.19-.49.51-.7.66l-1.23.9-2.51,1.45c-.15.08-.37.17-.51.22l-1.58.61.46,2.01.36,2.51c-.06,1.77.82,3.14,1.52,4.7.66,1.48,1.27,3.06,1.52,4.63l.56,3.53.14,2.59-.13,2.7c-.09,1.74-.42,3.5-1.09,5.11l-1.05,2.52c-1.85,3.73-4.78,6.88-8.33,9.06l-1.68,1.03-.84.48-2.54,1.23c-1.67.81-3.45,1.4-5.24,1.89l-2.55.71-5.09.98-2.96.33-2.33.18-2.49.04-2.57-.08-2.72-.2c-1.64-.12-3.27-.35-4.87-.69l-2.72-.56-2.58-.72c-1.92-.53-3.77-1.26-5.56-2.09-1.63-.76-3.24-1.61-4.73-2.62-2.6-1.77-5.09-3.8-6.77-6.45l-1.17-1.85c-.11-.17-.03-.61-.4-.69-.96-2.34-1.89-4.7-2.04-7.24-.27-.23-.1-.34-.11-.55l-.1-2.57.15-2.5c.11-1.82.46-3.61,1.01-5.34l.53-1.69,1.5-3.38c.39-.88.42-1.69.56-2.52l.47-2.81.34-1.76c-1.64-.59-3.07-1.21-4.36-2.08-1.41-.96-2.65-2.23-3.7-3.58-1.26-1.62-2.13-3.52-2.78-5.46-.23-.7-.45-1.52-.55-2.27l-.34-2.54-.28-5.01-.24-2.48-.71-3.07c-.42-1.81-1.01-3.68-1.45-2.85.13-.96-.16-1.69-.57-2.51-.3-.6-.73-1.57-.67-2.22.17-1.87,1.68-3.21,3.48-3.08ZM102.13,33.85c-.8.29-1.61.56-2.32.97-.1,0-.13,0-.22.04-.99.37-1.89.91-2.81,1.38l-1.2.61-1.07.78c-1.87,1.36-3.72,2.86-5.06,4.76v.24c-.84.64-1.3,1.62-1.82,2.51-.4.69-.98,1.8-1.14,2.56-.04.17-.4.42-.28.64.47.83,2.02,2.08,3.51,4.15l1.72,2.4.48.9,1.14,2.26c.21.42.31.9.65,1.37,1.43-.53,2.58-1.03,3.61-1.8.69-.52,1.36-1.08,1.86-1.78l.71-.99c.42-.58.72-1.18,1-1.82.39-.87.77-1.82.91-2.8l.47-3.14.31-5.2c.15-2.52.66-5.02,1.52-7.38.14-.4.36-.78.07-1.4l-2.05.74ZM22.95,34.83l.64,2.49.71,3.2.19,4.68c.05.84.11,1.67.2,2.5.09.85.18,1.7.38,2.53.22.91.44,1.79.88,2.61.39.73.59,1.69,1.32,2.2,0,.06,0,.2.04.26.65,1.09,1.61,2.04,2.72,2.61l.78.4c.78.4,1.54.83,2.48,1.07.1-.29.05-.43.05-.55.15.04.2-.1.16-.21,1.4-3.13,3.2-5.97,5.46-8.32l1.26-1.3c.08-.08.24-.22.48-.38-.24-1.27-.87-2.42-1.46-3.5-.38-.7-.79-1.39-1.27-2.03l-.96-1.26c-.53-.7-1.12-1.47-1.91-1.96.04-.2-.08-.13-.11-.22-.05-.11-.32-.27-.42-.33l-1.97-1.53c-2.33-1.81-5.26-3.1-8.06-3.99-.46-.15-1.21-.79-1.79-.43-.48.3.11,1.1.2,1.47ZM40.18,61.59c-.92.29-2.03.69-2.2,1.83,1.07.57,2.08.33,3.01.22.28-.01.58-.08,1.03.06-1.3,1.4-2.1,2.94-1.89,4.75.11.98.3,1.87,1.02,2.58.46.46.9.79,1.56,1.02,1.74.59,3.69-.29,4.62-2.13.06-.11.48.03.59.07.1.9.46,1.97,1.39,2.51,1.12-1.24.91-2.77.69-4.1-.16-.97-.44-1.88-.86-2.75-.31-.65-.62-1.25-1.1-1.82-1.23-1.47-3.17-2.37-5.07-2.5-.97-.07-1.88-.02-2.79.27ZM76.88,68.66c-.15.82-.08,1.82.07,2.59.07.37.3,1.2.8,1.12.54-.08.66-.83.82-1.15.27-.56.56-1.49.54-2.08.53.87,1.12,1.88,2,2.39l.3.18c.87.51,1.86.57,2.77.35.69-.17,1.1-.55,1.57-1.01.72-.69.99-1.6,1.03-2.6.04-.89.04-1.73-.36-2.56-.38-.8-.87-1.49-1.59-2.21l3.73.03c-.05-.4,0-.59.28-.86-.73-.82-1.6-1.21-2.49-1.41-.72-.17-1.46-.14-2.2-.13-2.09.03-4.19,1.06-5.54,2.83-1.07,1.39-1.43,2.96-1.72,4.52ZM60.7,71.24l-2.56.55c-1.86.4-3.62,1.26-5.1,2.41-.75.58-1.69,1.01-2.24,1.83-.19-.07-.3.08-.27.25-.85.56-1.46,1.48-2.1,2.26-1.34,1.62-2.31,3.53-2.93,5.55-.53,1.73-.96,3.5-.78,5.33.04.41-.15.92.18,1.31.14.16.06.51.1.68.52,2.41,2.08,4.39,4,5.88.53.41,1.14.72,1.68,1.07.74.5,1.54.82,2.38,1.14l1.3.5,1,.31c.92.28,1.85.59,2.81.7l2.72.32c.86.1,1.71.06,2.55.08.84.02,1.68.03,2.53-.06l2.56-.29,2.72-.58,2.37-.78c.13,0,.19-.04.17-.18.72-.11,1.36-.48,2.01-.79.75-.36,1.49-.89,2.12-1.46.09-.08.33-.18.39-.29.99-.7,1.76-1.72,2.38-2.72.49-.78.93-1.62,1.13-2.57.02-.08-.02-.16-.03-.21.44-.87.43-1.85.38-2.8-.04-.68.15-1.43-.16-2.07-.06-.13-.12-.32-.13-.47-.04-.78-.29-1.51-.54-2.25-.36-1.05-.8-2.23-1.41-3.09-.08,0-.11-.1-.07-.18l-1.21-1.88c-1.31-1.95-3.15-3.48-5.12-4.74-1.49-.95-3.08-1.74-4.81-2.23-.89-.25-1.8-.44-2.72-.55-.86-.1-1.7-.17-2.57-.17-.91,0-1.83,0-2.72.2Z"/>
    <path class="cls-1" d="M63.45,74.27l2.75.24,2.31.51,2.75,1.21c.16.07.34.2.47.3l1.83,1.31c.36.26.72.97,1.25.93.18.65.76,1.18,1.31,1.55-.03.52.49.87.69,1.26l1.18,2.35c.83,1.66,1.14,3.58.94,5.44,0,.07.02.19.04.24l-.47,1.73c-.27,1.08-1.05,1.94-1.75,2.81l-.66.49-2.29,1.53c-.52.09-1.01.41-1.49.58l-1.08.4-2.73.61-2.74.3-2.31.11-2.53-.16-2.76-.32-2.84-.7-1.16-.31c-.14-.04-.33-.14-.47-.23l-2.84-1.78c-1.93-1.54-3-3.76-2.89-6.1l.06-1.37c.09-2.11,1.02-4.15,2.24-5.88l.32-.45,1.77-2.05,1.01-.96,2.01-1.39c.16-.11.38-.33.55-.4l2.27-.95,2.95-.69,2.32-.16ZM53.86,86.39c-.3.93-.45,1.82-.28,2.8.17.97.82,1.94,1.95,2.02,1.21.08,2.37-.6,2.89-1.71.05-.11.07-.21.12-.27.61-.73.65-1.59.81-2.4.18-.9.22-1.8-.03-2.7-.14-.5-.37-.96-.9-1.33-1.66-1.15-3.73.94-4.57,3.58ZM68.19,83.05c-.28.27-.42.51-.55.83-.29.74-.27,1.58-.18,2.47.09.92.26,1.82.73,2.61-.09.24-.05.45.27.44.33,1.11,1.54,1.9,2.71,1.84,1.2-.06,1.97-.85,2.16-2.01.16-.99.02-1.77-.23-2.61-.34-1.15-.86-2.16-1.73-3.12-.88-.97-2.16-1.41-3.18-.45Z"/>
  </g>
</svg>