<?xml version="1.0" encoding="UTF-8"?>
<svg id="_レイヤー_1" data-name="レイヤー 1" xmlns="http://www.w3.org/2000/svg" viewBox="0 0 124 124">
  <defs>
    <style>
      .cls-1 {
        fill: #fff;
      }

      .cls-2 {
        fill: #cc9956;
      }
    </style>
  </defs>
  <circle class="cls-2" cx="62" cy="62" r="62"/>
  <path class="cls-1" d="M82.59,102.21c-3.13-2.77-3.74-6.87-1.9-10.45l-11.33-11.34c-3.54,1.83-6.64.63-9.62-1.68-2.83-2.19-5.81-3.89-9.27-4.83-4.11-1.12-8.02-2.38-11.89-4.14-12.54-5.69-23.28-18.08-18.12-32.27,2.89-7.94,9.18-14.1,17.13-16.95,5.6-2.01,11.5-1.93,16.97.51,5.57,2.48,10.11,6.67,13.22,11.9,2.3,3.87,4.03,7.72,5.12,12.02l1.31,5.2c1.03,4.1,2.68,7.84,5.26,11.18,2,2.58,1.89,5.75.82,8.42l11.24,11.22c2.93-1.02,6.28-1.02,8.89,1.01,2.46,1.91,3.87,4.93,3.4,8.24-.52,3.64-3.16,6.36-6.77,7.24-.69,3.06-2.92,5.51-5.88,6.48-2.96.97-6.21.31-8.57-1.74ZM92.55,94.86c-.04-1.33,1.46-2.07,2.52-1.96,1.62.17,2.85-.61,3.65-1.91,1.07-1.75.62-3.89-.99-5.2-1.49-1.21-3.58-1.22-5.25.09-.71.56-2.04.6-2.75-.1l-13.05-12.97-3.08,1.1c-.45.9-.55,2.12-1.14,3.1l13,13.04c.81.81.57,2.23-.11,2.98-1.67,1.85-1.35,4.45.59,5.94,1.39,1.07,3.26,1.11,4.7.19,1.42-.91,1.96-2.38,1.91-4.29Z"/>
</svg>