<?xml version="1.0" encoding="UTF-8"?>
<svg id="_レイヤー_1" data-name="レイヤー 1" xmlns="http://www.w3.org/2000/svg" viewBox="0 0 124 124">
  <defs>
    <style>
      .cls-1 {
        fill: #cc7ea9;
      }

      .cls-2 {
        fill: #fff;
      }
    </style>
  </defs>
  <circle class="cls-1" cx="62" cy="62" r="62"/>
  <g>
    <path class="cls-2" d="M96.32,64.93c-1.91,1.24-3.87,2.29-6.02,3.18,2.23.05,4.14-.82,5.94-1.68,2.67-1.27,4.79-3.35,6.75-5.85,1.45,3.93,1.3,7.86.65,11.72-.68,4.03-5.64,5.61-9.47,5.63l-4.87.03c1.86.99,3.91,1.23,6.07,1.17l2.91-.08,3.73-.94c-1.53,5.71-6.01,13.79-11.67,11.9l-1.11-.22c-1.63-.32-3.11-.99-4.49-1.83-.79-.48-1.48-.85-2.32-1.66.21,1.22,1.13,1.59,1.67,2.24.58.7,2.5,2.01,3.58,2.44,1.32.52,2.64.94,4.32,1.4-3.43,3.59-10.63,7.68-14.28,5.27-.75-.49-1.21-1.37-2.11-1.64l-1.97-3.4c-.14,1.61.54,2.87,1.29,3.97.54.8,1.03,1.78,1.89,2.28.12.3-.57.49-.93.57-5.34,1.18-10.78,1.09-16-.46-1.05-.31-2.45-.69-3.14-1.58-1.73-2.21-1.61-5.23-.31-7.71.78-1.49,2.38-2.71,4.03-3.03,4.04-.78,7.94-1.45,11.73-2.49,1.21-2.37,3.29-3.76,5.56-4.71l.3-2.46c-2.54-1.57-4.45,1.07-5.42.48-.33-.2-.43-.75-.04-1.1.21-.19.31-.36.33-.55,3.42-3.18,5.96-.87,6.74-1.53.34-.29.03-1.67-.41-1.76-4.4-.92-3.75.12-6.11,1.42l-1.36.75c-.29.16-.49.16-.63.1-1.02-.46.68-2.18,2.12-3.62,1.51-1.51,3.59-2.16,5.77-1.82-.05-.36-.23-.81-.44-.94l-3.46.17c-1.13.05-1.71.63-2.35,1.22l-2.59,2.39c-.34.31-1.51.5-1.52.09-.05-2.15,1.43-3.65,2.82-4.69l1.17-.88c.78-.58,1.73-.71,2.69-1.12-1.46-.23-2.69.25-3.9.36l-1.19.99-3.47,3.32c-.25.24-.98.01-1.01-.2-.31-1.95,2.46-5.16,4.77-6.71l1.61-.55-1.39-1.63c.23-1.5,2.52-1.51,4.66-5.1,4.8-8.07.67-18.01,1.39-18.72.85-.85,13.84,2.02,14.35,7.51.47,5.07-1.37,9.61-4.19,13.92,3.97-2.72,5.89-8.28,6.71-13.25,3.2,2.21,5.79,5.21,7.25,8.73,1.87,4.51-1.51,7.63-4.6,10.63Z"/>
    <path class="cls-2" d="M36.29,27.25c-2.29.83-4.42,2.02-6.15,3.76l-1.17,1.46c-3.64,4.57,1.12,11.32,3.21,11.48,2.53.19,5.01-.71,7.26-1.24-2.35-.88-4.54-.81-6.57-2.35l9.18-1.57,14.38-3.2c4.21-.94,8.36-1.01,12.56-.35,3.03.48,5.37,2.24,6.21,5.35,1.15,4.24,1.02,8.83-.25,13.07l-1.07,2.71c-1.47,1.26-2.27,2.89-4.52,4.07-9.49,4.97-25.78-2.6-34.8-8.42-1.3-.84-2.42-1.72-3.13-3.05l-1.59-.47c-3-.88-5.84-2.15-7.92-4.46-2.73-3.03-2.69-7.05.02-10.09.88-.98,1.85-1.7,3.28-2.63-.09.62-.36.98-.59,1.38-.33.6-.33,1.56-.49,2.28-2.15,2-2.29,5.23-.28,7.36.83.88,1.68,1.62,2.63,2.14.84.46,1.62.97,2.91,1l-1.47-1.59c-2.59-2.81-3.56-6.88-2.17-10.51,3.81-9.95,21.42-11.31,31.19-8-7.27-.25-14.12-.49-20.64,1.88Z"/>
    <path class="cls-2" d="M54.24,95.7c-7.07-1.17-14.42-4.5-17.87-10.97-.33-.61-.42-1.28-.22-1.88.53-1.63,4.25-.4,7.07.19-1.19-2.08-2.43-4.47-1.4-5.71.36-.43,1.19-.73,1.93-.52,5.12,1.5,9.41,5.06,12,9.72.69.75.05,1.47-.42,2.08-1.57,2.02-1.49,4.54-1.09,7.1Z"/>
    <path class="cls-2" d="M31.68,31.22c1.45-1.21,2.89-2.53,4.74-2.68,5.45-.45,9.38.4,14.6,1.95.31.09.33.42.24.53-.24.32-2.79-.15-4.99-.5-4.99-.8-9.96-.55-14.6.69Z"/>
  </g>
</svg>