<?xml version="1.0" encoding="UTF-8"?>
<svg id="_レイヤー_1" data-name="レイヤー 1" xmlns="http://www.w3.org/2000/svg" viewBox="0 0 124 124">
  <defs>
    <style>
      .cls-1 {
        fill: #fff;
      }

      .cls-2 {
        fill: #ee894b;
      }
    </style>
  </defs>
  <circle class="cls-2" cx="62" cy="62" r="62"/>
  <path class="cls-1" d="M62.19,17.82c.95,0,2.16.53,2.93.95.17.09.41.33.53.46.41.44.95.92,1.15,1.55.13.4.62.39.86.45.65.17,1.33.55,1.9.93.2.13.49.43.61.64l1.06,1.79.43,1.53c.61.23.98.37,1.43.25.61-.17,1.28-.36,1.94-.3,2.43.2,4.35,1.96,4.71,4.41.09.62-.09,1.48-.16,2.11-.02.22-.46.49-.24.89.41.74.65,1.52.85,2.34l-.52,2.2c-.86,1.63-2.28,2.84-4.34,3.07l-.52,1.04c-.06.12-.41.16-.35.38-.65.75-1.49,1.37-2.43,1.64-.61.18-1.4.46-2,.37-.97-.15-1.96-.37-2.9-.98-.24.33-.35.58-.46.85-.17.43-.35.78-.5,1.22l-.32.95c.45.33,1.06.21,1.52.35l2.4.71,2.55,1.33c2.19,1.14,3.66,3.04,4.48,5.25l.83,2.22c.03.08.04.19.05.27l.38,2.57.04,3.02-.16,2.42-.2,2.72-.33,2.24-.31,2.58-.5,3.27-.4,2.01-.64,3.35-.46,2.23c-.09.45-.22,1.04-.35,1.5l-.35,1.2-.7,2.74-.76,2.35-.7,2.3-1.42,3.66-.95,2.17c-.08.18-.22.46-.32.63l-1.12,1.87c-.99,1.64-2.23,3.13-3.89,4.08-.73.42-1.7.57-2.54.62-.97.06-2.02-.32-2.84-.83-1.54-.95-2.65-2.36-3.59-3.85-.37-.59-.66-1.27-1.03-1.85l-.43-.66-1.21-2.73-1.99-5.6-.64-2.18-.7-2.59-1.18-5.28-.65-2.91-.5-2.69-.32-2.17c-.18-1.19-.25-2.4-.56-3.66l-.12-2.24-.22-2.45-.14-2.66.02-2.32c.02-2.01.63-3.96,1.41-5.78l1.11-1.74.57-.75,2.17-2.01c.12-.11.4-.28.56-.36l2.04-1.01c1.02-.51,2.13-.86,3.26-.94l.62-.17c.19-.05.35-.04.42-.13.09-.11.03-.21-.01-.32l-.77-1.9c-.08-.2-.15-.38-.27-.47-.17-.13-.48-.13-.65-.05-.62.3-1.28.49-1.97.62-.94.16-2.32-.17-3.07-.59-.06-.03-.16-.15-.24-.1-1.03-.42-1.7-1.69-2.32-2.52-1.63-.5-3.2-1.04-4.16-2.63-.65-1.08-1-2.46-.6-3.7l.4-1.23c.61-.19-.34-1.22-.14-2.88.13-1.08.49-2.06,1.15-2.93.19-.25.4-.44.65-.64.76-.62,1.64-1.01,2.64-1.17,1.19-.2,2.16.63,3.15.2.17-.07.5-.11.6-.44l.39-1.31c.57-1.95,2.32-3.02,4.18-3.53l.6-.92c.4-.62,1.05-1.28,1.73-1.59.91-.42,1.9-.63,2.85-.64Z"/>
</svg>