<?xml version="1.0" encoding="UTF-8"?>
<svg id="_レイヤー_1" data-name="レイヤー 1" xmlns="http://www.w3.org/2000/svg" viewBox="0 0 124 124">
  <defs>
    <style>
      .cls-1 {
        fill: #bdb07e;
      }

      .cls-2 {
        fill: #fff;
      }
    </style>
  </defs>
  <circle class="cls-1" cx="62" cy="62" r="62"/>
  <path class="cls-2" d="M62,16.51l2.97.06,2.62.26c2.22.22,4.43.64,6.56,1.31l3.24,1.03c2.2.7,4.25,1.79,6.26,2.85l1.84.97c.02.14,0,.15.08.19.11.06.38.09.44.13l1.63,1.18c.61.44.98.59,1.57.56,1-.06,1.99.17,2.96.46.41.12,1.06.55,1.48.36l1.77,1.46c.75.56,1.44,1.47,2.01,2.17.01.08.05.28.11.37.05.08.18.12.26.15l.82,1.86.37,2.3.07,1.41c1.27,1.86,2.43,3.6,3.33,5.51l1.35,2.88.38.93.71,1.7,1.01,3.29,1.24,5.76.34,4,.05,2.35-.33,5.19-.51,3.42-.84,3.58-.96,2.85-.6,1.75-.82,1.83-1.24,2.62c-.83,1.74-2.02,3.32-3.13,5.07-.13.35-.04.92-.05,1.2-.09,2.16-.87,4.48-2.41,5.91l-1.19,1.11c-1.98,1.83-4.49,2.37-7.07,2.55-.36.02-.92.54-1,.84l-2.82,1.69c-.1-.08-.23-.07-.31-.02-2.33,1.47-4.94,2.47-7.49,3.49-.63.25-1.51.41-2.21.62-2.53.75-5.14,1.14-7.75,1.5l-1.49.2-3.54.08-2.37-.05-6.49-.89-2.64-.61-3.35-1.07-2.6-.91c0-.16-.07-.22-.17-.24l-.43-.08-2.39-1.17c-2.84-1.39-5.04-3.51-6.72-3.54-1.03-.02-2.05-.27-3-.6-2.99-1.05-5.23-3.6-6.23-6.61l-.28-1.95-.12-1.66c-5.03-6.98-7.7-15.11-8.34-23.49l-.02-2.34c0-1.16.06-2.34.16-3.48.16-1.89.3-3.79.73-5.64l.85-3.64c.18-.77.45-1.68.76-2.4l2.87-6.63,2.66-4.36.42-.51c.05-1.52.1-3.12.73-4.44,1.16-2.45,3.21-4.43,5.69-5.53,1.04-.46,2.35-.55,3.49-.61.58-.03.85-.07,1.49-.48l4.26-2.7,6.51-2.83,3.32-1.02c.88-.27,1.82-.51,2.72-.64l5.04-.71,3.74-.14ZM54.96,34.7c.09.79.3,1.44.52,2.04.17.46.46.89.76,1.37.56.92,1.43,1.66,2.47,2.23,1.48.81,3.21.9,4.77.67.33-.05.74-.12,1.1-.28,2.31-1.03,4-2.99,4.44-5.57.43-2.53-.64-4.98-2.5-6.6-.48-.41-.96-.64-1.53-.89-.95-.43-1.85-.72-2.91-.71-4.17.04-7.59,3.53-7.12,7.74ZM40.77,35.58c-2.35.53-4.33,2.31-5.16,4.78-.38,1.15-.44,2.49-.17,3.63.57,2.48,2.62,4.64,5.14,5.39,1.28.38,2.58.26,3.7-.03.98-.25,2.29-.94,2.94-1.72.07-.08.24-.24.33-.32,1.13-.99,1.74-2.4,1.95-3.96.13-.99-.02-1.79-.16-2.52-.51-2.61-2.94-4.87-5.56-5.39-1.08-.21-2.03-.07-3.01.15ZM77.03,37.04l-.61.57c-.69.65-1.18,1.48-1.55,2.34-.47,1.11-.59,2.33-.37,3.59.21,1.22.67,2.52,1.56,3.38l1.55,1.48c.7.67,1.74.91,2.66,1.07,2.74.49,5.4-.59,6.95-2.71.65-.89,1.16-1.86,1.35-2.94.18-.99.22-2-.04-3.04-.24-.93-.78-1.75-1.25-2.54-.36-.61-.83-1.12-1.51-1.52-.9-.54-1.84-1.09-2.84-1.3-.86-.18-1.89-.18-2.82.02-1.19.25-2.25.8-3.1,1.59ZM28.49,57.67c-.32.42-.59.81-.84,1.29-.53,1.01-.7,1.97-.66,3.03.03.84.09,1.71.41,2.61.28.79.87,1.51,1.4,2.13,1.33,1.58,3.36,2.35,5.39,2.28,1.09-.04,2.27-.09,3.23-.85l.24-.19c1.13-.91,2.18-1.71,2.76-2.98.48-1.05.76-2.22.69-3.36-.06-1.01-.38-2-.86-2.9-.52-.98-1.18-1.76-2.11-2.42-3.08-2.18-7.38-1.64-9.65,1.38ZM54.94,61.93c.01,4.12,3.54,7.39,7.63,7.07,1.87-.14,3.74-.86,4.82-2.46l.86-1.28c.64-.95.81-2.04.8-3.15,0-.95-.06-1.91-.51-2.79l-.21-.49c-1.07-2.49-3.72-3.89-6.42-3.88-3.78.02-6.97,3.18-6.96,6.97ZM86.29,56.04c-3.16,2.02-4.3,5.83-2.54,9.26.48.93,1.21,1.69,2.12,2.35,3.48,2.51,8.22,1.42,10.25-2.18.06-.1.16-.26.18-.45.62-.96.75-2,.75-3.02,0-2.5-1.35-4.86-3.43-6.07-2.39-1.39-5.16-1.26-7.33.12ZM40.6,74.64c-2.59.64-4.54,2.74-5.15,5.39-.27,1.17-.18,2.27.16,3.37.3.94.64,1.89,1.44,2.62l1.29,1.18,1.69.93c1.01.56,2.41.63,3.6.42,2.94-.52,5.28-2.73,5.88-5.65.26-1.28.01-2.88-.46-3.99-.02-.11.02-.37-.07-.48-.07-.08-.17-.14-.32-.05-.02-.96-.92-1.72-1.98-2.61-.79-.66-1.93-1.01-2.97-1.26-1.11-.26-2.08-.11-3.09.14ZM74.51,80.6c-.1.95-.11,1.69.07,2.42.62,2.58,2.68,4.72,5.33,5.4.93.24,1.76.14,2.61.07,2.7-.23,5.1-2.37,5.91-5.11.31-1.03.41-2.15.21-3.1-.6-2.94-2.89-5.35-5.86-5.83-.79-.13-1.67-.15-2.47,0-2.93.58-5.49,3.04-5.8,6.14ZM59.83,83.18c-.25.1-.7.02-.79.41-2.53.93-4.21,3.69-4.04,6.37-.17,1.49.42,2.87,1.24,4.03.75,1.06,1.69,1.82,2.9,2.38.87.4,1.88.61,2.84.63,1.07.02,2.02-.19,2.98-.66.4-.2.75-.43,1.13-.68,2.18-1.4,3.29-4.16,2.94-6.73-.03-.23-.05-.39-.36-.49.21-.82-.29-1.55-.64-2.23-.65-1.27-1.77-2.06-2.94-2.65-1.59-.81-3.57-1.08-5.26-.39Z"/>
</svg>