<?xml version="1.0" encoding="UTF-8"?>
<svg id="_レイヤー_1" data-name="レイヤー 1" xmlns="http://www.w3.org/2000/svg" xmlns:xlink="http://www.w3.org/1999/xlink" viewBox="0 0 124 124">
  <defs>
    <style>
      .cls-1 {
        fill: none;
      }

      .cls-2 {
        fill: #81499c;
      }

      .cls-3 {
        fill: #fff;
      }

      .cls-4 {
        clip-path: url(#clippath);
      }
    </style>
    <clipPath id="clippath">
      <circle class="cls-1" cx="62" cy="62" r="62"/>
    </clipPath>
  </defs>
  <circle class="cls-2" cx="62" cy="62" r="62"/>
  <g class="cls-4">
    <g>
      <path class="cls-3" d="M121.06,19.47l.51,1.85c-.96,1.23-2.6,1.2-3.91,1.85l-1.28.64-3.32,1.13-8.34,3.96c-1.51.72-2.33,2.32-3,3.75-1.14,2.42-2.01,7.76-1.51,8.98.2.5,1.23.64,1.62.73,1.43.33,3.41,1.6,3.92,3.13.45,1.31,1.34,2.22,2.24,3.13,1.96,1.96,2,4.39,1.07,7.15l.16,5.45c-.44,1.26-1.56,2.25-1.57,3.73-.01,1.46-.58,3.49-1.88,4.23-1.38.78-2.48,1.56-3.36,2.88-.53.81-3.75,1.88-5.82.41-2.76-3.55.47-7.23-1.03-10.72-.72-1.67-2.03-2.86-2.84-4.3-1.01-1.79-1.94-3.38-3.8-4.23l.62-2.88c.38-1.46.7-3.05,1.36-4.39.76-1.53,2.34-2.26,3.72-2.85.76-.32,1.66-.85,2.52-1.34.64-.36.32-1.54.38-2.01l.51-4.06c.09-.71.7-1.56.32-2.74l-5.26,3.55-3.23,2.61c-.98.8-2.49,1.63-3.14,2.92-.11.54.39,1.79.91,1.89-.24.73-.45,1.59-.13,2.2l-.9,2.47c-.47,1.29-.06,3.07-1.12,4.01l-3.09,2.76c-1.51,3.17-3.73,5.7-7.27,6.21l-3,2.48c-2.15,1.78-5.4.77-9.35.38-1.7-.17-3.7-.74-4.72-2.09-.68-.9-1.07-2.23-1.08-3.34l-.03-2.57.26-3.29c.13-1.63,2.2-2.63,2.74-4.13,2.7-7.49,6.49-5.4,9.3-8.75,2.13-2.55,5.1-2.48,8.12-2.53,2.01-.04,4.31-.65,6.01.69.26.2.89.53,1.23.65.92-.13,1.55-1.17,2.07-1.51,1.38-.93,2.55-2.13,3.82-3.14l3.46-2.73-4.55-.93c-1.19-.24-3.1-1.13-4.22-.6-1.08,1-1.84,2.81-2.94,3.68-.85.68-2.23,2.49-3.62,2.3-5.75-.81-8.36,1.38-9.34,1.15-1.4-.32-3.2-5.4-9.51-6.22-1.57-.2-2.87-.14-4.02.68-.61.39-1.84-.45-2.35-.9-.53-.47-.93-1.11-1.33-1.71-.82-1.2-2.16-2.03-2.4-3.58-.08-.52.02-1.37-.46-1.78.66-1.27,1.23-2.8,2.41-3.71,1.09-.84,2.2-1.63,2.8-2.84,2.03-.62,3.74-1.74,5.95-1.2,2.79-1.41,5.9-2.07,8.56-1.02l2.99,1.99c.63.42,1.02.29,1.48.15.41-.13,1.11-.32,1.51-.27,1.04.14,2.16.26,3.15.66,1.42.57,2.61,1.73,3.81,2.68.92.73,1.88,1.84,2.28,2.93l1.11,3.02c-.06.34-.02.65.12.89.18.31.87.46,1.26.52l4.95.68c7.78,1.08,6.77-.59,9.43-1.76,1.5-.66,2.74-1.66,4.22-2.39l9.28-4.59.87-.25,3.11-1.37,1.44.06c.66.03,1,.94,1.16,1.51ZM70.03,21.35c1.19.36,2.17.9,3.66.44,4.48-1.38,4.8,3.1,7.74,3.17-1.06-1.17-1.61-1.86-2.36-3.09-.81-1.33-3.09-2.22-4.69-1.86-5.66,1.28-6.39-4.82-11.11-1.64,4.91-.24,4.2,2.2,6.76,2.98ZM104.07,50.73c.62.63.49,1.26.58,1.96.25,1.96-.09,3.98,1.09,5.99.22-2-.36-3.43.53-5.12.25-.47.34-1.53.43-2.13l-2.92-2.74c-.93-.87-.81-2.62-2.26-2.97.63,1.53,1.15,2.41,1.3,3.75l1.25,1.26ZM67.59,26.77c2.87,1.98,5.63-2.42,9.45.62.68.25.86-.69.09-.59-1.34-2.34-3.41-2.54-5.44-1.46-3.34,1.78-6.64-3.4-11.29-.64,2.71.05,5.04.59,7.19,2.07ZM95.58,57.14c.21-2.03,1.06-3.38,1.59-4.97-1.78-2.88,1.02-3.48.72-5.95-.65.11-.99.73-.65,1.25-2.14,1.19-1.92,2.9-1.69,4.96.16,1.44-1.45,3.18.03,4.71ZM68.69,32.07c2.72,1.72,3.64-1.45,7.1.13.98.45,2.36.45,3.23-.5-.97-.03-1.99.16-2.78-.49-2.57-2.11-4.19.48-7.55.85ZM102.56,51.69c-.6-.86-1.11-1.64-2.15-1.87l2,3.69c.46-.3.69-1.04.15-1.82ZM53.97,21.82c1.45-.34,2.75-1.97,4.18-1.43,1.34.51,2.81,1.57,4.4.08l-4.76-1.3c-1.52.09-2.96,1.63-3.82,2.65ZM104.04,66.23c1.89-5.87-3.2-7-2.35-10.1-3.03,2.84,1.37,3.91,1.5,8.11.05,1.53-.75,2.39-2.07,3.45,1.13-.2,1.85-.97,2.93-1.46ZM70.37,50.85c-2.68.22-4.33,1.6-4.47,3.99,1.04-1.57,2.27-2.52,4.05-2.8,3.04-.47,6.19-1.84,6.6-4.41.88-5.45,5.21-4.8,5.73-5.92.08-.17-.14-.36-.3-.4l-.82-.21c-.98-.25-2.35.77-3.45.21-1.93-.98-4.48-1.09-5.84,1.01-.89,1.37-1.58,2.58-3.5,3.35,4.64.75,3.35-5.65,8.94-2.85-1.97,1.26-1.64,3.1-2.25,4.99-.45,1.39-3.2,2.92-4.69,3.05ZM58.92,27.47c.76.58,1.26-.4.46-.66-1.95.04-3.24-.48-5.14-1.66.59,1.7,2.36,3.27,4.68,2.32ZM75.14,57.75c1.73-.24,1.7-2.5,2.46-3.18,2.58-1.14,4.03-2.69,4.06-5.58.3-.51-.43-.92-.82-.11-.31,1.24-.44,2.74-1.61,3.31-3.63,1.76-2.82,2.42-4.09,5.57ZM60.05,58.7c1.59-1.16,1.13-2.38,1.12-3.55-.02-2.34,3.78-4.2,2.66-6.91-.53,1.41-1.18,2.58-2.3,3.54-2.86,2.47-.65,4.66-1.48,6.91ZM65.56,60.34c1.82.03,2.4.65,3.64.94,1.43-.85,2.8-1.97,3.23-3.52-1.61.77-2.45,2.31-4.01,2-1.07-.21-2.33-.53-2.85.57Z"/>
      <path class="cls-3" d="M93.1,74.67l-.22.66c-.04.11.01.26.16.3-.2,1.47-.97,2.49-1.84,3.55l-2.95,3.59c-1.93,2.35-5.07,3.18-7.6,1.04l-3.38-2.85-2.75-2.92-.51-1.26c.37-1.64.13-3.17-.74-4.53l-.69-2.06c-.24-1.43.79-2.78,1.05-4.19.38-2.07,1.92-2.87,3.8-3.42,5.17-1.52,5.36-6.45,8.6-8.28.23-.07.64-.16.87-.14l3.01,1.91,1.8,3.26c5,4.3,1.1,7.82,1.9,9.45.94,1.92.03,4.26-.5,5.88ZM86.9,78.75c-.2.35-.26.92,0,1.15.77-.4.72-1.71.9-2.42,2.11-1.45,3.7-4,2.96-6.53-.41-1.42-.9-2.75-.05-4.27,2.26-4.05-.94-3.91-2.89-8.01-.53,3.56,3.24,3.8,1.72,7.33-.31.73-.16,1.84-.98,2.46-1.07-1.66-1.49-3.24-3.06-4.35.61,2.06,1.17,3.98,2.07,5.71.51.98,2.03,1.57,1.99,2.58-.14,3.19-3.81,3.38-2.66,6.36ZM81.97,80.82c-.89-1.74-.93-3.06.19-4.73-2.05-3,1-4.91,0-6.25-1.22-1.65-1.94-2.86-1.96-5.06-1.24,2.03-.64,4.11,1.1,5.4-.98,2.07-1,3.97-.7,6.1.1.75-1.23,1.07-1.68.65-.54-.51-.65-.94-1.11-2.19-.61,1.09.34,1.77,1.09,2.61l3.08,3.46ZM77.66,72.66l.04-3.86c-1.39,1.09-.97,2.72-.04,3.86Z"/>
      <path class="cls-3" d="M60.96,66.27c.2.17.14.46-.09.71l-2.53,2.78c-1,1.1-2.41,1.95-3.48,3.28-.74.92-1.39,1.89-2.23,2.92l-4.01,4.88c-.29.35,0,.49.11.61,1.14,1.23,1.8,2.79,2.01,4.59l-.73,4.86c-.92.82-1,2.18-1.36,3.39-1.08,4.48-4.68,4.26-6.42,6.9-.81,1.23-1.78,2.28-3.05,2.8-.74.31-1.7.8-2.56.54-1.35-.41-2.65.09-3.9.06-.46,0-1.32-.06-1.74-.21-1.51-.55-2.93-1.79-3.11-3.18-.14-1.11-.49-2.05-.93-3.21-.63-1.66-.18-3.43-.14-5.09.03-1.13.71-2.18,1.51-3l1.71-1.76c.46-.47.35-1,.47-1.3.8-1.97,1.6-3.46,3.33-4.33l3.7-1.87c1.19-.6,2.2-2.15,3.67-2l4.81.5c.6.92,1.11-.29,2.1-1.56l2.57-3.31,2.43-2.88,5.64-6.17c.78.05,1.75.68,2.21,1.05ZM40.63,83.64c.57-1.16,1.67-1.38,2.81-1.5-2.71-1.55-3.83,1.66-6.14,2.09-1.49.28-2.67,1.16-2.82,2.71,2.12-2.63,4.83-.64,6.14-3.29ZM40.47,93.91c4.78-.15,3.26-3.85,5.79-7.62-.91.88-2.37,1.06-2.61,1.85l-1.04,3.52-2.13,2.25ZM43.52,96.23c1.64-.52,2.74-1.92,2.34-3.72-.64,1.54-1.37,2.36-2.34,3.72ZM33.79,96.68l1.36-3.52c.49-1.28.78-2.6,2.35-3.55-1.87-.2-2.4.96-3.2,2.1-1.14,1.61-1.34,3.11-.51,4.98ZM30.28,97.29l.89-5.5c-2,.58-1.81,2.61-.89,5.5ZM33.02,101.52c3.37-.79,6.19.95,6.78-2.75-.96.16-1.39.87-2.14,1.46-1.77-.39-3.36-.07-4.64,1.29Z"/>
      <path class="cls-3" d="M65.99,66.88c-.76.9-.86,3.09-.75,4.19.04.38-.69,1.31.13,1.61l1.64.59c1.29.47,2.32,1.64,3.09,2.81.84,1.27.73,3.05,1.54,4.25l.79,1.17c.71,1.06.91,2.56,1.06,3.89l-.57,1.35c-.69,1.63-.94,3.46-1.72,5.06l-1.62,3.3c-.58,1.19-2.09,2.13-3.22,2.82-1.39.85-2.93,1.28-4.48,1.42-.09-.19-.29-.18-.42-.2-1.21-.18-2.08-1.13-2.98-1.87l-.49-.41c-.44-.98-1.23-2.04-2.26-2.79-.11-1.42-1.74-2.65-1.84-4.19.45-.38.28-1.18.27-1.6.73-.79.62-2.02.43-3.34l-.32-2.28c.41-.46.41-1.1.3-1.68l.93-2.75c.43-1.27,1.28-2.8,2.47-3.47l3.63-2.03c.25.23.68.05.72-.35l.54-4.61c.06-.33.36-.85.67-1.4l2.48.51ZM68.37,81.64c1.84,3.01.02,6.51,1.09,7.16.12.07.36-.2.31-.34-.42-1.35,2.37-3.69-1.4-6.82ZM58.23,82.07l1.12-1.3c1.47-1.06,2.34-2.72,2.05-4.49-1.34.27-1.13,2-1.67,2.41-1.48,1.11-1.89,1.94-1.5,3.38ZM64.42,90.72c1.12-1.71,1.19-2.96,2.09-4.13,1.37-2.77-1.2-3.87-1.99-6.57-.77,1.35-.19,2.6.57,3.76,1.33,2.02-1.7,3.79-.67,6.95ZM64.35,94.83c1.36.31,2.13-.49,2.62-1.29.41-.67.87-1.7.02-2.51-.38,1.79-1.37,2.74-2.64,3.8ZM59.47,92.34c-.96-2.45-.85-3.97-.73-6.26-.98.96-1.73,2.44-1.5,3.51.27,1.24,1.16,2.52,2.23,2.76Z"/>
      <path class="cls-3" d="M45.5,51.43l-3-2.9-3.57-3.03c-1.57-2.57-2.17-5.7-.55-8.1,1.13-1.68,3.06-1.81,4.27-2.7,1.39-1.02,2.27-2.15,3.85-2.44,1.83-.34,3.66-.87,5.57-.24,1.17.39,2.15,1.21,3.43,1.11l4.59-.37c3.46.75,5.99,2.82,7.5,6.22-.86,1.38-2.56,2.23-4.2,2.76-3.43,1.1-4.36,6.52-7.84,10.41-1.34,1.3-3.78.18-4.95.01l-5.1-.72ZM59.68,36.49c-1.04-.94-2.37-.68-3.15.11,1.35.25,2.17-.03,3.15-.11ZM45.79,37.72c1.53.59,2.28.85,3.73.6l-2.34-1.9c.98-.86,1.78-.99,2.69-1.29-1.02-.64-2.16-.18-3.13.43l-5.5,3.46c1.88.78,3.23-.27,4.55-1.31ZM48.84,41.23c2.62-.01,3.84-.15,5.5.81.75-.48,1.55-.63,2.02-1.58-3.24,1.25-4.73-2.4-7.52.77ZM45.03,45.33l.53,1.39c.36.95.98,1.62,1.89,1.92.49.16,1.17-.36,1.93-.41l4.51-.3c-2.06-1.07-3.97-1.21-6.17-.66-2.17-2.32-1.55-4.31-6.14-5.04l3.44,3.11Z"/>
      <path class="cls-3" d="M55.55,62.66l-2.56.79c-.78.24-.34,1.26-.44,1.69-.38,1.54-1,3.12-1.95,4.37-.81,1.07-1.82,2.06-3.15,2.46-1.38.42-2.19,1.71-3.3,2.46-2.02,1.37-4.39.89-6.7.81l-5.29-.18c-1.61.13-2.42-1.54-3.7-2.05-2.59-1.03-3.37-4.07-2.06-6.63.67-1.3,1.08-2.64,1.6-4.03.6-1.61,2.57-2.72,4.06-3.23.78-.27,1.64-.33,2.31-.89.73-.61,1.54-1.33,2.09-2.13,1.65-.1,3.24-.07,4.82.08.16.13.32.15.53.15,1.64-.04,3.52-.17,5.12.18,2,.73,2.6,1.48,3.69,2.83l.97,1.19c.12.14.27.55.56.59-.3-.04,2.55-.67,2.67-.86.6.5,1.23,1.63.7,2.39ZM38.52,63.39l-2.8,1.36c5.56,1.36,5.5-3.81,9.27-4.09,1.2-.09,2,.7,3.4,1.24-.46-1.4-1.71-2.69-2.86-2.64l-3.51.15c-1.78-.69-3.7-1.02-4.69.68,1.56-.28,2.63-.53,3.83.62l-2.64,2.68ZM30.4,66.19c1.24-2.12,2.47-3.12,4.49-3.82-1.05-.65-2.78-.49-3.47.44-.74.99-1.23,2.04-1.01,3.39ZM40.55,70.76c1.15.37,1.72.38,2.77.2-.77-.79-2.05-.78-2.77-.2ZM31,69.77c1.9,2.66,4.15,2.74,6.42,1.74.89-.39,2.17-.05,3.02-1.38-3.73-.46-5.65,2.05-8.3-.4-.48.11-1.88-.28-1.13.05Z"/>
    </g>
  </g>
</svg>