<?xml version="1.0" encoding="UTF-8"?>
<svg id="_レイヤー_1" data-name="レイヤー 1" xmlns="http://www.w3.org/2000/svg" viewBox="0 0 124 124">
  <defs>
    <style>
      .cls-1 {
        fill: #ec3356;
      }

      .cls-2 {
        fill: #fff;
      }
    </style>
  </defs>
  <circle class="cls-1" cx="62" cy="62" r="62"/>
  <g>
    <path class="cls-2" d="M81.86,40.24c.76-.07,1.73-.1,2.48.06.72.15,1.66.22,2.28.51l2.92,1.37c.03.15.23.14.32.2l2.13,1.25c.37.22.73.53,1.1.78,1.31.91,2.51,2.03,3.51,3.3.7.9,1.56,1.84,2.16,2.86l.74,1.28c.97,1.66,1.72,3.47,2.25,5.32l.63,2.19.57,2.84.29,2.19c.14,1.1.26,2.2.2,3.32l-.09,1.56c-.02.42-.32.72-.08,1.11.12.2-.06.61-.07.82-.02,1.13-.23,2.27-.44,3.36l-.36,1.89-.69,2.69-2.14,5.37c-.13.07-.17.11-.24.24l-1.06,1.94-1.47,2.11c-.09.14-.19.2-.15.45-.83.51-2.14,2.18-2.18,2.3-.08.27-.33.36-.5.52l-2.02,1.85c-.06.06-.12.15-.2.16-.19.02-.26.23-.16.41-.96.05-1.45.99-2.2,1.42l-1.75.99c-.22.12-.42.35-.61.52-1.74.86-3.16,1.66-5.18,2.43l-2.41.92c-1.66.64-3.39,1.1-5.15,1.43l-2.37.45-2.7.43-2.36.15-3.19.2c-.1-.05-.21,0-.24.06l-4.22-.05c-.7,0-1.41-.3-2.13-.25-.94.07-1.87-.1-2.8-.23l-1.96-.27-2.78-.52c-.74-.14-1.57-.76-2.35-.28.13-.27-.05-.32-.18-.34-.14-.02-.43-.11-.56-.08-.72.16-1.12-.24-1.68-.47l-2.95-1.2c-.46-.19-.9-.37-1.34-.58l-.97-.47-1.97-1c-3.62-1.83-6.66-4.6-9.43-7.72l-2.55-3.33c-.03-.48-.4-.79-.65-1.18-.28-.44-.56-1.04-.76-1.54-.23-.55-.31-1.08-.81-1.54-.66-1.84-1.36-3.73-1.76-5.69l-.49-2.42c-.17-.86-.15-1.83-.44-2.67-.1-.29.14-.83.06-1.17.07-.11-.02-.25-.16-.32l-.03-3.67c0-.67.28-1.34.23-2.06-.06-.8.16-1.64.3-2.43l.35-2.06.86-3.06c.18-.66.21-1.43.68-2.18.48-.77,1.05-1.86,1.27-2.54.11-.32.5-.78.69-1.1.23-.39.84-.82.74-1.43.21.09,3.24-4.14,6.5-6.09l1.97-1.18,1.79-.87.55-.34,1.49-.51c.73-.25,1.34-.34,1.91.09.6.45,1.3.85,2,1.15.89.39,1.83.46,2.86,1.17l-3.11,3.92c-1.03,1.3-2.01,2.45-1.68,4.13-.26.28.14.64.2.9.21,1.04,1.23,1.89,2.24,2.27.91.34,1.78.57,2.76.34l2.03-.46c.84-.19,1.64-.5,2.43-.87l2.19-1.02c.14-.03.25-.1.18-.28l2.45-1.16c.48-.24.92-.71,1.34-1l1.4-.81,2.04-1.1,1.82-.96c.19-.02.52,0,.68.06l1.41.48.7.24,3.15,1.46c.14.13.39.32.58.45l1.88,1.25,1.26,1.18,1.19,1.93c.09.14.22.34.3.48.52.88,1.37,1.63,2.36,2,.62.23,1.28.23,1.94.11,2.55-.47,3.42-2.35,3.91-4.82.15-.76.17-1.42.1-2.16-.08-.82.13-2.05-.57-2.64-.42-.35-.11-.88-.7-2.52-.25-.68-.58-1.28-.97-1.89l-.97-1.52,2.44-.64,2.14-.2Z"/>
    <path class="cls-2" d="M64.99,20.58l1.75.42c.92.22,1.81.56,2.04,1.56-.07.59-.45,1.17-1.04,1.54.09.32-.08.47-.14.55-1.16,1.38-2.14,3.12-2.53,4.91l-.58,2.67-.06,2.21,2.39-1.09,2.15-.66,1.39-.3,1.37-.23c.93-.16,1.9-.26,2.86-.19.7.05,1.54-.16,2.15-.05,1.73.33,3.46.68,5.1,1.32.77.3,1.47.76,2.2,1.12l1.15.56c.63.62,1.28,1.23,1.01,2.13-.42.55-1.23.75-1.97.62-.66-.12-1.33-.14-2.03-.14-1.19,0-2.4-.04-3.55.26l-1.63.42c-1.5.38-2.91.91-4.43,1.83l1.94,1.91c.03.09.13.23.24.26,1.18,1.54,2.33,3.13,2.64,5.04l.3,1.89c.16.99-.13,2.02-.24,3.01l-.5,1.13c-.23.51-.91.83-1.51.75-.53-.08-.9-.69-1.06-1.24-.04-.12-.04-.23-.17-.28-.98-2.36-3-4.04-5.19-5.31-.04-.04-.08-.05-.14-.04l-2.03-.95-1.87-.8-3.2-1.18c-.57-.21-1.24.06-1.71.39-.02-.09-.2-.15-.29-.09-.55.42-1.31.56-1.96.96l-3.32,1.99-4.04,2.38-3.73,1.51c-1.16.47-2.44.72-3.58.13-.7-.37-.73-1.51-.21-1.96,1.57-1.36,3.11-2.83,3.98-4.74l.47-1.02c.61-.09.58-.91,1.05-1.6l.71-1.05-2.46-.45-1.85-.52c-3.47-.97-7.51-4.27-8.1-7.43-.11-.61-.02-1.07.28-1.58,1.64-.34,2.54,1.18,3.02,1.02.02,0,.05,0,.08,0,.57.6,1.49.75,2.19,1.04.75.32,1.49.27,2.2.33,1.17.1,2.41.12,3.62.01l1.23-.11c.9-.08,1.89-.07,2.71-.44.66.27,1.47.09,2.21.13,1.42.08,2.76.56,4.21,1.23.1-1.64.1-2.98.41-4.33l.62-2.69.24-1.01.76-1.67,1.47-2.73c-.18-.06-.07-.25.05-.17.76-.83,1.81-1.45,2.97-1.17Z"/>
  </g>
</svg>