<?xml version="1.0" encoding="UTF-8"?>
<svg id="_レイヤー_1" data-name="レイヤー 1" xmlns="http://www.w3.org/2000/svg" viewBox="0 0 124 124">
  <defs>
    <style>
      .cls-1 {
        fill: #7c8799;
      }

      .cls-2 {
        fill: #fff;
      }
    </style>
  </defs>
  <circle class="cls-1" cx="62" cy="62" r="62"/>
  <path class="cls-2" d="M54.63,92.95c-3.11,2.76-3.94.14-7.58,2.08-4.29,2.28-6.39.59-8.22,1.79-3.14,2.05-7.37,1.43-9.55-1.72-1.06-1.54-1.29-3.55-1.09-5.41.15-1.4-.09-2.52-.83-3.72-1.9-3.09.77-4.89.07-6.95-1.8-5.24.22-8.84-.64-13.65-.7-3.97-.87-6.11,2-8.33,2.06-1.6.93-10.77,6.79-14.21,1.33-.78,2.53-1.6,3.37-2.91,2.04-3.21,5.61-2.11,6.78-5.35.63-1.74,1.86-3.05,3.68-3.49,1.19-.29,2.25-1.03,2.96-2,2.71-3.69,6.37-.03,9.81-2.35l2.68-1.82c2.58-2.44,5.75-2.92,9.13-2.08,1.69.42,3.34.66,4.67,1.92,1.1,1.05,2.65,1.43,4.17,1.21,2.77-.39,3.98,1.84,6.75,2.31,3.28.55,5.8,1.84,6.3,5.26.28,1.92,1.2,3.67,2.65,4.91,1.43,1.22,2.21,2.92,2.05,4.86l-.36,4.33c-.26,3.12,2.56,6.31.86,10.64-.49,1.24-.87,2.56-1.14,3.81-.26,1.23-.86,1.85-1.69,2.75-2.05,2.21-4.21,4.83-5.05,7.81-.96,3.44-2.05,6.68-4.95,9.01-3.63,2.93-7.66,4.1-12.19,4.89-1.88.33-3.33,1.17-4.55,2.64-1.62,1.94-3.87,2.98-6.45,2.74-2.21-.21-4.31-.07-6.49.3l-2.16.06c-.68.02-1.21.19-1.77.68ZM46.84,89.77c2.37.23,4.52-.37,6.52-1.61,4.47-2.77,7.82.35,12.34.24,3.26-.08,3.83-3.24,7.23-4.69,2.31-.98,6.78-.87,11.03-3.31,2.34-1.34,4.25-3.23,4.93-6.06-1.39,1.3-3.22,1.77-5.11,2.21-1.4.33-2.55,1.28-3.77,2.03-2.31,1.19-4.73,1.72-7.28,1.87l-7.23.42c-3.2.42-6.11,1.55-9.08,2.75-1.82.73-3.33,1.81-4.99,2.8-2.2,1.31-4.48,2.23-6.99,3.11l2.4.23Z"/>
</svg>