<?xml version="1.0" encoding="UTF-8"?>
<svg id="_レイヤー_1" data-name="レイヤー 1" xmlns="http://www.w3.org/2000/svg" viewBox="0 0 124 124">
  <defs>
    <style>
      .cls-1 {
        fill: #ab3342;
      }

      .cls-2 {
        fill: #fff;
      }
    </style>
  </defs>
  <circle class="cls-1" cx="62" cy="62" r="62"/>
  <g>
    <path class="cls-2" d="M26.5,20.19l-1.05,3.01-.6,1.8c-.19.58.02.86.3,1.18.24.27.73.85.69,1.31-.05.58-.66,1.05-.84,1.47-.12.27-.59.48-.6.96-.03,1.15,1.18,1.32,1.53,2.14-.96.89-1.38,2.04-1.05,3.24.22.79.41,1.71.57,2.5.41,2.16,2.15,3.34,4.17,3.94l3.08.9c.65.19,1.48.56,1.8,1.19.51,1.01.41,2.24.67,3.33-.24.47-.02,1.05-.05,1.48-.08,1.23-.27,2.43-.57,3.61-.35,1.39-.96,2.98-1.97,3.05-1.06-.13-2.63.41-3.26,1.18-1.92,2.38.53,4.56-.43,5.33-.47.38-1.32.43-1.84.32-.95-.2-1.97-.51-2.69-1.13l-.72-.62-1.79-1.59-.62-.7c-1.61-1.82-2.8-3.98-3.89-6.13-.97-1.92-1.84-3.91-2.49-5.94l-.76-2.38-.72-3.08-.32-2.84.12-2.93c.04-1,.26-2,.49-2.97.24-.99.53-1.98.91-2.92.85-2.11,1.98-4.07,3.56-5.7l.83-.85,1.7-1.38,1.42-.89,2-.92c.79-.36,1.67-.57,2.62-.67.13.64-.05,1.21-.23,1.72Z"/>
    <path class="cls-2" d="M52.26,58.85c1.74,2.89,3.5,5.07,6.81,5.96,1.21.33,2.46.31,3.71.32.64,0,1.23-.17,1.81-.25.64-.09,1.31-.26,1.86-.57.35-.2.86-.42,1.25-.67,1.91-1.25,3.12-3.18,4.42-5.15l.95,3.34c.11-.06.15.04.06.09l.57,3.18c-.27.45.09,1.12.1,1.54l.1,2.88-.05,3.06c-.03,1.96-.31,3.93-.91,5.79l-.79,2.46c-.12.38-.31.62-.55.75-.36.19-.82-.13-1.14-.28l-.55-.26c-.4-.48-1.34-.83-1.91-1.16-.85-.49-1.76-.76-2.67-1.01-4.29-1.18-8.78.06-12.18,2.88-.61.12-1.05-.42-1.24-.98l-.75-2.17-.19-.67-.46-2.49-.28-2.64v-3.73s.1-2.28.1-2.28l.34-3.04.04-1.7c.56-1.12.89-2.15,1.14-3.44l.42.28Z"/>
    <path class="cls-2" d="M61.12,84.9c1.28-.07,2.56-.04,3.84.11,1.09.13,2.17.28,3.23.53l2.64.61c.39.4.51.95.63,1.54.09.45.07,1.03,0,1.49-.12.71-.27,1.37-.82,1.81l-2.82.06-2.84-.04-3.08.02-2.83-.03-3.03.04c-.87.01-1.79-.17-2.63.03-.22-.41-.77-.79-.77-1.28l-.03-2.44.31-.83c.23,0,.5-.44.73-.49l2.64-.56,2.5-.39c.77-.12,1.54-.13,2.33-.17Z"/>
    <path class="cls-2" d="M38.93,58.56c.88.62,1.72,1.27,2.42,2.11.69.84.58,2.16-.27,2.9l-2.31,2.01c-.6.52-1.74,1.17-2.54,1.22-2.17.12-4.29-.65-6.25-1.43l-1.38-.8c-.25-.14-.28-.48-.25-.62.19-.51.69-.79,1.13-1.08,2.05-1.37-.23-3.26.36-4.96.33-.95,1.87-1.83,2.84-1.3,1.88,1.02,4.78,3.64,5.65,2.59.18-.21.25-.59.6-.62Z"/>
    <path class="cls-2" d="M56.14,92.21l2.93.03,2.95.02h2.93s2.97-.03,2.97-.03h2.39c.22.02.39.37.46.47-.17.25.01.49.04.64.13.83.12,1.85-.18,2.66-.04.12,0,.25.07.31-.27.07-.43.4-.72.45l-2.07.38-2.66.32-3.23.14-2.77-.13-2.7-.28-2.51-.46c-.32-.06-.47-.41-.65-.53,0-.14-.03-.26-.06-.39-.24-.94-.2-1.93,0-2.88.03-.14.12-.37.02-.51.13.03.34-.28.47-.28l2.3.05Z"/>
    <path class="cls-2" d="M44.03,60.25c.43.37.96.59,1.45.88.73.42,1.46.84,2.25,1.14l1.59.62c.45.18.14.52.23.65-.27,1.09-.41,2.15-.47,3.22l-.19,2.75c-.76.2-1.83-.16-2.71-.2-2.56-.1-4.95-.25-7.34-.57-.77-.1-1.52-.39-2.29-.75,1.13-.47,1.96-.92,2.77-1.44,1.06-.68,1.95-1.55,2.75-2.47.98-1.12,1.17-2.51.58-4.12.58-.2,1.08.01,1.4.29Z"/>
    <path class="cls-2" d="M65.2,80.01l2.7,1.04,1.61.92,1.61,1.15c.19.13.14.49.14.62-.1.03-.15.11-.16.18-.01.09-.02.34.33.49-.24.07-.48.27-.49.49-.34.17-.68.03-1.05-.08l-1.94-.54c-.89-.25-1.82-.34-2.73-.44-3.03-.35-6.08-.19-9.07.44-.83.18-1.68.39-2.44.75-.39.02-.77-.2-.8-.61-.17-.56-.15-1.08.22-1.58l3-1.77c2.76-1.7,6.01-1.84,9.07-1.07Z"/>
    <path class="cls-2" d="M45,71.99c.78.1,1.67-.04,2.38.03l1.51.14c.05.18.08.5.19.49l.1,1.74-1.7-.07-2.92-.1c-.89-.03-1.88-.08-2.68-.52-.46-.25-.97-.71-1.27-1.14l-1.82-2.33c0-.12-.1-.25.05-.44l.19.05,2.34.39c.54.3.78,1.37,1.6,1.48l2.03.27Z"/>
    <path class="cls-2" d="M50.91,81.51l-.77.39-2.7,1.38c-.16.08-.34.27-.19.61-1.41.25-2.67.04-2.64-.85.02-.44.27-.59.65-.79l2.45-1.34,2.53-1.46.66,2.07Z"/>
    <path class="cls-2" d="M70.6,107.67c.07.02.24-.03.3-.06l2.59.97c1.17.4,2.26,1.09,3.28,1.78l.69.47c.72.48,1.36,1.13,1.61,1.95.17.56.28,1.07.25,1.69-.42,1.42-1.54,2.37-2.93,2.94-.6.25-1.36.32-2.07.26l-.55-1.91c-.36-1.26-1.16-2.38-1.99-3.38-.52-.62-1.01-1.28-1.56-1.84l-1.33-1.35,1.04-1.42c.14-.19.51-.15.67-.11Z"/>
    <path class="cls-2" d="M76.47,76.07c.99.16,1.98.53,2.99.51l2.68-.06c.38,0,.63.46.61.8-.1,1.26-2.29,1.64-3.35,1.49l-2.83-.4-2.35-.44c.21-.85.14-1.67.68-2.16l1.57.26Z"/>
    <path class="cls-2" d="M76.52,81.02c.35.24.75.52,1.17.44.09.11.01.64.04.39.65,0,.91.28,1.21.44.27.15.46.36.53.56.08.23-.17.81-.28,1.02-.51.13-1.42.37-1.87-.06-1.03-.98-2.39-1.31-3.53-1.9-.05-.22-.35-.09-.44-.35.09-.84.27-1.77.68-1.9.81.46,1.7.83,2.48,1.37Z"/>
    <path class="cls-2" d="M93.61,57.04c.38.3.6.72.67,1.14.18,1.17-.53,2.2-.66,3.31-.13,1.04,1.76,1.45,2.06,2.49-.03.78-.8.95-1.38,1.22-1.82.87-3.83,1.35-5.84,1.62-1.08.14-2.23-.51-3.02-1.18l-2.14-1.79c-.68-.57-1.31-1.72-.88-2.57.65-1.27,1.79-2.24,2.96-2.72.12.39.42.75.7.83.35.1.81.04,1.14-.18l4.06-2.6c.67-.43,1.74-.06,2.34.41Z"/>
    <path class="cls-2" d="M81.16,61.1c-.39,2.49,1.92,4.31,4.07,5.73.67.44,1.34.72,2.36,1.13-.82.44-1.62.73-2.48.82l-2.88.29-3.43.21c-.37.02-.87-.16-1.14.24-.2-.14-.61-.07-.86-.05l-1.66.11-.14-2.83c-.05-1.04-.16-2.12-.47-3.12l.02-.7c1.05-.23,1.92-.66,2.74-1.11l2.23-1.23c.59-.32,1.08-.75,1.81-.69.15.53-.11.85-.16,1.19Z"/>
    <path class="cls-2" d="M85.01,70.4l-1.74,2.41c-.25.35-.75.73-1.13.95-.78.43-1.76.44-2.63.48l-3.06.14-1.52-.03c.03-.88.06-1.5.26-2.13l.57-.09c1.05.14,2.78-.12,3.91-.15,1.3-.03,2.34-.3,2.9-1.74l2.6-.26c-.22.22-.2.37-.15.43Z"/>
    <path class="cls-2" d="M56.02,103.75c1.11.34,2.26.49,3.39.62.74.09,1.53.09,2.37.12,1.22.04,2.36.06,3.51-.17l2.93-.59c.36-.07.65-.19,1.04-.17l.43,1.13c.14,2.28-1.56,4.45-4.02,4.5l-.68.26c-2.93.34-5.84.27-8.55-.79-.62-.24-1.13-1.1-1.46-1.55-.6-.8-.6-1.76-.41-2.7.05-.22.16-.87.38-.84.45.06.81.1,1.07.18Z"/>
    <path class="cls-2" d="M54.05,107.52c.22.68.65,1.16,1.22,1.62l-2.64,2.85c-1.11,1.2-1.99,2.61-2.45,4.19l-.43,1.49c-.85.06-1.61-.07-2.31-.34-1.01-.39-1.66-1.55-2.7-1.34l.05-2.68c.03-1.29,1.38-2.15,2.23-2.85.18-.15.55-.36.75-.46l2.73-1.34,3.53-1.13Z"/>
    <path class="cls-2" d="M99.45,18.96c2.12.73,4.04,1.97,5.67,3.53l.8.77c1.7,1.62,2.81,3.73,3.69,5.89l.79,2.86c.32,1.14.49,2.33.49,3.5v2.32c.01,2.98-.89,5.9-1.91,8.69-.78,2.12-1.64,4.19-2.69,6.17-1,1.89-2.16,3.69-3.48,5.38-.25.32-.71.57-.86.98-1.41,1.41-2.96,2.7-4.98,3.05-.9.16-1.77.04-2.01-.49-.1-.23-.08-.55-.08-.85.56-.51.63-2.01.51-2.75-.12-.72-.47-1.49-1.13-1.9-.84-.54-1.79-.93-2.81-.81-.14-.07-.38-.17-.54.12.03-.3-.16-.38-.27-.35-.47-.93-.84-1.86-1.14-2.82-.32-1.05-.45-2.12-.53-3.2-.05-.69-.06-1.35.01-2.05.11-1.06.02-2.27.61-3.23.25-.4,1.07-.87,1.54-1,1.86-.5,3.82-.73,5.45-1.8,1.21-.79,1.93-2.09,2.18-3.52l.43-2.51c.06-.35.22-.93-.01-1.32l-1.06-1.82c.66-.29,1.56-1.04,1.46-1.74.17-.71-1-1.53-1.54-2.79l.82-1.09c.35-.29.55-.59.34-1.2l-.64-1.84-.88-2.73c.33-.29-.18-.39-.24-.16.03-.64-.08-1.19-.4-1.88,1.07.12,1.71.33,2.42.58Z"/>
    <path class="cls-2" d="M94.28,23.18l-.36,2.41c-.18,1.23.08,2.45.37,3.67l.78,3.29.5,2.14c.32,1.38.56,2.83,1.43,4.13l-.94,1.14-1.59.69-3.61,1.05-.99.41-.4-1.22-.65-2.88-.2-3.24.28-2.98.46-2.18c.24-1.17.65-2.34,1.33-3.31l.58-.83c.54-.76,1.25-1.33,1.87-2.04.25-.15.68-.3.94-.57.03.07.21.14.19.31Z"/>
    <path class="cls-2" d="M76.8,29.01c3.07-.09,5.88,3.04,6.85,6l1.16,3.51.3,2.14.46,2.86.05,1.67.18,4.01-.19,3.16c-.02.4-.2.87-.26,1.5l-.35-.77c.12-.26.05-.58.03-.85l-.14-2.11-.28-3.8-.32-2.62-.53-3.04c-.36-2.05-1.03-4.08-2-5.93-.55-1.06-1.25-2.08-2.21-2.76l-.45-.32c-.73-.52-1.62-.88-2.53-.78-.83.09-1.7.36-2.29.9l-.78.7c-.63.56-1.63,1.42-2.19,2.27l-.71,1.08-1.3,2.11-1.16,2.36c-.63-.52-1.38-.79-2.14-1.07,1.19-2.4,2.55-4.66,4.4-6.76,1.04-1.18,2.21-2.02,3.57-2.92.69-.46,1.93-.52,2.82-.54Z"/>
    <path class="cls-2" d="M58.18,29.08c0,.63.43,1.25.61,1.82l.28.88.94,3.21.6,2.69-.72,3.13-1.05-5.83-.87-3.29c-.22-.83-.51-1.63-.83-2.42-.28-.69-.52-1.46-.95-2.12l-.06-.76c1.25.96,1.62,2.81,2.06,2.7Z"/>
    <path class="cls-2" d="M67.85,26.47c.03.37-.04.82-.2,1-.35.43-.41,1.05-.62,1.51-.52,1.12-.92,2.29-1.18,3.49l-.46,2.16-.85,4.06c-.11.53-.24,1.06-.3,1.8.24.32-.24.62-.37.2l-.41-2.99.54-2.69,1-3.48c.02-.12.17-.28.23-.42l.73-1.74c.45-1.07,1.02-2.16,1.89-2.91Z"/>
    <path class="cls-2" d="M57.88,118.95c.23.67-1.3,1.33-1.86,1.36-.81.05-1.72.17-2.52,0-.82-.18-1.77-.74-2.26-1.4-1.09-1.45.8-4.43,2.23-6.26.62-.79,1.26-1.58,2.29-2.28.32,3.15.68,6.19,2.13,8.58Z"/>
    <path class="cls-2" d="M30.23,22.93c1.02.64,1.94,1.61,2.66,2.57.13.17.33.49.43.68.51.98.97,2.01,1.24,3.09l.61,2.47.27,3.12-.12,2.51-.74,3.63c-.05.26-.27.73-.53.95-.17,0-.49-.21-.64-.25l-3.39-1.05c-1.13-.35-2.23-.71-2.97-1.79.86-1.31,1.14-2.72,1.46-4.09l.63-2.74c.22-.94.47-1.87.65-2.82.2-1.09.47-2.18.39-3.3-.11-1.52-.68-2.9-.28-2.94l.33-.03Z"/>
    <path class="cls-2" d="M47.84,29.01c3.78.17,7.67,5.2,9.4,8.69l.79,1.59c-.85.23-1.54.43-1.93.96l-1.53-2.55c-.4-.71-.71-1.51-1.32-2.12-.07-.26-.37-.61-.51-.81-.71-1.02-1.51-2.07-2.59-2.72-.22-.13-.38-.38-.63-.5-.65-.3-1.28-.68-2.03-.68-2.56-.01-4.47,2.15-5.42,4.36-.75,1.75-1.38,3.56-1.72,5.42l-.51,2.81-.39,2.56-.2,3.22-.23,2.98c-.04.53.15,1.19-.31,1.64l-.23-1.6c-.12-.95-.16-1.91-.15-2.87l.04-3.44.15-2.3c.13-2,.44-4.03,1.06-5.94l.96-2.94c.7-2.14,2.12-3.9,4.15-5.17.89-.56,2.09-.64,3.15-.59Z"/>
    <path class="cls-2" d="M62.72,37.95l.86,2.7.65,2.38c.54-.56.63-1.12.77-1.64l.69-1.01c.76.06,2.23.6,2.14,1.6-.1,1.14-1.35,3.95-.48,3.74.08-.02.22-.1.31-.02l1.19.91c.04.68.02,1.37-.2,2.12l.45.81c1,1.81,1.49,3.87,2.21,5.79.34.9.28,1.77-.22,2.58-.97,1.57-2.01,3.18-3.44,4.37-.63.52-1.38,1.04-2.14,1.21l-1.04.23c-.82.18-1.66.25-2.51.19l-3.01-.23c-2.63-.98-4.24-2.98-5.73-5.33-.05-.07,0-.25-.21-.27-.66-1.01-.47-2.06-.08-3.13l1.89-5.13c.13-.35.62-.94.53-1.4-.15-.72-.37-1.31.07-1.84l.64-.76c.29.06.6-.1.9-.23.08-1.26-.64-2.33-.75-3.61-.08-.93,1.45-1.71,2.19-1.4.21.09.29.33.46.34.03.65.45,1.35.93,2.1l.65-2.37.97-3.15.48-.99c.53.21.65.93.82,1.44ZM56.74,49.13c1.31.32,1.95-.4,2.17-1.29.16-.63.09-1.63-.88-1.97.14,1.47-.33,2.55-1.29,3.26ZM66.06,45.92c-1.14.43-1.13,1.56-.73,2.4.29.62,1.18,1.23,2.1.79-1.14-.79-1.49-1.74-1.36-3.19Z"/>
    <path class="cls-2" d="M65.02,110.56c.67-.09,1.2-.27,2.07-.52-.07.44-.08.67.05.91-.43,4.01-1.59,10.22-5.59,10.09-.8-.19-1.52-.7-1.99-1.39l-.65-.94c-1.33-2.6-1.88-5.51-1.98-8.65,2.8.82,5.42.85,8.07.5Z"/>
    <path class="cls-2" d="M69.45,111.27l1.86,2.3,1.38,2.36c.27.46.44,1.25.4,1.91-.06,1.39-1.31,2.13-2.46,2.42-.87.22-1.83.16-2.71-.02-.62-.13-1.43-.52-1.82-.93,1.44-2.72,2.02-5.75,2.07-8.83.54-.09,1,.45,1.28.8Z"/>
    <path class="cls-2" d="M49.5,76.08c-.02.57.16,1.1.28,1.76-1.9.5-3.69.88-5.51,1-1.14.07-3.01-.49-3.01-1.49,0-.23.17-.54.32-.73h2.97c1.56,0,3.12-.44,4.71-.83.08.23.19.27.24.29Z"/>
    <path class="cls-2" d="M56.27,98.31c.76.12,1.52.28,2.29.32l3.47.17,2.88-.11,3.01-.36,1.57-.27c.51-.09.41.33.5.48.32.55.35,1.51.25,2.19-.26,1.5-.9,1.58-2.3,1.87l-2.66.55-3.29.21-2.68-.16c-1-.06-1.96-.27-2.95-.52-.9-.23-2.25-.36-2.65-1.43-.23-.62-.14-1.73.05-2.22l.56-1.02,1.95.32Z"/>
    <path class="cls-2" d="M46.83,46.13c-.87,1.07-1.57,2.31-1.57,3.93.94-.66,1.55-1.5,2.34-2.22.19.29.11.48.13.62-.36,1.23-1.02,2.56-1.6,3.75-.43.88-.77,1.78-1.03,2.73-.07.24-.33.42-.21.77.31.86.62,1.68.94,2.45.35.83.74,1.57,1.23,2.47l-2.73-1.43c-.49-.26-.86-.66-1.01-1.21-.27-.92-.84-1.83-.76-2.82l.22-2.96c.07-.89.4-1.84.72-2.65.34-.88.81-1.63,1.37-2.56.35-.58,1.35-.72,1.95-.86Z"/>
    <path class="cls-2" d="M78.56,46.55c.13.39.66.6.9.9.41.59.76,1.2,1,1.85.36.95.6,1.94.81,2.93.2.95.25,1.96.2,2.92-.05,1.07-.48,2.05-.8,3.06-.1.31-.31.64-.74.81-.98.37-1.74,1.25-2.71,1.27.54-.66.68-1.44.96-2.16l.94-2.37c.06-.07.14-.16.18-.26-.01.04-1.49-3.74-2.27-5.07,0-.07,0-.28-.05-.35-.04-.06-.13-.1-.23-.08.05-.31-.15-.56-.23-.83-.11-.42-.35-.84-.05-1.28.75.8,1.42,1.52,2.31,2.13,0-1.33-.55-2.27-1.08-3.24-.13-.23-.29-.38-.49-.69l1.35.45Z"/>
  </g>
</svg>