<?xml version="1.0" encoding="UTF-8"?>
<svg id="_レイヤー_1" data-name="レイヤー 1" xmlns="http://www.w3.org/2000/svg" viewBox="0 0 124 124">
  <defs>
    <style>
      .cls-1 {
        fill: #fdd351;
      }

      .cls-2 {
        fill: #fff;
      }
    </style>
  </defs>
  <circle class="cls-1" cx="62" cy="62" r="62"/>
  <g>
    <path class="cls-2" d="M56.98,106.55c.04-6.47-.9-14.99-4.92-19.63-1.98-2.29-4.15-4.06-6.46-5.99-7.12-5.94-11.84-13.38-11.88-22.89,0-1.76.81-3.71,2.65-4.15,1.58-.38,3.22.38,4.51,1.33,5.25,3.87,9.76,8.4,13.83,13.51,4.29,5.37,6.56,11.73,5.77,18.71,2.81.91,2.62-4.52,2.17-8.4,2.52-5.06,6.09-9.13,10.43-12.78,4.88-4.1,23.8-19.55,27.07-16.32.38.38.76,1.22.72,2.02-.46,9.99-8.96,20.7-17.91,25.89l-5.38,3.12c-2.96,1.72-6.05,3.14-8.68,5.43-5.29,4.59-6.35,12.53-6.38,19.62,0,.79-.01,1.9-.71,2.32-1,.6-2.33.49-3.46.29-1.01-.17-1.37-1.1-1.36-2.07Z"/>
    <path class="cls-2" d="M64.17,63.27l-.79,3.08c.12.06.18.14.21.17l1.03-2.82c1.38-3.81,3.26-7.45,5.68-11.16,1.5,3.76-1.75,9.2-4.07,13.1-.92,1.54-1.29,3.2-2.06,4.73-.8,1.58-2.06,2.74-2.53,4.74-.72-1.02-1.33-2.13-1.82-3.27-.13-4.63-1.09-8.96-2.84-13.24-1.24-3.04-1.74-6.05-1.4-9.29.08-.8-.78-1.39-1.31-1.37-2.37.09-1.71,5.98-.5,9.57l3.2,9.55-2.28-2.84c-2.74-3.41-5.96-6.15-9.31-9.04-4.04-8.82-3.75-18.77.81-27.33,1.33-2.5,2.9-4.72,5.09-6.47,2.47-1.97,5.74-1.97,8.21-.02,4.75,3.75,7.15,9.19,8.9,14.73,1.19-.75,1.82-1.79,3.15-2.22-1.17,2.86-2.72,5.06-4.21,7.51-2.59,4.26-4.44,8.61-5.68,13.65-.65-4.01-.51-7.15.91-11.09.34-.94-.16-1.88-.96-2.07-2.88-.7-3.65,7.78-2.58,13.04.65,3.2,1.23,6.12,1.64,9.43,1.13-8.55,4.18-16.34,8.9-23.54,2.64-4.03,4.53-8.26,5.38-12.94.61-3.33.19-6.44-.79-9.6-.36-1.17.2-2.76,1.4-3.02,1.26-.26,2.01,1.06,2.02,2.13v4.27c.02,3.19-.28,6.17-1.22,9.41,2.22-.86,4.25-1.43,6.66-.87-.96,2.83-2.93,5.07-5.26,6.92l-5.01,3.99c-4.54,3.63-7.44,10.78-8.69,16.46,3.63-7.56,6.35-12.75,13.26-18.08,4.53-3.5,7.22-7.42,8.17-12.93.18-1.01,1.41-1.47,2.05-1.27,2.55.76.19,4.1-1.17,6.84.52,1.27,1.56,2.76,1.71,4.37,3.74-.05,7.02-3.53,8.2-1.26.46.89,0,2.24-1.13,2.43l-6.61,1.14-.56-1.12c-13.55,2.23-19.96,13.48-23.82,25.56Z"/>
    <path class="cls-2" d="M31.68,55.23c-1.52,6.96,1.07,13.33,4.46,19.23-10.86-9.69-14.7-25.3-12.35-39.33.39-2.33,1.19-4.57,2.95-6.12,4.03-3.55,10.65,1.68,14.07,5.49-1.36,6.1-1.19,12.03.65,17.98-2.06-1.12-4.17-1.61-6.32-.99-1.77.51-2.99,1.87-3.48,3.75Z"/>
    <path class="cls-2" d="M69.63,65.44c2.01-3.75,4.43-8.15,3.73-12.19-.11-.65-.26-1.03-.77-1.37-.45-.3-.95-.13-1.73-.15,3.95-6.59,10.04-11.22,17.55-12.68.5,3.97-.07,7.89-1.14,11.77-.32,1.15-.66,2.16-1.98,2.58l-11.32,8.68c-1.5,1.04-2.43,2.47-4.33,3.36Z"/>
    <path class="cls-2" d="M54.31,105.42c-5.41-7.61-11.46-14.73-18.79-20.83-2.69-2.24-5.35-4.02-8.11-6.05-.72-.53-1.69-.88-1.83-2.04,11.77,2.02,23.04,9.99,27.87,20.84.79,2.55,1.13,5.04.86,8.08Z"/>
    <path class="cls-2" d="M65.15,105.53c-.62-6.82,2.05-11.39,6.81-15.84,4.46-4.18,10.08-6.59,16.06-7.57.78-.13,1.49-.36,2.41.3l-2.48,1.92c-9.15,5.3-16.77,12.44-22.81,21.2Z"/>
  </g>
</svg>