<?xml version="1.0" encoding="UTF-8"?>
<svg id="_レイヤー_1" data-name="レイヤー 1" xmlns="http://www.w3.org/2000/svg" viewBox="0 0 124 124">
  <defs>
    <style>
      .cls-1 {
        fill: #fff;
      }

      .cls-2 {
        fill: #7c87b6;
      }
    </style>
  </defs>
  <circle class="cls-2" cx="62" cy="62" r="62"/>
  <path class="cls-1" d="M71.48,102.09c-1.41,4.3-4.96,6.89-9.47,6.89-8.83-.01-9.1-7.91-10.93-9.54-3.12-2.79-6.43-5.01-9.82-7.45l-16.37-11.82-10.47-7.89c-2.84-2.14-3.87-5.86-3.45-9.31.4-3.25,2.24-6.46,5.36-8.26,11.09,14.69,22.78,28.51,35.74,41.59.98-.6,1.5-1.4,2.09-2.37l-10.25-11.17c-7.46-8.12-14.64-16.14-21.29-24.91-1.58-2.08-3.42-3.92-4.39-6.28-1.5-3.64-.41-8.15,1.98-11.1,2.15-2.65,5.06-4.07,8.45-4.8l6.45,15.43c6,14.37,12.53,28.25,19.74,42.24.9-.55,1.55-1.17,2.58-1.61l-2.36-5.14c-8.07-17.56-16.66-34.72-23.59-52.87-1.36-4.04,2.73-8.64,5.79-10.25,3.4-1.79,6.56-2.08,10.05-.99l2.46,15.89c2.73,17.67,5.28,35.15,8.53,52.85l2.95-.59-6.93-44.25-3.36-21.91c-.16-1.07-.25-1.96-.33-3.13,2.47-3.8,6.76-6.27,11.24-6.31,4.48-.04,8.87,2.21,11.35,6.14.37.63.07,1.74-.05,2.52l-8.57,55.58-1.8,11.38,2.93.65,6.85-41.72,4.16-27.12c4.5-1.35,9.4-.34,12.77,3.04,1.91,1.92,3.86,5.32,3.14,8.29-6.98,17.65-14.94,34.63-23.17,51.71l-2.84,6.11,2.67,1.65c7.11-13.72,13.48-27.27,19.32-41.32l6.74-16.2c4.2.76,7.92,2.97,9.81,6.82,1.32,2.68,1.69,5.83.79,8.71-.48,1.53-1.63,2.85-2.64,4.12l-7.63,9.65c-7.22,8.63-14.63,16.83-22.29,25.02l-3.51,3.92c.6.88,1.11,1.67,1.94,2.32,2.95-2.7,5.41-5.38,8.08-8.24,9.87-10.61,19.05-21.58,27.78-33.36,5.34,3.27,6.97,10.14,3.82,15.48-1.14,1.93-2.96,2.97-4.69,4.34l-20.44,14.86-11.88,8.65c-1.47,1.07-2.47,2.35-3.04,4.08Z"/>
</svg>