<?xml version="1.0" encoding="UTF-8"?>
<svg id="_レイヤー_1" data-name="レイヤー 1" xmlns="http://www.w3.org/2000/svg" viewBox="0 0 124 124">
  <defs>
    <style>
      .cls-1 {
        fill: #df9933;
      }

      .cls-2 {
        fill: #fff;
      }
    </style>
  </defs>
  <circle class="cls-1" cx="62" cy="62" r="62"/>
  <path class="cls-2" d="M81.59,88.18c.78.39,1.56.75,2.24,1.39,1.42,1.33,1.78,3.57,1.07,5.44l-1.05,2.76c-.17,1.78-.19,3.72-1.43,5.2-2.31,2.77-5.87,4.6-9.54,4.52-2.6-.05-4.69-1.94-5.68-4.08l-1.48-3.21-4.3-8.77c-2.12-4.32-5.92-4.68-10.16-4.95-1.64-.11-3.51-.66-5.06-.08-1.52.57-2.8,1.41-4.48,1.53-2.58.18-4.98-1.72-4.6-4.4.25-1.75-.57-2.88-1.92-3.82-1.46-1.02-2.03-2.61-2.9-4-2.54-4.07-7.03-5.67-8.66-9.89-.72-1.85-4.35-1.87-6.71-8.89-.55-1.64-.44-3.52.59-4.81,1.1-1.38,2.72-2.03,4.56-1.78l4.07.57c1.93.27,3.57.59,5.21,1.75.62.44,1.59,1.34,2.42,1.07l4.07-1.32c2.68-.41,5.18,1.15,5.55,3.77l.27,1.94c.16,1.16.45,2.24.04,3.37-.32.89,0,1.95.72,2.66l4.38,4.32,4.09,3.29c.27.22.96.08,1.15-.08.76-.64-.11-2.56-1.1-4.06-1.05-1.59-1.07-3.54-1.62-5.26-1.66-5.24-5.26-8.17-5.95-16.33-.28-3.32-4.33-2.24-6-4.42l-1.96-4.06c-.61-1.25-1.25-2.3-1.25-3.75,0-1.36.2-2.48,1.16-3.42.77-.76,1.96-1.33,3.28-1.17l2.66.34c.95.12,2.33-.33,2.45-1.51.29-2.89.89-5.91,3.08-7.87l2.44-2.18c2.88-1.96,6.35-2.08,9.06.27,1.96,1.7,3.65,4.06,4.5,6.53.44,1.28.93,2,2.06,2.71,2.23,1.4,2.35,4.27.76,6.3-1.58,2.02-2.16,4.44-1.74,6.94.5,2.97,1.04,7.31,2.6,5.93l1.87-1.65c.93-.82,1.51-1.62,2.03-2.66.76-1.53,2.28-2.47,3.48-3.6l2.25-2.98c1.18-1.57,2.32-3.76,4.22-4.44l5.27-1.9c2.48-1.26,5.37-.3,6.36,2.42.86,2.36.79,5.13.42,7.64-.23,1.55.15,2.51,1.11,3.61.93,1.07,1.6,2.62,1.28,3.98-.97,4.11-5.23,3.18-6.22,3.89-1.58,1.12-2.82.23-3.62.9-1.09.91.18,4.21-2.42,5.76-1.58.94-3.17.84-4.93-.02-1.39-.68-3.61-.4-4.84.44-1.74,1.18-2.12,3.21-1.76,5.06.49,2.51,1.53,6.77,3.04,7.26.52.17,2.7-.9,3.56-3.04,2.17-5.39,6.84-4.78,8.54-7.02,1.55-2.06,2.91-4.21,5.21-5.43,1.75-.93,3.81-.79,5.62-1.25l2.18-.56c1.73-.44,3.35-.24,4.63.93,1.17,1.07,1.96,2.66,1.44,4.43l-1.09,3.71c-1.75,5.95-6.02,5.6-5.39,7.31.4,1.08,3.04,1.8,2.94,4.91-.05,1.59-1.18,2.96-2.67,3.67-2.61,1.25-5.06,1.08-7.6-.09-1.33-.61-3.4.39-4.14,1.42-.83,1.15-1.75,1.71-2.85,2.49-1.6,1.13-4.67-1.5-6.69.58-.96,1,.35,5,1.85,5.75Z"/>
</svg>