<?xml version="1.0" encoding="UTF-8"?>
<svg id="_レイヤー_1" data-name="レイヤー 1" xmlns="http://www.w3.org/2000/svg" viewBox="0 0 124 124">
  <defs>
    <style>
      .cls-1 {
        fill: #4a6699;
      }

      .cls-2 {
        fill: #fff;
      }
    </style>
  </defs>
  <circle class="cls-1" cx="62" cy="62" r="62"/>
  <g>
    <path class="cls-2" d="M40.54,68.42c-1.26-.38-2.05.45-2.81.27-.3-.07-.54-.48-.73-.8-.96-1.61-2.45-.22-3.41-.31-.26-.02-.46-.41-.66-.69-1.31-1.78-2.82-.3-3.41-.41-.53-.1-.84-1.27-1.8-1.47l-5.79-1.16c-.53-.11-1.03-.65-1.07-1.04-.07-.64.59-1.01,1.18-1.15l6.27-1.44,1.28-1.35c.84.45,1.5.76,2.32.54.69-.18,1.17-.71,1.57-1.54.91.11,1.74.54,2.61.45.71-.08,1.05-1.06,1.51-1.34l2.34.38,2.27-.58-1.38-.72c2.13-1.16,4.14-2.44,5.62-4.53,2.12.75,3.9,1.63,5.66,3.07,5.81-1.27,11.57-2.04,17.49-2.32,3.57-2.1,5.53-5.67,5.27-9.78,4,2.69,6.83,6.12,9.17,10,9.37.92,19.82,3.05,27.76,7.97.85.53,1.61,1.14,2.21,2.06l-4.55,2.81,4.62-.34c-.29.89-.92,1.28-1.5,1.69-4.69,3.38-11.85,5.15-17.76,6.28-4.29-3.77-5.08-9.52-2.58-14.68-1.88,2.01-2.64,4.64-2.81,7.33.07,2.81,1.02,5.27,2.47,7.81l-6.75.78c-1.49,2.92-3.57,5.68-6.84,7.31-.36-1.56-.54-3.22-.31-4.78.19-1.25,1.59-1.57,2.62-2.34-9.74.31-19.31-.61-28.77-3.01-1.8,1.27-3.52,2.27-5.48,2.87-1.43-2-3.39-3.3-5.48-4.46l1.81-.71-2.17-.66ZM101.89,58.99c-1.66.69-2.18,2.42-1.56,3.87.59,1.38,2.26,2.06,3.61,1.55,1.55-.59,2.23-2.26,1.72-3.73-.5-1.43-2.21-2.33-3.77-1.68ZM84.75,65.85c-.41-2.12.89-2.35,2.54-3.54-3.78-1.29-7.55-.94-11.57-.83l-40.05,1.05c-1,.03-1.76.16-2.73.34,14.13.82,28.26,1.04,42.52.88,2.92-.03,4.25,4.01,9.28,2.1Z"/>
    <path class="cls-2" d="M24.61,65.54c-4.36,3.98-9.33,9.38-14.67,10.37l6.38-12.21c.35-.67.42-1.07.05-1.77l-6.46-12.32c2.28.35,4.15,1.39,5.93,2.69,3.14,2.29,5.85,4.89,8.53,7.73-2.49.45-4.76,1.01-4.53,3.03.09.82.68,1.56,1.6,1.77l3.17.72Z"/>
    <path class="cls-2" d="M102.11,60.44c.75-.54,1.69-.3,2.12.43.35.58.3,1.54-.36,2.02-.61.45-1.46.29-1.93-.17-.61-.6-.61-1.71.17-2.27Z"/>
  </g>
</svg>