<?xml version="1.0" encoding="UTF-8"?>
<svg id="_レイヤー_1" data-name="レイヤー 1" xmlns="http://www.w3.org/2000/svg" viewBox="0 0 124 124">
  <defs>
    <style>
      .cls-1 {
        fill: #fff;
      }

      .cls-2 {
        fill: #458799;
      }
    </style>
  </defs>
  <circle class="cls-2" cx="62" cy="62" r="62"/>
  <g>
    <path class="cls-1" d="M83.79,29.97c.62-.05,1.45-.03,2.05.06,1.54.23,3.11.63,4.47,1.39,2.4,1.34,4.35,3.41,5.13,5.94.18.59.26,1.32.7,1.9.71.92,1.88,2.1,2.65,2.72l.26.21c1.61,1.29,3.32,2.44,5.3,3.01.47.13,1.07.49,1.52.8.73.51.75,1.61.3,2.41l-1.56.4-2.98-.04-1.95-.2c-.7-.07-1.5.02-2.06-.2-.71-.89-1.84-.91-2.73-1.24l-2.1-.78c-.53-.2-.95-.27-1.5-.24l-1.11.05c-.57.03-1.15.31-1.57.71-.45.42-.57,1.12-.44,1.69.26,1.12,1.29,1.86,2.25,2.42,0,.11.12.1.16.13l2.02,1.43.89.73,1.52,1.2,1.19,1.05,1.07,1.12,1.11,1.34,1.09,1.56c.11.15.24.46.33.64l1.03,2.31c.24.54.15,1.48.58,2.06.07,1.45.26,2.89.17,4.33,0,.09-.04.15-.12.21-.07.05-.05.17.03.24l-.38,2.3-.59,1.92c-.15.49-.45.85-1.03,1.06l-2.42.89c.17.47-.12.56-.39.54-.66,0-1.12-.04-1.72-.19l-2.33-.57-2.2-1.1c.05-.17-.11-.24-.23-.21l-1.22-1.24c-.28-.29-.55-.37-.86-.26,0-.06-.04-.13.03-.19.09-.07.11-.14.01-.24l-1.97-1.86c-.46-.43-.93-.83-1.45-1.18l-1.52-1.03-2.05-1.08c-.24-.13-.62-.06-.88-.25-.39-.27-.88-.38-1.34-.47l-2.21-.45c-.73-.15-1.46-.19-2.19-.21-.84-.03-1.67.05-2.5.16-.76.11-1.49.26-2.2.49-.58.19-1.33.23-1.81.72-.06-.03-.16-.1-.26-.05-1.1.58-2.29,1.01-3.19,1.91-.05.02-.13.04-.14.1-.4.19-.67.91-.36,1.34.32.45.79.54,1.27.22l1.34-.88.89-.46c.73-.38,1.47-.67,2.25-.92,2.16-.69,4.48-1.06,6.7-.56l2.47.56c.95.22,1.83.68,2.67,1.17l1.13.66.48.28c2.35,1.39,4.92,4.88,6.97,6.02,1.51.84,3.19,1.44,4.89,1.37.82-.03,1.65,0,2.44-.22,1.68-.47,2.71-1.52,4.24-1.8.8-.15,1.47.23,2.25.41,0,.09-.02.17.03.25.44.6.86,1.32.86,2.09,0,.6-.31,1.19-.56,1.8l-.16.41c-.08.2.15.28.19.4.12.48.38,1.37.31,1.89-.24,1.73-1.63,2.89-3.36,2.44-1.07-.15-2.06-.66-3.12-1.25-.3-.17-.7-.12-.86-.25-.25-.21-.83-.18-1.09-.27-.45-.22-.96-.13-1.53-.03l-1.86.32c-1.74.3-3.27,1.37-4.78,2.3l-1.96,1.21c-.2.12-.53.33-.74.43l-1.86.94c-1.45.73-3.02,1.23-4.63,1.41l-2,.23-2.94.04c-.59,0-1.33-.03-1.89-.18l-2.42-.64c-.74-.2-1.39-.34-2.09-.33l-2.44.02h-2.23s-2.09,0-2.09,0h-2.43c-.21-.03-.24-.19-.21-.33.56-.25.84-.87,1.12-1.35.34-.6.58-1.27.66-1.98.1-.93-.02-1.78-.36-2.63-.24-.61-.67-1.44-1.11-1.83-.15-.17-.28-.52-.43-.73-.47-.63-1.19-1.39-1.84-1.74-.16-.08-.34-.32-.49-.42l-1.73-1.2-4.71-2.46c-.33-.44-.81-.18-.69-.79.36-.04.49-.42.69-.52.66-.34,1.39-1.08,1.92-1.65,1.72-1.86,3.09-4.03,3.48-6.56.13-.83-.08-1.71-.48-2.46-.28-.53-.71-.92-1.25-1.15-.29-.12-.58-.29-.96-.33-.75-.09-1.57.07-2.31.59l-3.18,2.18-1.99,1.16-1.9.87c-1.68.77-3.48,1.22-5.24,1.72-.57.16-1.14.33-1.68.54-.79.3-1.6.61-2.38,1-.07.03-.15,0-.15.14-1.78.98-3.08,2.72-3.36,4.74-.1.72-.12,1.37.02,2.08.14.7.22,1.48.68,2.14-.52.4-1.2.44-1.8.64-1.48.48-2.84,1.34-3.8,2.71l-.88-.72-.23-.2-2.02-2.08c-.05-.06-.14-.13-.13-.21l-3.73-4.82-1.28-2.14c-.36-.61-.67-1.41-.88-2.09-.49-1.57-.89-3.17-.92-4.81-.01-.63.06-1.32.19-1.94.04-.16,0-.34-.06-.5.61-.68,1.32-.9,2.13-.67l2.39.69c.72.21,1.48.17,2.21.19,1.22.04,2.28-.4,3.13-1.36l2.73-3.05c1.08-1.21,2.21-2.28,3.42-3.2,2.26-1.72,4.59-3.4,7.19-4.56l2.92-1.31,1.39-.45,1.85-.55,2.73-.63c.57-.13,1.42-.04,1.87-.48l2.62-.13c.82-.07,1.64-.04,2.38-.01l2.82.09,3.99.53,2.09.45,2.49.73.94.39c.41.17,1.03.22,1.39.43.59.33,1.29.49,1.9.79l1.3.66,3.7,1.94c.65.34,1.14,1.14,2.17.98-.12-.86-.52-1.62-.94-2.23.15-.15.09-.33-.11-.41-.88-1.54-1.57-3.09-1.96-4.69l-.51-2.11c-.1-.42-.17-1.14-.06-1.53.12-.42-.11-.7-.09-.97l.17-2.01.71-2.53c.72-2.54,2.73-4.49,5.11-5.8,1.44-.79,3.12-1.21,4.78-1.34Z"/>
    <path class="cls-1" d="M51.42,62.99c.42.03.78.17,1.05.53.22.29.28.71.25,1.11-.07.77-.22,1.56-.59,2.26-1.64,3.12-2.93,4.18-5.59,6.29l-.5.39c-.46.36-1.04.56-1.47,1.07l2.18.97,4.66,2.19,2.79,1.79c1.44.92,2.67,2.14,3.47,3.7.87,1.69.25,3.77-1,4.95-.18.07-.5,0-.51.29-1.47.87-3.12,1.33-4.82,1.6-.69-.11-1.42.16-2.08.17l-2.66.07-2.07-.06-2.45-.14-2-.12-4.23-.66c-.92-.14-1.84-.29-2.74-.53-.83-.22-1.65-.43-2.47-.72-2.71-.97-5-2.27-4.13-5.1.25-.81,1.15-1.66,2.18-2l2.09-.68,2.8-.29-1.07-1.78-.75-1.75c-.41-.95-.29-2.08-.07-3.07l1.2-1.68c.1,0,.19-.11.23-.18.71-.45,1.4-1.07,2.22-1.31l4.66-1.36,2.32-.83,2.25-.94,2.21-1.22,1.31-.84,1.18-.82,2.14-1.28Z"/>
  </g>
</svg>