<?xml version="1.0" encoding="UTF-8"?>
<svg id="_レイヤー_1" data-name="レイヤー 1" xmlns="http://www.w3.org/2000/svg" viewBox="0 0 124 124">
  <defs>
    <style>
      .cls-1 {
        fill: #fff;
      }

      .cls-2 {
        fill: #bda74f;
      }
    </style>
  </defs>
  <circle class="cls-2" cx="62" cy="62" r="62"/>
  <path class="cls-1" d="M71.85,22.34c.11.17.23.44.53.44.13.99-.17,1.92-.36,2.88-.11.6-.19,1.1-.18,1.72.03,1.51.28,3.04.89,4.47.4.94,1.13,1.78,1.76,2.61l.65.86c.76,1.01,1.8,1.79,2.85,2.48l6.71,4.34c2.09,1.5,4.1,2.9,5.79,4.94.2-.05.35,0,.54.19.02.16-.06.32.16.48l.27.19c1.74,2.05,3.16,4.26,4.49,6.62.16.63.61,1.46.88,1.99.1.19.22.51.28.74l1.16,3.91.64,3.08c.18.89.16,2.01.13,2.96l-.1,3.34-.48,2.82-1.02,3.79c-.61,2.28.1,3.16-1.06,2.58l-2.04,3.63c-.15.27-.41.67-.34.99l-1.79,2.07c-1.45,1.73-3.06,3.28-4.83,4.72-.65.53-1.58.92-2.07,1.7-.67.1-1.14.6-1.72.94-1.68.99-3.33,2.01-5.13,2.75l-3.69,1.52c-.42.17-1.13.08-1.58.54l-3.97.88.5.9c.2.37.28.99.76,1.13.22.6.71,1.1.78,1.99-.89.66-1.99.69-2.8.32l-2.98-1.33c-.04-.26-.27-.64-.8-.82-.39,1.68-.91,3.18-1.95,4.27-.36-.05-.6.08-.61.37-1.76-.87-2.44-2.75-2.72-4.76-1.25,1.13-2.56,1.98-4.03,2.42-.5.15-1.31.01-1.92-.08-.27-.1-.42-.16-.54-.3-.09-.1-.13-.27-.23-.5l1.81-3.43c-.25-.49-1.3-.69-1.74-.59-.1-.1-.28-.21-.47-.26l-3.12-.95-3.07-1.07c-2.29-.8-4.36-2.18-6.46-3.45,0-.12-.02-.17-.1-.23-.07-.06-.33-.11-.4-.11l-2.45-1.88-1.58-1.31-1.91-1.87c-1.41-1.38-2.64-3.03-3.69-4.69-1.2-1.92-2.36-4-2.96-6.17l-.86-3.12-.65-3.6c-.15-.85-.16-1.93-.08-2.84l.23-2.64c.13-1.51.33-2.97.73-4.43.56-2.07,1.3-4.07,2.27-6.02,1.1-2.2,2.89-4.43,4.29-6.37.17-.23.61-.44.71-.68,2.87-2.97,6.28-5.29,9.75-7.55l2.46-1.63.36-.28c2.33-1.4,4.47-3.62,5.57-6.11.44-1.01.62-1.93.73-2.97.14-1.28.15-2.63-.21-3.95-.11-.39-.24-.82-.17-1.31.04-.28.51-.47.76-.58,1.33.53,2.68,1.04,3.84,1.82,1.87,1.27,2.34,2.04,3.52,3.93l-3.25,6.13-2.8,5.99-1.46,3.97c-.04.11-.11.29-.17.39-.54.98-.74,2.13-1.06,3.14l-.94,2.99-.6,2.85-.61,3.85-.24,2.67-.17,6.63c-.05,2.14.33,4.3.59,6.4.13,1.01.24,2.05.51,3.02l.99,3.56,1.28,3.96,1.19,2.52c.23-1.15-.36-2.2-.45-3.24-.09-1.02-.33-1.99-.42-2.99l-.32-3.54-.32-3.3-.15-3.39c-.04-.95-.03-2.01.01-2.96l.14-3.67.32-3.05.53-4.03c.07-.56.34-1.21.08-1.77.27-.09.25-.25.31-.5l.53-2.35,1.25-5.02c.57-.66.75-1.59,1.07-2.37l2.55-6.16,1.34-3.15,3.25-6.44c1.3-2.57,6.3-6.8,9.04-6.57ZM44.95,44.35c-5.17,3.18-9.13,8.27-10.86,14.05l-.68,2.28c-1.03,3.44-1.16,7.08-.56,10.61l.51,3c.17,1.01.61,1.95.89,2.88.57,1.88,1.48,3.64,2.5,5.34,1.75,2.9,4.14,5.4,7.01,7.47l-2.53-3.82-1.4-2.37-.18-.45c-.36-.89-.68-1.85-1.32-2.59-.51-2.47-1.8-5.1-1.99-7.92l-.2-3.04v-1.74s.21-3.68.21-3.68c.15-2.48.84-4.94,1.84-7.2l1.19-2.67c1.62-3.62,4.12-6.74,6.76-9.69l1.77-1.98c-1.22.16-2.19.85-2.95,1.51ZM87.26,61.38l.45,2.43.17,3.23-.06,3.38c-.04,2.3-.47,4.6-1.24,6.77l-1.08,3.03c-1,2.18-2.13,4.27-3.44,6.28-.62-.05-.39.68-.62.89-.62.52-1.55,1.67-2.13,2.58.89-.14,1.64-.56,2.24-1.05l2.13-1.73c.79-.64,1.42-1.41,1.93-2.27.7-.2.78-1.03,1.13-1.42.66-.73,1.32-1.74,1.6-2.58l.14-.41c.69-.92,1.2-2.58,1.57-3.73.32-1.01.63-2.02.78-3.09l.33-2.25c.2-1.38.06-2.78-.12-4.09-.17-1.19-.28-2.36-.62-3.5l-1.01-3.43c-.73-2.48-2.05-4.93-4.17-6.75.74,2.84,1.83,5.14,2.01,7.72ZM73.52,70.04l-.46,3.43-.48,3.56-.5,3.05c-.36,2.17-.82,4.31-1.54,6.37l-1.05,3.02-1.53,3.21-1.87,2.87c1-.38,1.76-.86,2.51-1.43,2.48-1.89,4.07-4.58,5.13-7.53.38-1.07.58-2.15.81-3.16.74-3.19,1.01-6.37.42-9.52.74-.43.25-1.32.23-1.74-.03-.62-.05-.95-.19-1.42-.25-.83-.21-1.89-.88-2.94-.63.61-.5,1.44-.61,2.21Z"/>
</svg>