<?xml version="1.0" encoding="UTF-8"?>
<svg id="_レイヤー_1" data-name="レイヤー 1" xmlns="http://www.w3.org/2000/svg" viewBox="0 0 124 124">
  <defs>
    <style>
      .cls-1 {
        fill: #fff;
      }

      .cls-2 {
        fill: #cc8949;
      }
    </style>
  </defs>
  <circle class="cls-2" cx="62" cy="62" r="62"/>
  <g>
    <path class="cls-1" d="M76.66,103.88c-3.41.18-4.08,1.1-4.35,1.11-.56.03-1.12-.24-1.75-.74-2.01,2.14-3.55,4.3-6.15,3.22-1.89,1.05-3.77,1.32-5.92.81l-2.13-2.56c-1.12.64-2.36-.5-3.15-.49-1.93.03-3.72.87-5.24-.66-.44-.44-.74-1.33-1.09-2-1.17-.35-1.79-1.3-1.57-2.53-.8-.77-1.37-1.62-1.41-2.67l-2.13-1.26c-1.41-.83-1.39-2.33-1.08-3.7.25-1.12-1.37-1.68-1.56-2.37-.4-1.42-.13-3.02.24-4.4.23-.86,1.27-1.57,1.22-2.65-.06-1.37-.48-2.84-.2-4.2.2-.94,1.25-1.33,1.68-1.95,1.64-2.35,2.47-2.43,2.06-4.31-.73-3.33,2.86-3.57,4.8-5.56.51-.9,1.44-1.83,1.79-2.68,2.35-5.64,5.79-2.49,9.48-5.37,1.26-.98,2.62-.47,4.05-.02.29.09.91-.49,1.21-.43.43.09.75.2,1.05.71.98,1.69,3.53.59,3.45,3.61,2.73-.89,3.14.86,4.69.83,1.03-1.38,2.74-2.5,4.53-2.42.97.04,1.7.6,2.11,1.31l1.84,3.23.58,1.84c2.88-.07,2.22,1.48,4.06,2.71.75,1.97-1.05,3.17-.4,4.67.25.57,5.41,3.42,4.01,6.95-1.48,3.74,2.11,4.57.73,6.6l-2.08,3.06c-.29.43-1.03.94-1.18,1.34-.49,1.33-.4,3.25-1.8,3.89l-2.92,1.35c-1.03.47-1.87.78-2.93,0-.2,1.28-1.03,1.87-1.72,2.46.13,1.69-.89,3.18-2.86,3.28ZM50.05,73.91c-.18-1.32.9-2.38,2.26-2.36,3.13.05,1.36-3.3,4.07-3.76.76-1.46,2.21-2.12,3.98-2.47-1.69-.91-6.04-.23-6.55,1.03l-1.21,3.02c-1.35.28-2.63.7-3.77,1.43-.97.62-.64,2.11-.71,3.1-.09,1.24-.93,2.2-.2,3.5.44-1.74,2.33-2.19,2.14-3.49ZM81.79,76.96c.97-1.68-.22-2.6-.5-3.89-.22-.99.39-2.41-.75-2.97-1.36-.67-3.07-.82-4.58-.59.94.77,1.88,1.04,2.6,1.76.5.5-.16,1.67-.03,2.18.54.58.91,1.39,1.21,1.85.83.28,1.46.92,2.04,1.66ZM77.05,94.5c1.41.6,2.25-.19,2.66-1.06.23-.09.68-.19.7-.37l.08-.68c.07-.56.01-.95.29-1.21.41-.38,1.52-.44,2.62-.67.45-.45,1.23-.9,1.8-1.31,1.07-.78.34-2.41.07-3.35-.29-1.01-.38-1.66-1.42-2.1-.62-.27-1.09-.66-1.57-1.5-.38,1.3-.24,2.39.5,3.46.41.59-.11,1.71-.54,2.08-.61.52-1.45.59-2.13.87-.63.26-1.14,1.16-1.78,1.32.09,2.06-1.74,2.05-2.74,2.69-1.11.71-1.44,2.95-3.34,3,.86.71,1.48.4,2.18.12,1.09.25,1.96-.16,2.61-1.29ZM63.36,98.95c-2.09.08-3.37-.54-4.62-1.69-.41-.54-.99-.6-1.61-.35-2.13.84-2.26-1.64-3.45-2.42-.29-.19-.93.14-1.35.09-1.26-.15-2.17-1.01-3.15-1.62-1.15-.72-1.67-1.73-1.29-3.06.56-1.93-1.73-1.72-2.24-3.83-.6,1.08-.54,2.2.49,3.22-.68,1.7-.42,4.2,1.3,5.03,1.07.51,1.66.68,1.87,2,.08.48,1.14.29,1.52.28.99-.04,1.25,1.29,1.79,1.7l1.75,1.32c1.16.87,2.52-.16,3.55-.46,1.81.85,3.92,1.13,5.44-.19Z"/>
    <path class="cls-1" d="M99.27,83.66c-2.87-.07-4.59,2.72-5.57,1.19-1.06-1.65.76-3.68.24-5.24-.78-2.32-2.31-4.2-4.11-5.76,1.52-4.34-.92-6.23-4.48-8.76-.56-1.55-1.21-2.95-2.19-4.15-2.29-2.83-6.03-2.37-9.1-.11-.41-.4-1.38-.4-1.93-.51-1.13-1.08-2.1-2.13-3.77-2.49-1.01-1.5-2.68-2.08-4.43-1.46-1.4-.27-2.82-.52-4.04.14l-2.91,1.58-.87-2.69c-.31-.95.39-2.28.97-3.09.52-.72,3.29-1.12,3.28-3.86,0-1.34.67-2.36,1.53-3.11,2.3-2,5.3.48,5.82-2.02.25-1.21.65-2.35,1.27-3.5.49-1.31,1.77-2.03,3.13-2.28.8-1.36,2.23-1.98,3.64-1.29,2,.75,3.06-2.49,5.38-1.93.98.23,1.69.97,2.62,1.43,1.52-1.34,4.78-1.51,5.81-.2.39.5.8,1.63,1.49,1.57l2.91-.26,1.98,1.63c1.16-.08,2.18.03,2.89.64,1.68,1.43.23,3.34,1.4,5.1.4.6,1.31.56,1.91.74,1.34.38.71,1.79.82,2.48.22,1.42.62,2.4-.17,3.81-.16.29-.27,1.15-.07,1.49,2.32.84,5.97-.92,6.5,1.02l.75,2.7c.25.91.35,1.6,1.39,2.17,2.38,1.29,1.81,4.64-.09,7.05-.53.68-.99,1.39-.47,2.23.87,1.4.38,2.47-.32,3.76-.63,1.17-.94,2.13-2.26,2.92-4.16,2.47-1.94,3.18-2.81,4.68l-2.01,3.48c-.7,1.2-2.66.94-4.14.9ZM70.5,48.94c.85-1.23,1.29-2.51,2.85-2.89l2.62.19c.78-.47,1.29-.56,2.21-.24l3.35,1.16c-.64-1.82-1.83-2.22-3.42-3.23-1.13-.18-1.81-.42-2.66-1.02-.96-.68-4.02,1.4-5.17,3.29-.35.25-1.41.03-1.75.32-.28.24-.59.72-.55,1.28.1,1.39-1.51,1.79-1.48,3.99.68-.22.69-1.06,1.23-1.36l2.78-1.49ZM98.28,75.21c1.49.08,2.51-.31,3.2-1.24l.39-1.52,2.24-.93c1.95-.81-.81-2.9.67-4.68.63-.75.33-1.31.39-1.99.23-2.98,1.39-4.5,1.28-4.96-.13-.54-.79-.93-1.07-1.54-.32-.72-.47-1.54-.94-1.87-1.37-.99-3.69.58-5.01-1.59-1.27-2.08-3.45-.91-3.67-2.58-.26-1.98-1.85-3.45-3.77-3.54.43,1.05,1.13,1.54,1.64,2.25.96,1.34-.26,3.03.84,4.43.57.73,1.67-.82,3.75,1.22l2.04,2.01c.61-.31,1.63-.9,2.15-.55,1.16.78,1.51,2.23,1.57,3.63-.94.84-1.33,2.07-1.06,3.36l-1.36,1.19c.25,1.1.95,2.18.9,3.35-.04.74-1.28,1-1.68,1.34-.99.84.61,3.03-2.5,4.21Z"/>
    <path class="cls-1" d="M35.86,91.82c-2.12-.93-3.21,1.23-4.59,1.29-1.54.07-2.93-.8-3.88-2.03-.82-.1-1.45.54-2.15.86-1.31.6-2.73.02-3.79-.78l-3.07-2.33c-.65-.49-.57-1.35-.79-2.1-.22-.74-1.32-1.09-1.94-1.04-1.41.11-2.18-.44-2.94-1.42-.84-1.09-1.02-2.21-.54-3.55.51-1.41-.13-2.46-.77-3.64-.32-.58-.51-2.25-.08-2.75l2.8-3.28c-.57-1.39-.51-2.71.89-3.55-.78-2.06-.99-4.73.19-5.71l2.62-1.26c-.4-1.1.06-1.83.45-2.72,1.67-3.75,3.46-1.59,5.19-2.95.7-1.48,2-2.5,3.69-2.36,2.52-1.93,3.9-1.48,6.46.13,3.47-.77,3.46,1.71,4.71,1.89.23.03.45-.19.76-.35l2.94-1.56c1.8-.96,2.94-.03,4.44.78.86.46,2.59-.03,3.21,1.39.95-.14,1.33.36,1.7,1.13,1.06.15,2.11,1.54,1.66,2.77-2.23,1-4,3.22-5.13,5.74-1.05,2.34-5.38,2.54-6.07,6.1l-.13,2.81c-.84,2.39-5.13,3.39-3.39,9.21l-1.49,3.29-.07,4.53.51,1.1-1.38.34ZM30.7,57.67c-1.41-.03-2.83.71-4.13,1.32-2.15-.47-3.65.95-4.49,2.66-.48.28-1.29.49-1.63,1.07-.33.57.34,1.49.22,2.16-.25,1.45-.54,3,.94,4,.24-1.76,1-3.04,2-4.41-.26-.95.2-2.03,1.12-2.43,1.19-.28,2.22-.4,3.55-.18.29-1.38,1.03-2.31,2.01-3.02.68-.19,1.17-.65,2.2-.63-.43-.6-1.17-.69-1.81-.54ZM28.56,85.42l-2.13-.96c-.69-.31-1.01-.91-1.99-.8-.43.05-.95.03-1.24-.33-.34-.44-.24-1.39-1.06-2.18-.49-.47-3.29.64-3.47-1.37-.05-.61.22-1.45-.28-2.05-.78-.95-.91-1.94-.74-3.32-2.76,2.67-.49,3.95-1.04,4.95-.7,1.25-.27,2.56.96,3.21.87.46,1.55.68,2.6.6.88-.07,1.16,3.14,4.06,2.78,1.39-.17,2.85.21,4.32-.53Z"/>
    <path class="cls-1" d="M42.2,49.54l-2.57-1.22c-.36.85-.98.58-1.51.64-1.32.14-2.44.62-3.57-.23-.63-.47-1.54-.53-1.88-1.58-.19-.58-1.31-1.13-1.26-1.81.03-.39.65-1.26.25-1.58-1.03-.55-1.94-1.35-1.59-2.57-.65-1.11-.18-2.25,1-2.64.27-1.34.91-2.08,1.94-2.73,1-.63,1.79-1.27,3.19-.19.08-.96.42-1.19.91-1.85-.6-.78-1.92-2.39-1.31-3.29.61-.92,1.36-1.48,1.72-2.58.28-.88,1.63-1.25,2.33-.95.86.37,1.53.02,2.12-.53,1.2-.89,2.69-.89,3.7.33,1.61-.71,3.26-.5,4.16.78.23.44.52.72.89.7.42-.02.76-.11,1-.46-.87-.63-1.04-1.47-1.61-2.25l.41-2.4c-.29-.82-1.16-1.62-1.65-2.33l-1.42-.75c-.5-.27-.7-.55-.86-.8-.35-.55.17-1.12.14-1.47-.08-.98.35-1.58.96-1.95.89-.55,1.47-.02,2.39.02.98.04,2.13-1.49,4.51,1.27,1.3-.42,2.48.35,2.69,1.53l2.7,1.55c1.31.75,1.75,2.26,1.02,3.92.46.18.94-.14,1.22-.68.46.15.9.2,1.11.05.57-1.29,1.9-.89,2.82-.82,1.3.09,1.61.39,2.2,1.53.43.83,1.69,1.84,1.32,2.91-.49,1.44-1.2,2.56-2.36,3.6,1.12.95,1.16,2.19.4,3.09.78,1.16-.52,2.31-2.07,2.85.12.96-.44,1.89-.59,2.56-.38,1.67-.97,2.3-2.62,2.69-1.46.35-3.38,1.7-4.05,3.1-.9,1.88-1.65,5.72-5.33,4.57-.86-.27-1.79-.08-2.77-.08-1.86,1.52-4.37,1.4-6.16-.08-.6.35-1.24.45-1.94.12ZM57.66,30.89c.24-.94,1.34-1.11,2.05-.44.8-.91,1.74-1.2,2.79-.75-.14-1.06-1.28-1.71-2.14-1.34-1.77.77-1.92-.67-3.41-.22-.7.21-.72.88-1.06,1.4-.67,1.02-1.85,1.35-2.74,2.12l-.35,2.27c1.52-.34,1.31-2.06,3.79-1.81.36.04,1.12-.61,1.07-1.24ZM36.96,44.24c-.05-1.56.56-2.5,1.4-3.56.74-.93,1.9-1.07,3.14-.52.16-1.79-.66-3.2.27-3.67.81-.42.68-.96.78-1.67.13-.94,1.68-1.24,2.4-1.38,1.18-.23.72-1.52,2.32-2.26-1.14-.18-1.83.32-2.66,1.08-.38-.39-.78-.66-1.21-.55-.6.16-1.67.99-1.98,1.85-.96.23-1.68,1.07-1.45,2.11-.52.14-.78.53-.66,1.07.39,1.85-2.25,1.78-2.95,2.7-.56.73-.15,1.43-.21,2.11-.1,1.09-.17,1.94.83,2.7ZM53.6,39.15c-.74-1.29-1.83-.76-2.76-.53-.79.2-1.57.04-2.12.69-.5.6-.2,1.44-.47,2.23-.25.74-1.25,1.66-.22,2.48,2.05-2.23,1.93-4.35,5.56-4.88Z"/>
  </g>
</svg>