<?xml version="1.0" encoding="UTF-8"?>
<svg id="_レイヤー_1" data-name="レイヤー 1" xmlns="http://www.w3.org/2000/svg" viewBox="0 0 124 124">
  <defs>
    <style>
      .cls-1 {
        fill: #fff;
      }

      .cls-2 {
        fill: #667;
      }
    </style>
  </defs>
  <circle class="cls-2" cx="62" cy="62" r="62"/>
  <g>
    <path class="cls-1" d="M93.09,47.29c.36.85.44,1.7.03,2.62-.76,1.73-.86,3.5-1.17,5.2-.51,2.83-1.31,5.62-2.35,8.3-2.37,6.08-6.33,11.3-10.85,16l-.78.81c-2.35,2.44-5.11,4.48-7.97,6.27l-2.01,1.26-5.93,3.06-6.15,2.59c-.89.37-1.62.77-2.28,1.24-1.11.79-2.59.7-3.64-.11-.93-.71-2.11-1.99-1.66-3.21l1.42-3.84,2.27-7.61c.13-.42.33-.85.49-1.26,2.29-5.96,5.52-11.53,9.58-16.45,1.91-2.31,4.08-4.44,6.34-6.47.38-.34,1.23-.67,1.34-1.21,2.9-1.91,5.72-3.97,8.94-5.23l4.08-1.61,3.98-1.24c.88-.28,1.77-1.11,2.89-1.17,1.5-.07,2.45,1.49,3.43,2.07ZM53.83,86.76c5.45-7.05,9.69-13.76,15.25-20.09,5.19-6.38,11.18-11.42,17.33-17.01-3.83.9-6.37,3.33-9.37,5.36-6.29,5.12-11.58,10.91-16.03,17.73-2.92,4.48-5.91,8.92-7.18,14ZM81.59,63.13c-.9,1.26-2.07,2.45-2.78,3.83l-4.06,4.57c-1.51,1.75-3.16,3.4-4.82,5l-4.46,4.3-8.95,8.22c.7.16,1.31-.16,1.96-.56,7.33-4.54,13.93-10.06,19.59-16.33.13-.15.33-.48.36-.7,2.25-2.45,4.32-5.15,6-8.03,1.98-3.4,4.14-6.86,4.92-11.21l-7.77,10.9Z"/>
    <path class="cls-1" d="M37.91,38.03l1.89,1.02c2.32,1.25,4.52,2.69,6.47,4.47.48.44,1.1.84,1.59,1.26,1.89,2.05,3.92,4.02,5.42,6.38l2.53,3.97c1.39,2.18,2.27,4.67,3.13,7.33l-3.84,5.32-1.64-4.11c-1.3-3.24-2.88-6.38-4.64-9.33-.87-1.44-1.75-2.87-2.78-4.21l-2.64-3.44c-1.71-2.23-3.75-4.37-6.56-5.86,1.02,2.35,2.67,3.94,3.87,5.82l4.98,7.47c.01.24.07.36.18.59l4.54,8.77,3.14,7.23c-1.42,2.23-2.04,4.9-3.35,6.61-3.16-4.43-6.07-9.03-8.48-13.89-2.63-5.3-4.67-10.85-6.8-16.37l-1.67-4.33c-.4,1.52-.05,2.91.08,4.32.26,2.85.97,5.65,1.84,8.34.49,1.53,1.04,3.05,1.69,4.52l1.56,3.58c2.69,6.17,6.96,11.56,11.34,16.72-.85.96-.93,2.52-1.54,4.11l-2.28-1.68c-1.24-.92-2.39-2.03-3.44-3.17-1.76-1.9-3.46-3.89-4.93-6.04l-1.18-1.73c-1.71-2.51-3.02-5.33-4.03-8.22-.96-2.73-1.75-5.51-2.18-8.37-.32-2.14-.42-4.31-.41-6.47,0-2.24.26-4.5.58-6.83.14-1.01-.02-1.95-.04-2.82-.02-1.28.95-2,2.09-2.58,3.29-1.68,3.74.69,5.52,1.65Z"/>
    <path class="cls-1" d="M106.87,71.76c-1.92,6.4-6.42,11.56-11.9,15.39-.33.23-.96.32-1.14.72-2.54,1.34-5.1,2.57-7.82,3.45-2.25.61-4.73,1.13-6.91,1.99-1.06-.21-2.28-1.2-2.2-2.51.05-.89.61-1.61.88-2.31.3-.78,1.07-1.68.82-2.55,1.1-1.65,1.67-3.59,2.97-5.78,3.22-5.43,7.81-9.89,13.55-12.53,2.52-1.16,5.29-1.82,8.04-2.21.89-.13,1.5-.38,2.71-.71.91-.25,2.75,1.49,2.4,2.46-.62,1.72-.95,3.12-1.39,4.59ZM95.08,73.52l8.57-6.36c-6.02,1.78-10.85,5.4-15.12,9.6-3.06,3.41-6.13,6.77-7.83,11.31,4.54-5.2,8.85-10.24,14.38-14.56ZM82.47,89.86c6.63-2.64,12.45-6.41,17.11-11.62,2.47-2.76,4.91-5.49,5.82-9.26-4.89,6.2-10.21,11.14-16.28,15.78l-6.65,5.09Z"/>
    <path class="cls-1" d="M20.87,63.37l1.52.35c2.4.56,4.64,1.71,6.72,3.06,1.11.72,2.54,1.49,3.27,2.73l1.52,2.59c.94,1.61,2.06,3.19,3.46,4.53.33,1.29,1.76,2.08,2.45,3.2,1.49,2.43,1.73,6.2,2.96,8.36.41.71.1,1.44-.27,1.94-1.57,2.15-2.93.34-5.27-.32-1.61-.46-3.16-1.86-4.76-1.8l-3.99-2.7c-2.48-1.51-4.52-3.59-6.4-5.84-.26-.31-.64-.72-.84-1.01-1.5-2.08-2.75-4.31-3.68-6.7-.74-1.92-.99-3.96-1.58-6.09-.23-.82-.56-1.53.04-2.23,1.76-2.02,2.52-.63,4.83-.1ZM39.51,85.92c-1.85-5.7-5.4-10.07-9.29-14.16-3.15-2.75-6.06-5.41-10.15-6.74l8.41,7.51c4.31,4.06,7.53,8.78,11.03,13.39ZM37.99,87.65l-10.37-9.46c-3.5-3.58-6.17-7.48-9.35-11.41,1.21,4.55,4.05,7.91,6.9,11.3,3.79,3.74,7.76,7.29,12.82,9.57Z"/>
    <path class="cls-1" d="M75.79,30.55c.16,1.46.31,2.81.56,4.38l.65,4.07c.44,2.74-.04,5.58-.46,8.37l-5.26,3.3,1.12-3.62c.77-2.48,1.3-5.1,1.5-7.75.14-1.76.46-3.55-.15-5.54l-1.32,5.19-2.37,8.03-.26.71-2.3,5.53c-.3.72-1.25,1.29-1.77,1.76-1.7,1.56-3.39,3.16-4.71,5.09-.5-.03-.88-.47-.73-1.16l.76-3.53,1.42-4.74,1.38-3.62c1.09-2.87,2.47-5.63,3.91-8.34l3.26-6.11c-2.15,1.66-3.64,3.68-5.01,5.74-3.15,4.76-5.39,10.16-6.68,15.74-.19.06-.32.28-.42.39-.27.3.16.39.16.53.01.35-.09.64-.17.72-.08.08-.52,0-.49-.11.04-.17.23-.34-.22-.51-.33-1.49-1.74-2.66-2.19-4.19,0-1.26.58-2.74.97-3.78,1.22-3.27,2.93-6.31,5.01-9.09l.7-.94c1.83-2.45,4.31-4.25,6.77-6.04.16-.16.34-.53.71-.39.68-.57,1.14-1.49,2.28-1.77,1.01-.25,3.2.62,3.32,1.69Z"/>
  </g>
</svg>