<?xml version="1.0" encoding="UTF-8"?>
<svg id="_レイヤー_1" data-name="レイヤー 1" xmlns="http://www.w3.org/2000/svg" viewBox="0 0 124 124">
  <defs>
    <style>
      .cls-1 {
        fill: #fff;
      }

      .cls-2 {
        fill: #4366a9;
      }
    </style>
  </defs>
  <circle class="cls-2" cx="62" cy="62" r="62"/>
  <g>
    <path class="cls-1" d="M104.37,48.84v6.53s0,6.64,0,6.64v6.5s0,6.71,0,6.71l.08,5.2,1.18,1.53c1.2,2.46.47,4.59-1.6,6.35-.68.58-1.44,1.13-2.22,1.56-2.18,1.22-4.54,2.15-6.93,2.88-4.23,1.3-8.57,2.28-12.96,2.76l-6.73.73-6.7.41-6.46.13-6.47-.14-5.39-.33c-2.59-.16-5.23-.37-7.83-.78l-5.42-.86-1.53-.33c-2.1-.46-4.2-.97-6.25-1.62-1.95-.62-3.9-1.33-5.83-2.33l-.57-.13-2.87-2.13c-2.18-1.69-2.8-4.59-1.01-6.71l.79-1.27.02-4.9v-6.51s0-6.96,0-6.96v-6.49s0-6.44,0-6.44l.07-3.24c.89.95,1.6,1.34,2.36,1.78,3.81,2.16,8.15,3.22,12.67,4.18-1.08,1.45-1.89,2.63-2.63,3.92-1.07,1.87-1.87,3.93-2.42,6.03-.65,2.49-.91,5.04-.78,7.6.11,2.15.39,4.32,1.06,6.4.86,2.68,2.08,5.28,3.83,7.46.11.96,1.04,1.08,1.85,1.25,2.36.51,4.72.94,7.07,1.31,1.96.31,3.94.61,5.93.77l6.59.53,6.65.13,6.53-.12,6.09-.45c2.7-.2,5.4-.56,8.05-1.04,1.88-.34,3.81-.57,5.66-1.15.36-.11,1.15.02,1.46-.41l1.5-2.11c1.35-1.9,2.18-4.11,2.83-6.32.63-2.14.99-4.37,1.06-6.61.07-2.27-.13-4.54-.67-6.73-.61-2.49-1.55-4.9-2.88-7.04-.66-1.06-1.29-2.15-2.3-3.4,4.21-.89,8.18-1.82,11.81-3.72,1.18-.62,2.31-1.29,3.26-2.38l.02,3.35ZM62.01,92.66l6.73-.14c8.63-.18,26.61-2.28,33-7.04,1.02-.76,1.86-1.71,1.65-3.09l-2.54,1.69c-8.51,4.43-22.54,6.39-32.33,6.61l-5.09.11c-11.16.25-27.69-1.26-37.8-5.57-1.72-.73-3.25-1.53-4.81-2.87-.4,1.02.15,1.95.92,2.65,6.65,5.97,30.45,7.86,40.28,7.66Z"/>
    <path class="cls-1" d="M64.73,27.22l4.02.17,6.48.38,6.33.65c4.48.46,8.89,1.47,13.21,2.69,2.24.63,4.44,1.48,6.52,2.55,1.18.61,2.38,1.38,3.3,2.32,1.61,1.66,2.24,4.04.95,6.01-.89,1.37-2.3,2.35-3.72,3.16-2.48,1.41-5.21,2.36-8.07,3.06l-4.72,1.16c-2.4.59-4.88.94-7.36,1.2l-6.14.65-7.03.42c-2.01.12-4.03.16-6.03.12l-7.41-.14-6.5-.42-6.49-.65-6.37-1.04c-4.51-.74-9.03-2.03-13.14-4.14-1.51-.78-2.7-1.95-3.95-3-1.6-2.4-.77-5.31,1.52-6.92l2.13-1.5c2.14-1.15,4.41-2.1,6.75-2.77,4.26-1.22,8.64-2.2,13.07-2.68l7.03-.76c2.05-.22,4.15-.32,6.23-.36l9.39-.18ZM55.36,30.46l-6.76.43-6.09.67c-2.35.26-4.69.65-7.14,1.17-4.18.88-10.96,2.38-13.41,5.22-1.54,1.78,1.14,3.5,3.72,4.56,3.14,1.29,6.37,2.05,9.58,2.7,2.27.46,4.53.92,6.84,1.17l6.42.7c2.33.25,4.63.29,7.04.41l1.82.09,4.59.03c2.51.02,4.98.04,7.41-.12l5.83-.37c2.19-.14,4.39-.32,6.63-.69l6.58-1.09c2.23-.37,4.43-.95,6.74-1.69.93-.29,1.78-.56,2.58-.89,1.86-.78,4.75-2.06,4.92-3.61.14-1.38-2.75-3.05-4.84-3.85l-1.59-.61c-2.34-.89-4.8-1.53-7.28-1.93l-6.34-1.04c-2.43-.4-4.84-.66-7.34-.83l-6.42-.43-7.03-.15-6.44.16Z"/>
    <path class="cls-1" d="M55.72,60.36c2.26,1.46,5.79,1.39,7.51,3.52.68-.23.9-.69,1.22-.95,1.41-1.15,2.94-2.14,4.59-2.86.33-.14.72-.21,1.35-.15-.1.28-.3.49-.42.59-1.34,1.08-2.6,2.95-1.57,4.43l7.05,2.59c2.5.92,6.61,2.09,6.07.7.15-.22.65-.08.49-.11,1.22-2.16,3.55-5.2,5.13-6.01l1.37-.76c.17-.09.58-.14.66.03.08.16-.19.49-.29.62l-.32.45c-1.37,1.91-2.33,4.12-3.01,6.39-.56,1.86.15,3.55,1.02,5.32.11.87,1.04,2.42,2.02,3.71.05.39.72.69.43,1.25-2.18-.74-3.99-2.2-5.24-4.02l-1.3-1.89c-.33-.48-.81-1.71-1.64-1.69-2.12.09-4.02,1.04-5.75,1.81l-3.14,1.4-2.23.99c-.83.37.6,3.13,2.53,4.65-1.47.03-2.49-.59-3.54-1.09-1.11-.52-2.07-1.36-3.1-2.2l-2.94.75c-2.62.67-5.27.74-8.26.71.51.52.5.81.62,1.33-.25.03-.36.24-.17.56-.01.49-.38,1-.1,1.45-.03.18-.1.38-.21.48-.25.22-.54.06-.79-.15l-1.8-1.39-1.71-2.61-1.28-.12c-2.45-.23-4.81-.99-7.13-1.82l-2.23-.8c-1.44-.8-2.88-1.59-4.19-2.56-.29-.22-.59-.65-.87-.99.81-.33,1.35-.1,1.96-.11l1.52-.04c-.79-.72-1.72-1.18-2.65-1.66l-.41-.29c-.13-.09-.04-.34.12-.53l.62-.76c.27,0,.35-.11.53-.21l4.15-2.26,1.33-.64c2.4-1.15,5.09-1.56,7.89-2.09,1.01-2.09,1.94-4.08,3.58-5.82.7,1.31,1.52,2.22,2.52,2.86Z"/>
    <path class="cls-1" d="M62.64,32.16l7.46.21,5.01.3,3.9.45c.3.03.37.63.27.8-.07.12-.17.39-.47.37l-3.7-.28-6.38-.42-6.22-.16-7.22.15c-2.39.05-4.77.22-7.12.48l-6.15.69-4.64.79-1.2.3c-2.56.64-7.9,1.88-7.27,3.29.6,1.34,5.09,2.43,7.39,2.95,3.73.84,7.54,1.29,11.5,1.64,2.6.23,5.04.44,7.57.51l5.89.16,7.55-.12,6.48-.38,3.55-.28c.39-.03.55.43.51.71-.03.2-.21.53-.59.57l-4.46.39-4.92.28c-4.07.23-8.18.28-12.26.13-.42-.02-.92-.06-1.31-.08l-7.04-.44-6.63-.71-6.62-1.08c-2.6-.94-7.86-1.95-8.1-4.23-.2-1.85,3.21-3.27,5.7-3.9.82-.21,1.64-.52,2.51-.69,2.49-.48,4.78-.93,7.12-1.19l5.41-.6,7.23-.45,7.23-.13Z"/>
    <path class="cls-1" d="M81.9,35.62l.55.04c2,.13,4.16.25,6.17.47,2.18.24,4.34.46,6.43,1.06.79.23,1.83,1.06,1.57,2.05-.28,1.07-1.46,1.45-2.32,1.67-4.02.99-8,.98-11.99,1.46-2.68.01-5.32.14-8-.03-.16-.14-.68-.31-.89-.16-1.7-.38-3.4-.93-4.71-2.08-.3-.81-.25-1.4,0-2.21,2.73-2.61,8.94-2.54,13.2-2.27ZM74.96,40.55c2.33.23,5.73.21,7.18-.75.27-.18.85-.21.97-.78.08-.36-.36-.64-.74-.78-.62-.23-1.5-.66-2.2-.64-.55.03-1.15-.27-1.71-.31-2.72-.18-7.83.45-7.98,1.61-.11.85,2.51,1.46,4.48,1.65ZM88.32,39.74c2,.22,4.05.3,6.05-.73-1.75-1.22-3.81-1.09-5.58-.97-.81.05-1.73.07-2.62.76.48.75,1.34.85,2.15.94Z"/>
  </g>
</svg>