<?xml version="1.0" encoding="UTF-8"?>
<svg id="_レイヤー_1" data-name="レイヤー 1" xmlns="http://www.w3.org/2000/svg" viewBox="0 0 124 124">
  <defs>
    <style>
      .cls-1 {
        fill: #fff;
      }

      .cls-2 {
        fill: #cc5656;
      }
    </style>
  </defs>
  <circle class="cls-2" cx="62" cy="62" r="62"/>
  <g>
    <path class="cls-1" d="M65.06,31.86c.05-2.39.55-5.48,2.71-5.99,1.71-.41,2.76-2.12,2.35-3.82-.4-1.71-2.12-2.76-3.82-2.35-5.8,1.39-7.5,7.15-7.62,12.06,1.1.36,2.22.79,3.36,1.35,1.02-.5,2.03-.89,3.02-1.24Z"/>
    <path class="cls-1" d="M97.19,51.39c-6.32-27.77-35.19-15.67-35.19-15.67,0,0-28.87-12.1-35.19,15.67-6.32,27.77,8.52,37.94,14.57,47.29,6.05,9.35,16.5,4.4,16.5,4.4,0,0,1.37-3.3,4.12-4.4,2.75,1.1,4.12,4.4,4.12,4.4,0,0,10.45,4.95,16.5-4.4,6.05-9.35,20.89-19.52,14.57-47.29Z"/>
  </g>
</svg>