<?xml version="1.0" standalone="no"?>
<!DOCTYPE svg PUBLIC "-//W3C//DTD SVG 20010904//EN"
 "http://www.w3.org/TR/2001/REC-SVG-20010904/DTD/svg10.dtd">
<svg version="1.0" xmlns="http://www.w3.org/2000/svg"
 width="240.000000pt" height="240.000000pt" viewBox="0 0 240.000000 240.000000"
 preserveAspectRatio="xMidYMid meet">
<metadata>
Created by potrace 1.16, written by Peter Selinger 2001-2019
</metadata><g><rect x="0" y="0" width="240" height="240" fill="#ffffff" />
<g transform="translate(0.000000,240.000000) scale(0.050000,-0.050000)"
fill="#000000" stroke="none">
<path d="M420 3960 l0 -420 420 0 420 0 0 420 0 420 -420 0 -420 0 0 -420z
m720 0 l0 -300 -300 0 -300 0 0 300 0 300 300 0 300 0 0 -300z"/>
<path d="M660 3960 l0 -180 180 0 180 0 0 180 0 180 -180 0 -180 0 0 -180z"/>
<path d="M1380 4320 l0 -60 60 0 60 0 0 -60 0 -60 60 0 60 0 0 -60 0 -60 60 0
60 0 0 120 0 120 120 0 120 0 0 60 0 60 -120 0 -120 0 0 -60 0 -60 -120 0
-120 0 0 60 0 60 -60 0 -60 0 0 -60z"/>
<path d="M2220 4320 l0 -60 60 0 60 0 0 -60 0 -60 -60 0 -60 0 0 -60 0 -60 60
0 60 0 0 -60 0 -60 -120 0 -120 0 0 -60 0 -60 60 0 60 0 0 -60 0 -60 -60 0
-60 0 0 -60 0 -60 -60 0 -60 0 0 120 0 120 -60 0 -60 0 0 60 0 60 60 0 60 0 0
120 0 120 -60 0 -60 0 0 -120 0 -120 -60 0 -60 0 0 -60 0 -60 -60 0 -60 0 0
60 0 60 -60 0 -60 0 0 -60 0 -60 60 0 60 0 0 -180 0 -180 -60 0 -60 0 0 120 0
120 -60 0 -60 0 0 -120 0 -120 60 0 60 0 0 -120 0 -120 60 0 60 0 0 -60 0 -60
-60 0 -60 0 0 -60 0 -60 -180 0 -180 0 0 -60 0 -60 -60 0 -60 0 0 -180 0 -180
-60 0 -60 0 0 180 0 180 -120 0 -120 0 0 60 0 60 -120 0 -120 0 0 -120 0 -120
60 0 60 0 0 60 0 60 60 0 60 0 0 -60 0 -60 60 0 60 0 0 -120 0 -120 60 0 60 0
0 -120 0 -120 -60 0 -60 0 0 60 0 60 -60 0 -60 0 0 60 0 60 -120 0 -120 0 0
-120 0 -120 180 0 180 0 0 -120 0 -120 120 0 120 0 0 60 0 60 120 0 120 0 0
-60 0 -60 -60 0 -60 0 0 -60 0 -60 60 0 60 0 0 -60 0 -60 -60 0 -60 0 0 -60 0
-60 60 0 60 0 0 -60 0 -60 -120 0 -120 0 0 120 0 120 -60 0 -60 0 0 -120 0
-120 60 0 60 0 0 -60 0 -60 120 0 120 0 0 60 0 60 60 0 60 0 0 120 0 120 60 0
60 0 0 60 0 60 60 0 60 0 0 -60 0 -60 60 0 60 0 0 180 0 180 60 0 60 0 0 -120
0 -120 120 0 120 0 0 -180 0 -180 -60 0 -60 0 0 -60 0 -60 -60 0 -60 0 0 -60
0 -60 60 0 60 0 0 60 0 60 120 0 120 0 0 -60 0 -60 -60 0 -60 0 0 -60 0 -60
-120 0 -120 0 0 -60 0 -60 -60 0 -60 0 0 180 0 180 -60 0 -60 0 0 60 0 60 60
0 60 0 0 60 0 60 -120 0 -120 0 0 -120 0 -120 -60 0 -60 0 0 -60 0 -60 120 0
120 0 0 -120 0 -120 -120 0 -120 0 0 -120 0 -120 60 0 60 0 0 -60 0 -60 -60 0
-60 0 0 -120 0 -120 60 0 60 0 0 120 0 120 120 0 120 0 0 -60 0 -60 -60 0 -60
0 0 -60 0 -60 120 0 120 0 0 120 0 120 60 0 60 0 0 -120 0 -120 60 0 60 0 0
120 0 120 60 0 60 0 0 -120 0 -120 180 0 180 0 0 60 0 60 -120 0 -120 0 0 180
0 180 120 0 120 0 0 60 0 60 -180 0 -180 0 0 60 0 60 60 0 60 0 0 60 0 60 60
0 60 0 0 60 0 60 -60 0 -60 0 0 60 0 60 120 0 120 0 0 60 0 60 60 0 60 0 0 60
0 60 60 0 60 0 0 -60 0 -60 60 0 60 0 0 60 0 60 60 0 60 0 0 -60 0 -60 180 0
180 0 0 60 0 60 60 0 60 0 0 -120 0 -120 -120 0 -120 0 0 -120 0 -120 -120 0
-120 0 0 60 0 60 -60 0 -60 0 0 60 0 60 -60 0 -60 0 0 -60 0 -60 60 0 60 0 0
-120 0 -120 180 0 180 0 0 -60 0 -60 -120 0 -120 0 0 -60 0 -60 120 0 120 0 0
-60 0 -60 60 0 60 0 0 -120 0 -120 -120 0 -120 0 0 120 0 120 -60 0 -60 0 0
-120 0 -120 -120 0 -120 0 0 -60 0 -60 120 0 120 0 0 60 0 60 60 0 60 0 0 -60
0 -60 120 0 120 0 0 60 0 60 180 0 180 0 0 -60 0 -60 120 0 120 0 0 60 0 60
180 0 180 0 0 180 0 180 -180 0 -180 0 0 -60 0 -60 60 0 60 0 0 -60 0 -60
-120 0 -120 0 0 60 0 60 -120 0 -120 0 0 -60 0 -60 -60 0 -60 0 0 120 0 120
180 0 180 0 0 60 0 60 240 0 240 0 0 60 0 60 -180 0 -180 0 0 60 0 60 120 0
120 0 0 120 0 120 -60 0 -60 0 0 60 0 60 120 0 120 0 0 60 0 60 -60 0 -60 0 0
60 0 60 -60 0 -60 0 0 -120 0 -120 -60 0 -60 0 0 -60 0 -60 60 0 60 0 0 -60 0
-60 -120 0 -120 0 0 60 0 60 -60 0 -60 0 0 60 0 60 60 0 60 0 0 60 0 60 60 0
60 0 0 60 0 60 -120 0 -120 0 0 60 0 60 60 0 60 0 0 180 0 180 60 0 60 0 0 60
0 60 60 0 60 0 0 -120 0 -120 60 0 60 0 0 -60 0 -60 -120 0 -120 0 0 -60 0
-60 180 0 180 0 0 300 0 300 -60 0 -60 0 0 -60 0 -60 -60 0 -60 0 0 60 0 60
-60 0 -60 0 0 -60 0 -60 -120 0 -120 0 0 180 0 180 -60 0 -60 0 0 60 0 60 -60
0 -60 0 0 -60 0 -60 -60 0 -60 0 0 60 0 60 -60 0 -60 0 0 120 0 120 60 0 60 0
0 -60 0 -60 120 0 120 0 0 60 0 60 60 0 60 0 0 -120 0 -120 180 0 180 0 0 -60
0 -60 120 0 120 0 0 60 0 60 -120 0 -120 0 0 60 0 60 120 0 120 0 0 60 0 60
-60 0 -60 0 0 60 0 60 60 0 60 0 0 60 0 60 -60 0 -60 0 0 -60 0 -60 -120 0
-120 0 0 -60 0 -60 60 0 60 0 0 -60 0 -60 -120 0 -120 0 0 120 0 120 -120 0
-120 0 0 60 0 60 -60 0 -60 0 0 -60 0 -60 -60 0 -60 0 0 60 0 60 -60 0 -60 0
0 60 0 60 60 0 60 0 0 60 0 60 -60 0 -60 0 0 60 0 60 -60 0 -60 0 0 -60 0 -60
-60 0 -60 0 0 60 0 60 -120 0 -120 0 0 60 0 60 -60 0 -60 0 0 -60 0 -60 60 0
60 0 0 -120 0 -120 -60 0 -60 0 0 60 0 60 -60 0 -60 0 0 -60 0 -60 60 0 60 0
0 -180 0 -180 -60 0 -60 0 0 -60 0 -60 -60 0 -60 0 0 120 0 120 60 0 60 0 0
60 0 60 -60 0 -60 0 0 420 0 420 60 0 60 0 0 60 0 60 -180 0 -180 0 0 -60z
m-360 -660 l0 -120 60 0 60 0 0 -120 0 -120 -60 0 -60 0 0 -60 0 -60 60 0 60
0 0 -60 0 -60 -60 0 -60 0 0 60 0 60 -120 0 -120 0 0 60 0 60 120 0 120 0 0
120 0 120 -60 0 -60 0 0 120 0 120 60 0 60 0 0 -120z m480 -60 l0 -60 -60 0
-60 0 0 -60 0 -60 60 0 60 0 0 -120 0 -120 -60 0 -60 0 0 -120 0 -120 60 0 60
0 0 60 0 60 60 0 60 0 0 -60 0 -60 60 0 60 0 0 60 0 60 60 0 60 0 0 60 0 60
60 0 60 0 0 180 0 180 60 0 60 0 0 60 0 60 60 0 60 0 0 -60 0 -60 60 0 60 0 0
60 0 60 60 0 60 0 0 -60 0 -60 -60 0 -60 0 0 -120 0 -120 -60 0 -60 0 0 -120
0 -120 60 0 60 0 0 -60 0 -60 60 0 60 0 0 -60 0 -60 60 0 60 0 0 -180 0 -180
-60 0 -60 0 0 -60 0 -60 120 0 120 0 0 -120 0 -120 60 0 60 0 0 60 0 60 60 0
60 0 0 -120 0 -120 -60 0 -60 0 0 -120 0 -120 -60 0 -60 0 0 60 0 60 -60 0
-60 0 0 -60 0 -60 -60 0 -60 0 0 60 0 60 -60 0 -60 0 0 -60 0 -60 -60 0 -60 0
0 120 0 120 -60 0 -60 0 0 -120 0 -120 -60 0 -60 0 0 240 0 240 -60 0 -60 0 0
60 0 60 -60 0 -60 0 0 -60 0 -60 -120 0 -120 0 0 60 0 60 -60 0 -60 0 0 60 0
60 -60 0 -60 0 0 -60 0 -60 -180 0 -180 0 0 60 0 60 -60 0 -60 0 0 -120 0
-120 60 0 60 0 0 -60 0 -60 -60 0 -60 0 0 60 0 60 -60 0 -60 0 0 60 0 60 -60
0 -60 0 0 -120 0 -120 60 0 60 0 0 -60 0 -60 -60 0 -60 0 0 60 0 60 -60 0 -60
0 0 60 0 60 -120 0 -120 0 0 -60 0 -60 -60 0 -60 0 0 60 0 60 60 0 60 0 0 60
0 60 180 0 180 0 0 60 0 60 -120 0 -120 0 0 60 0 60 120 0 120 0 0 -60 0 -60
120 0 120 0 0 240 0 240 60 0 60 0 0 -60 0 -60 120 0 120 0 0 -60 0 -60 -120
0 -120 0 0 -120 0 -120 60 0 60 0 0 60 0 60 120 0 120 0 0 60 0 60 60 0 60 0
0 -60 0 -60 60 0 60 0 0 120 0 120 -120 0 -120 0 0 360 0 360 60 0 60 0 0 60
0 60 60 0 60 0 0 -60z m1320 -360 l0 -60 -60 0 -60 0 0 60 0 60 60 0 60 0 0
-60z m-2160 -480 l0 -60 -180 0 -180 0 0 60 0 60 180 0 180 0 0 -60z m2160
-60 l0 -120 -60 0 -60 0 0 120 0 120 60 0 60 0 0 -120z m-1440 -540 l0 -60
-60 0 -60 0 0 -60 0 -60 -60 0 -60 0 0 60 0 60 -60 0 -60 0 0 60 0 60 180 0
180 0 0 -60z m480 -180 l0 -120 -60 0 -60 0 0 -120 0 -120 -120 0 -120 0 0
240 0 240 180 0 180 0 0 -120z m1080 -780 l0 -180 -180 0 -180 0 0 180 0 180
180 0 180 0 0 -180z m-1560 -300 l0 -120 -180 0 -180 0 0 -60 0 -60 -60 0 -60
0 0 60 0 60 -120 0 -120 0 0 60 0 60 120 0 120 0 0 -60 0 -60 60 0 60 0 0 60
0 60 60 0 60 0 0 60 0 60 120 0 120 0 0 -120z"/>
<path d="M2820 3120 l0 -60 -60 0 -60 0 0 -120 0 -120 120 0 120 0 0 60 0 60
-60 0 -60 0 0 60 0 60 60 0 60 0 0 60 0 60 -60 0 -60 0 0 -60z"/>
<path d="M2340 2880 l0 -60 60 0 60 0 0 60 0 60 -60 0 -60 0 0 -60z"/>
<path d="M3180 2760 l0 -60 60 0 60 0 0 60 0 60 -60 0 -60 0 0 -60z"/>
<path d="M2580 2580 l0 -120 60 0 60 0 0 -60 0 -60 60 0 60 0 0 -60 0 -60 60
0 60 0 0 60 0 60 -60 0 -60 0 0 120 0 120 120 0 120 0 0 60 0 60 -240 0 -240
0 0 -120z"/>
<path d="M2340 2460 l0 -120 60 0 60 0 0 120 0 120 -60 0 -60 0 0 -120z"/>
<path d="M3180 2520 l0 -60 -60 0 -60 0 0 -60 0 -60 60 0 60 0 0 60 0 60 60 0
60 0 0 60 0 60 -60 0 -60 0 0 -60z"/>
<path d="M3060 2160 l0 -60 60 0 60 0 0 -60 0 -60 60 0 60 0 0 -60 0 -60 60 0
60 0 0 120 0 120 -60 0 -60 0 0 60 0 60 -120 0 -120 0 0 -60z"/>
<path d="M2460 1920 l0 -60 60 0 60 0 0 60 0 60 -60 0 -60 0 0 -60z"/>
<path d="M3540 1200 l0 -60 60 0 60 0 0 60 0 60 -60 0 -60 0 0 -60z"/>
<path d="M2940 4320 l0 -60 60 0 60 0 0 -60 0 -60 -60 0 -60 0 0 -120 0 -120
60 0 60 0 0 120 0 120 60 0 60 0 0 60 0 60 -60 0 -60 0 0 60 0 60 -60 0 -60 0
0 -60z"/>
<path d="M3540 3960 l0 -420 420 0 420 0 0 420 0 420 -420 0 -420 0 0 -420z
m720 0 l0 -300 -300 0 -300 0 0 300 0 300 300 0 300 0 0 -300z"/>
<path d="M3780 3960 l0 -180 180 0 180 0 0 180 0 180 -180 0 -180 0 0 -180z"/>
<path d="M2700 4200 l0 -60 -60 0 -60 0 0 -60 0 -60 60 0 60 0 0 60 0 60 60 0
60 0 0 60 0 60 -60 0 -60 0 0 -60z"/>
<path d="M3300 4140 l0 -120 -60 0 -60 0 0 -60 0 -60 120 0 120 0 0 180 0 180
-60 0 -60 0 0 -120z"/>
<path d="M420 3240 l0 -180 60 0 60 0 0 120 0 120 60 0 60 0 0 -60 0 -60 60 0
60 0 0 -60 0 -60 60 0 60 0 0 120 0 120 60 0 60 0 0 60 0 60 -120 0 -120 0 0
-60 0 -60 -60 0 -60 0 0 60 0 60 -120 0 -120 0 0 -180z"/>
<path d="M1140 3360 l0 -60 60 0 60 0 0 -60 0 -60 -60 0 -60 0 0 -60 0 -60 60
0 60 0 0 60 0 60 60 0 60 0 0 60 0 60 -60 0 -60 0 0 60 0 60 -60 0 -60 0 0
-60z"/>
<path d="M420 1620 l0 -240 180 0 180 0 0 60 0 60 -120 0 -120 0 0 180 0 180
-60 0 -60 0 0 -240z"/>
<path d="M660 1740 l0 -120 60 0 60 0 0 120 0 120 -60 0 -60 0 0 -120z"/>
<path d="M1860 1680 l0 -60 60 0 60 0 0 60 0 60 -60 0 -60 0 0 -60z"/>
<path d="M2580 1320 l0 -60 60 0 60 0 0 -60 0 -60 60 0 60 0 0 60 0 60 -60 0
-60 0 0 60 0 60 -60 0 -60 0 0 -60z"/>
<path d="M420 840 l0 -420 420 0 420 0 0 420 0 420 -420 0 -420 0 0 -420z
m720 0 l0 -300 -300 0 -300 0 0 300 0 300 300 0 300 0 0 -300z"/>
<path d="M660 840 l0 -180 180 0 180 0 0 180 0 180 -180 0 -180 0 0 -180z"/>
<path d="M2700 780 l0 -120 60 0 60 0 0 60 0 60 60 0 60 0 0 60 0 60 -120 0
-120 0 0 -120z"/>
</g>
</g></svg>
